M48
; DRILL file {KiCad 8.0.8} date 2025-01-23T12:07:22-0800
; FORMAT={-:-/ absolute / inch / decimal}
; #@! TF.CreationDate,2025-01-23T12:07:22-08:00
; #@! TF.GenerationSoftware,Kicad,Pcbnew,8.0.8
; #@! TF.FileFunction,Plated,1,2,PTH
FMAT,2
INCH
; #@! TA.AperFunction,Plated,PTH,ViaDrill
T1C0.0118
; #@! TA.AperFunction,Plated,PTH,ViaDrill
T2C0.0138
; #@! TA.AperFunction,Plated,PTH,ComponentDrill
T3C0.0236
; #@! TA.AperFunction,Plated,PTH,ComponentDrill
T4C0.0315
; #@! TA.AperFunction,Plated,PTH,ComponentDrill
T5C0.0354
; #@! TA.AperFunction,Plated,PTH,ComponentDrill
T6C0.0400
; #@! TA.AperFunction,Plated,PTH,ComponentDrill
T7C0.0433
; #@! TA.AperFunction,Plated,PTH,ComponentDrill
T8C0.0531
; #@! TA.AperFunction,Plated,PTH,ComponentDrill
T9C0.0591
; #@! TA.AperFunction,Plated,PTH,ComponentDrill
T10C0.0827
; #@! TA.AperFunction,Plated,PTH,ComponentDrill
T11C0.0941
; #@! TA.AperFunction,Plated,PTH,ComponentDrill
T12C0.1378
%
G90
G05
T1
X2.2008Y-3.3693
X2.2126Y-3.3063
X2.2441Y-5.4016
X2.248Y-5.4843
X2.2835Y-5.5276
X2.3307Y-3.2748
X2.3346Y-5.4252
X2.3504Y-3.5031
X2.4882Y-5.7913
X2.6654Y-3.6811
X2.937Y-5.5039
X2.9882Y-5.6339
X3.1417Y-5.9055
X3.1575Y-3.6693
X3.1732Y-3.622
X3.2913Y-4.1457
X3.3858Y-5.9646
X3.4016Y-3.0551
X3.4055Y-5.6142
X3.5591Y-4.0157
X3.811Y-4.0787
X3.9685Y-4.0709
X4.0039Y-4.3346
X4.0709Y-3.5866
X4.1142Y-3.1181
X4.126Y-3.6929
X4.2835Y-4.2087
X4.3228Y-3.9646
X4.4843Y-3.3937
X4.4961Y-4.6496
X4.5Y-4.7913
X4.5079Y-3.5827
X4.563Y-3.315
X4.6102Y-3.5827
X4.7402Y-5.0669
X4.8071Y-4.1181
X4.8622Y-3.6457
X5.0118Y-4.2087
X5.0512Y-3.0945
X5.0709Y-5.0551
X5.1535Y-3.1417
X5.1535Y-3.5984
X5.1772Y-4.2283
X5.3071Y-3.9803
X5.4724Y-3.5433
X5.6181Y-3.1378
X5.622Y-3.5512
X5.7795Y-3.6181
X5.8031Y-4.123
X5.9803Y-3.1181
X6.6299Y-4.563
X6.6417Y-4.4646
X6.752Y-4.437
X7.1969Y-3.4567
X7.3307Y-4.4961
X7.3504Y-4.5906
X7.4567Y-4.4362
X8.0236Y-4.5315
X8.0591Y-4.622
X8.1732Y-4.4094
X8.5669Y-5.4094
X8.6339Y-5.7087
X8.8346Y-3.2717
X8.937Y-3.7992
X8.9764Y-4.7835
T2
X3.9646Y-3.874
X3.9646Y-3.9252
X4.1929Y-3.9213
X5.2362Y-3.8937
T4
X9.063Y-5.4124
X9.063Y-5.5124
X9.063Y-5.6124
X9.363Y-5.4124
X9.363Y-5.5124
X9.363Y-5.6124
T5
X3.1496Y-5.1969
X3.1496Y-5.2819
X3.1496Y-5.3669
X3.1496Y-5.4519
X8.1102Y-5.648
X8.1102Y-5.748
T6
X6.6437Y-5.7087
X6.7421Y-5.7087
X7.3524Y-5.7087
X7.4508Y-5.7087
T7
X2.0785Y-4.4087
X2.0785Y-5.0087
X2.1785Y-4.4087
X2.1785Y-5.0087
X2.2785Y-4.4087
X2.2785Y-5.0087
X2.3785Y-4.4087
X2.3785Y-5.0087
X2.4785Y-4.4087
X2.4785Y-5.0087
X2.5785Y-4.4087
X2.5785Y-5.0087
X2.6785Y-4.4087
X2.6785Y-5.0087
X2.7785Y-4.4087
X2.7785Y-5.0087
X2.8785Y-4.4087
X2.8785Y-5.0087
X2.9785Y-4.4087
X2.9785Y-5.0087
X3.0496Y-5.7087
X3.0785Y-4.4087
X3.0785Y-5.0087
X3.1496Y-5.7087
X3.1785Y-4.4087
X3.1785Y-5.0087
X3.2496Y-5.7087
X3.2785Y-4.4087
X3.2785Y-5.0087
X3.3785Y-4.4087
X3.3785Y-5.0087
X3.4785Y-4.4087
X3.4785Y-5.0087
X3.5785Y-4.4087
X3.5785Y-5.0087
X3.6785Y-4.4087
X3.6785Y-5.0087
X3.7583Y-5.7087
X3.7785Y-4.4087
X3.7785Y-5.0087
X3.8583Y-5.7087
X3.8785Y-4.4087
X3.8785Y-5.0087
X3.9583Y-5.7087
X3.9785Y-4.4087
X3.9785Y-5.0087
X4.4669Y-5.7087
X4.5669Y-5.7087
X4.6669Y-5.7087
X6.5945Y-4.252
X6.5945Y-5.1969
X6.6929Y-4.252
X6.6929Y-5.1969
X6.7913Y-4.252
X6.7913Y-5.1969
X7.3031Y-4.252
X7.3031Y-5.1969
X7.4016Y-4.252
X7.4016Y-5.1969
X7.5Y-4.252
X7.5Y-5.1969
X8.0118Y-4.252
X8.0118Y-5.1969
X8.1102Y-4.252
X8.1102Y-5.1969
X8.2087Y-4.252
X8.2087Y-5.1969
T8
X9.1539Y-2.8543
X9.1539Y-3.248
X9.1539Y-3.7402
X9.1539Y-4.1339
X9.1539Y-4.626
X9.1539Y-5.0197
X9.252Y-2.7559
X9.252Y-3.0512
X9.252Y-3.3465
X9.252Y-3.6417
X9.252Y-3.937
X9.252Y-4.2323
X9.252Y-4.5276
X9.252Y-4.8228
X9.252Y-5.1181
X9.6457Y-2.9528
X9.6457Y-3.1496
X9.6457Y-3.8386
X9.6457Y-4.0354
X9.6457Y-4.7244
X9.6457Y-4.9213
T9
X2.4311Y-2.3505
X2.4311Y-2.5986
X2.4311Y-2.8466
X3.0808Y-2.3505
X3.0808Y-2.5986
X3.0808Y-2.8466
X3.4154Y-2.3505
X3.4154Y-2.5986
X3.4154Y-2.8466
X4.065Y-2.3505
X4.065Y-2.5986
X4.065Y-2.8466
X4.3996Y-2.3505
X4.3996Y-2.5986
X4.3996Y-2.8466
X5.0493Y-2.3505
X5.0493Y-2.5986
X5.0493Y-2.8466
X5.3839Y-2.3505
X5.3839Y-2.5986
X5.3839Y-2.8466
X6.0335Y-2.3505
X6.0335Y-2.5986
X6.0335Y-2.8466
X8.0611Y-2.3505
X8.0611Y-2.5986
X8.0611Y-2.8466
X8.7107Y-2.3505
X8.7107Y-2.5986
X8.7107Y-2.8466
T10
X6.5157Y-3.9764
X6.5157Y-4.9213
X6.8701Y-3.9764
X6.8701Y-4.9213
X7.2244Y-3.9764
X7.2244Y-4.9213
X7.5787Y-3.9764
X7.5787Y-4.9213
X7.9331Y-3.9764
X7.9331Y-4.9213
X8.2874Y-3.9764
X8.2874Y-4.9213
T11
X9.4488Y-2.7559
X9.4488Y-3.3465
X9.4488Y-3.6417
X9.4488Y-4.2323
X9.4488Y-4.5276
X9.4488Y-5.1181
T12
X2.1654Y-2.3623
X2.1685Y-5.9475
X9.5276Y-2.3622
X9.5276Y-5.9057
T3
G00X2.0945Y-3.1992
M15
G01X2.063Y-3.1992
M16
G05
G00X2.0945Y-3.5394
M15
G01X2.063Y-3.5394
M16
G05
G00X2.265Y-3.1992
M15
G01X2.2217Y-3.1992
M16
G05
G00X2.265Y-3.5394
M15
G01X2.2217Y-3.5394
M16
G05
T4
G00X6.3661Y-2.5591
M15
G01X6.3661Y-2.6457
M16
G05
G00X6.5984Y-2.4921
M15
G01X6.5118Y-2.4921
M16
G05
G00X6.6063Y-2.7205
M15
G01X6.5039Y-2.7205
M16
G05
M30
