%TF.GenerationSoftware,KiCad,Pcbnew,8.0.8*%
%TF.CreationDate,2025-01-23T12:29:18-08:00*%
%TF.ProjectId,Seed3-Pedal-DevKit-Converted,53656564-332d-4506-9564-616c2d446576,rev?*%
%TF.SameCoordinates,Original*%
%TF.FileFunction,Soldermask,Bot*%
%TF.FilePolarity,Negative*%
%FSLAX46Y46*%
G04 Gerber Fmt 4.6, Leading zero omitted, Abs format (unit mm)*
G04 Created by KiCad (PCBNEW 8.0.8) date 2025-01-23 12:29:18*
%MOMM*%
%LPD*%
G01*
G04 APERTURE LIST*
G04 Aperture macros list*
%AMRoundRect*
0 Rectangle with rounded corners*
0 $1 Rounding radius*
0 $2 $3 $4 $5 $6 $7 $8 $9 X,Y pos of 4 corners*
0 Add a 4 corners polygon primitive as box body*
4,1,4,$2,$3,$4,$5,$6,$7,$8,$9,$2,$3,0*
0 Add four circle primitives for the rounded corners*
1,1,$1+$1,$2,$3*
1,1,$1+$1,$4,$5*
1,1,$1+$1,$6,$7*
1,1,$1+$1,$8,$9*
0 Add four rect primitives between the rounded corners*
20,1,$1+$1,$2,$3,$4,$5,0*
20,1,$1+$1,$4,$5,$6,$7,0*
20,1,$1+$1,$6,$7,$8,$9,0*
20,1,$1+$1,$8,$9,$2,$3,0*%
%AMFreePoly0*
4,1,25,0.401445,0.907196,0.413568,0.896842,0.896842,0.413568,0.925349,0.357620,0.926600,0.341726,0.926600,-0.341726,0.907196,-0.401445,0.896842,-0.413568,0.413568,-0.896842,0.357620,-0.925349,0.341726,-0.926600,-0.341726,-0.926600,-0.401445,-0.907196,-0.413568,-0.896842,-0.896842,-0.413568,-0.925349,-0.357620,-0.926600,-0.341726,-0.926600,0.341726,-0.907196,0.401445,-0.896842,0.413568,
-0.413568,0.896842,-0.357620,0.925349,-0.341726,0.926600,0.341726,0.926600,0.401445,0.907196,0.401445,0.907196,$1*%
G04 Aperture macros list end*
%ADD10C,7.000000*%
%ADD11C,2.453200*%
%ADD12C,2.228200*%
%ADD13C,3.609200*%
%ADD14RoundRect,0.101600X-0.825000X0.825000X-0.825000X-0.825000X0.825000X-0.825000X0.825000X0.825000X0*%
%ADD15FreePoly0,270.000000*%
%ADD16RoundRect,0.101600X-1.558000X1.558000X-1.558000X-1.558000X1.558000X-1.558000X1.558000X1.558000X0*%
%ADD17C,1.879600*%
%ADD18R,1.800000X1.800000*%
%ADD19C,1.800000*%
%ADD20R,1.700000X1.700000*%
%ADD21C,1.700000*%
%ADD22R,1.600000X1.600000*%
%ADD23O,1.600000X1.600000*%
%ADD24O,1.727200X3.251200*%
%ADD25R,4.400000X1.800000*%
%ADD26O,4.000000X1.800000*%
%ADD27O,1.800000X4.000000*%
%ADD28C,0.650000*%
%ADD29O,2.200000X1.100000*%
%ADD30O,1.900000X1.100000*%
G04 APERTURE END LIST*
D10*
%TO.C,H1*%
X55001100Y-60003600D03*
%TD*%
D11*
%TO.C,J5*%
X61751100Y-59703600D03*
X61751100Y-72303600D03*
X61751100Y-66003600D03*
X78251100Y-59703600D03*
X78251100Y-72303600D03*
X78251100Y-66003600D03*
%TD*%
D12*
%TO.C,J11*%
X245000000Y-80000000D03*
X245000000Y-75000000D03*
D13*
X240000000Y-85000000D03*
X240000000Y-70000000D03*
D12*
X235000000Y-70000000D03*
X235000000Y-77500000D03*
X235000000Y-85000000D03*
X232510000Y-72500000D03*
X232510000Y-82500000D03*
%TD*%
D14*
%TO.C,VR3*%
X203500000Y-108000000D03*
D15*
X206000000Y-108000000D03*
X208500000Y-108000000D03*
D16*
X201500000Y-101000000D03*
X210500000Y-101000000D03*
%TD*%
D14*
%TO.C,VR5*%
X185500000Y-132000000D03*
D15*
X188000000Y-132000000D03*
X190500000Y-132000000D03*
D16*
X183500000Y-125000000D03*
X192500000Y-125000000D03*
%TD*%
D11*
%TO.C,J2*%
X136751100Y-59703600D03*
X136751100Y-72303600D03*
X136751100Y-66003600D03*
X153251100Y-59703600D03*
X153251100Y-72303600D03*
X153251100Y-66003600D03*
%TD*%
D17*
%TO.C,SW2*%
X95460000Y-145000000D03*
X98000000Y-145000000D03*
X100540000Y-145000000D03*
%TD*%
D14*
%TO.C,VR1*%
X167500000Y-108000000D03*
D15*
X170000000Y-108000000D03*
X172500000Y-108000000D03*
D16*
X165500000Y-101000000D03*
X174500000Y-101000000D03*
%TD*%
D18*
%TO.C,LED1*%
X206000000Y-146000000D03*
D19*
X206000000Y-143460000D03*
%TD*%
D20*
%TO.C,A1*%
X52795000Y-127220000D03*
D21*
X55335000Y-127220000D03*
X57875000Y-127220000D03*
X60415000Y-127220000D03*
X62955000Y-127220000D03*
X65495000Y-127220000D03*
X68035000Y-127220000D03*
X70575000Y-127220000D03*
X73115000Y-127220000D03*
X75655000Y-127220000D03*
X78195000Y-127220000D03*
X80735000Y-127220000D03*
X83275000Y-127220000D03*
X85815000Y-127220000D03*
X88355000Y-127220000D03*
X90895000Y-127220000D03*
X93435000Y-127220000D03*
X95975000Y-127220000D03*
X98515000Y-127220000D03*
X101055000Y-127220000D03*
X101055000Y-111980000D03*
X98515000Y-111980000D03*
X95975000Y-111980000D03*
X93435000Y-111980000D03*
X90895000Y-111980000D03*
X88355000Y-111980000D03*
X85815000Y-111980000D03*
X83275000Y-111980000D03*
X80735000Y-111980000D03*
X78195000Y-111980000D03*
X75655000Y-111980000D03*
X73115000Y-111980000D03*
X70575000Y-111980000D03*
X68035000Y-111980000D03*
X65495000Y-111980000D03*
X62955000Y-111980000D03*
X60415000Y-111980000D03*
X57875000Y-111980000D03*
X55335000Y-111980000D03*
X52795000Y-111980000D03*
%TD*%
D14*
%TO.C,VR4*%
X167500000Y-132000000D03*
D15*
X170000000Y-132000000D03*
X172500000Y-132000000D03*
D16*
X165500000Y-125000000D03*
X174500000Y-125000000D03*
%TD*%
D22*
%TO.C,U11*%
X230200000Y-137475000D03*
D23*
X230200000Y-140015000D03*
X230200000Y-142555000D03*
X237820000Y-142555000D03*
X237820000Y-140015000D03*
X237820000Y-137475000D03*
%TD*%
D11*
%TO.C,J6*%
X204751100Y-59703600D03*
X204751100Y-72303600D03*
X204751100Y-66003600D03*
X221251100Y-59703600D03*
X221251100Y-72303600D03*
X221251100Y-66003600D03*
%TD*%
D24*
%TO.C,FSW_1*%
X171250000Y-145000000D03*
X168750000Y-145000000D03*
%TD*%
D10*
%TO.C,H2*%
X55081100Y-151066600D03*
%TD*%
D14*
%TO.C,VR6*%
X203500000Y-132000000D03*
D15*
X206000000Y-132000000D03*
X208500000Y-132000000D03*
D16*
X201500000Y-125000000D03*
X210500000Y-125000000D03*
%TD*%
D11*
%TO.C,J3*%
X86751100Y-59703600D03*
X86751100Y-72303600D03*
X86751100Y-66003600D03*
X103251100Y-59703600D03*
X103251100Y-72303600D03*
X103251100Y-66003600D03*
%TD*%
D17*
%TO.C,SW1*%
X77460000Y-145000000D03*
X80000000Y-145000000D03*
X82540000Y-145000000D03*
%TD*%
D24*
%TO.C,FSW_2*%
X189250000Y-145000000D03*
X186750000Y-145000000D03*
%TD*%
D18*
%TO.C,LED2*%
X80000000Y-132000000D03*
D19*
X80000000Y-134159000D03*
X80000000Y-136318000D03*
X80000000Y-138477000D03*
%TD*%
D10*
%TO.C,H3*%
X242001100Y-60000000D03*
%TD*%
D17*
%TO.C,SW6*%
X113460000Y-145000000D03*
X116000000Y-145000000D03*
X118540000Y-145000000D03*
%TD*%
D25*
%TO.C,J8*%
X166500000Y-69100000D03*
D26*
X166500000Y-63300000D03*
D27*
X161700000Y-66100000D03*
%TD*%
D28*
%TO.C,U4*%
X56480200Y-82680100D03*
X56480200Y-88470000D03*
D29*
X56980100Y-81259900D03*
X56980100Y-89900000D03*
D30*
X52800000Y-89900000D03*
X52800000Y-81259900D03*
%TD*%
D12*
%TO.C,J1*%
X245000000Y-102500000D03*
X245000000Y-97500000D03*
D13*
X240000000Y-107500000D03*
X240000000Y-92500000D03*
D12*
X235000000Y-92500000D03*
X235000000Y-100000000D03*
X235000000Y-107500000D03*
X232510000Y-95000000D03*
X232510000Y-105000000D03*
%TD*%
D11*
%TO.C,J4*%
X111751100Y-59703600D03*
X111751100Y-72303600D03*
X111751100Y-66003600D03*
X128251100Y-59703600D03*
X128251100Y-72303600D03*
X128251100Y-66003600D03*
%TD*%
D12*
%TO.C,J10*%
X245000000Y-125000000D03*
X245000000Y-120000000D03*
D13*
X240000000Y-130000000D03*
X240000000Y-115000000D03*
D12*
X235000000Y-115000000D03*
X235000000Y-122500000D03*
X235000000Y-130000000D03*
X232510000Y-117500000D03*
X232510000Y-127500000D03*
%TD*%
D14*
%TO.C,VR2*%
X185500000Y-108000000D03*
D15*
X188000000Y-108000000D03*
X190500000Y-108000000D03*
D16*
X183500000Y-101000000D03*
X192500000Y-101000000D03*
%TD*%
D10*
%TO.C,H4*%
X242001100Y-150003600D03*
%TD*%
M02*
