%TF.GenerationSoftware,KiCad,Pcbnew,10.0.1*%
%TF.CreationDate,2026-06-18T11:59:13-07:00*%
%TF.ProjectId,ES-Seed3-DevKit-Pedal-Rev4,45532d53-6565-4643-932d-4465764b6974,rev?*%
%TF.SameCoordinates,Original*%
%TF.FileFunction,Legend,Bot*%
%TF.FilePolarity,Positive*%
%FSLAX45Y45*%
G04 Gerber Fmt 4.5, Leading zero omitted, Abs format (unit mm)*
G04 Created by KiCad (PCBNEW 10.0.1) date 2026-06-18 11:59:13*
%MOMM*%
%LPD*%
G01*
G04 APERTURE LIST*
G04 Aperture macros list*
%AMRoundRect*
0 Rectangle with rounded corners*
0 $1 Rounding radius*
0 $2 $3 $4 $5 $6 $7 $8 $9 X,Y pos of 4 corners*
0 Add a 4 corners polygon primitive as box body*
4,1,4,$2,$3,$4,$5,$6,$7,$8,$9,$2,$3,0*
0 Add four circle primitives for the rounded corners*
1,1,$1+$1,$2,$3*
1,1,$1+$1,$4,$5*
1,1,$1+$1,$6,$7*
1,1,$1+$1,$8,$9*
0 Add four rect primitives between the rounded corners*
20,1,$1+$1,$2,$3,$4,$5,0*
20,1,$1+$1,$4,$5,$6,$7,0*
20,1,$1+$1,$6,$7,$8,$9,0*
20,1,$1+$1,$8,$9,$2,$3,0*%
%AMFreePoly0*
4,1,25,0.401445,0.907196,0.413568,0.896842,0.896842,0.413568,0.925349,0.357620,0.926600,0.341726,0.926600,-0.341726,0.907196,-0.401445,0.896842,-0.413568,0.413568,-0.896842,0.357620,-0.925349,0.341726,-0.926600,-0.341726,-0.926600,-0.401445,-0.907196,-0.413568,-0.896842,-0.896842,-0.413568,-0.925349,-0.357620,-0.926600,-0.341726,-0.926600,0.341726,-0.907196,0.401445,-0.896842,0.413568,
-0.413568,0.896842,-0.357620,0.925349,-0.341726,0.926600,0.341726,0.926600,0.401445,0.907196,0.401445,0.907196,$1*%
G04 Aperture macros list end*
%ADD10C,0.300000*%
%ADD11C,0.101600*%
%ADD12C,0.127000*%
%ADD13C,0.152400*%
%ADD14C,2.082800*%
%ADD15C,7.000000*%
%ADD16C,3.000000*%
%ADD17C,2.228200*%
%ADD18C,3.609200*%
%ADD19RoundRect,0.101600X-0.825000X0.825000X-0.825000X-0.825000X0.825000X-0.825000X0.825000X0.825000X0*%
%ADD20FreePoly0,270.000000*%
%ADD21RoundRect,0.101600X-1.558000X1.558000X-1.558000X-1.558000X1.558000X-1.558000X1.558000X1.558000X0*%
%ADD22C,1.981200*%
%ADD23R,1.800000X1.800000*%
%ADD24C,1.800000*%
%ADD25R,1.700000X1.700000*%
%ADD26C,1.700000*%
%ADD27R,1.600000X1.600000*%
%ADD28O,1.600000X1.600000*%
%ADD29O,1.727200X3.251200*%
%ADD30C,0.650000*%
%ADD31O,1.625600X3.048000*%
%ADD32C,0.999997*%
%ADD33R,4.400000X1.800000*%
%ADD34O,4.000000X1.800000*%
%ADD35O,1.800000X4.000000*%
G04 APERTURE END LIST*
D10*
X18353835Y9559917D02*
X18403835Y9631346D01*
X18439549Y9559917D02*
X18439549Y9709917D01*
X18439549Y9709917D02*
X18382406Y9709917D01*
X18382406Y9709917D02*
X18368120Y9702774D01*
X18368120Y9702774D02*
X18360977Y9695632D01*
X18360977Y9695632D02*
X18353835Y9681346D01*
X18353835Y9681346D02*
X18353835Y9659917D01*
X18353835Y9659917D02*
X18360977Y9645632D01*
X18360977Y9645632D02*
X18368120Y9638489D01*
X18368120Y9638489D02*
X18382406Y9631346D01*
X18382406Y9631346D02*
X18439549Y9631346D01*
X18232406Y9567060D02*
X18246692Y9559917D01*
X18246692Y9559917D02*
X18275263Y9559917D01*
X18275263Y9559917D02*
X18289549Y9567060D01*
X18289549Y9567060D02*
X18296692Y9581346D01*
X18296692Y9581346D02*
X18296692Y9638489D01*
X18296692Y9638489D02*
X18289549Y9652774D01*
X18289549Y9652774D02*
X18275263Y9659917D01*
X18275263Y9659917D02*
X18246692Y9659917D01*
X18246692Y9659917D02*
X18232406Y9652774D01*
X18232406Y9652774D02*
X18225263Y9638489D01*
X18225263Y9638489D02*
X18225263Y9624203D01*
X18225263Y9624203D02*
X18296692Y9609917D01*
X18175263Y9659917D02*
X18139549Y9559917D01*
X18139549Y9559917D02*
X18103835Y9659917D01*
X17982406Y9659917D02*
X17982406Y9559917D01*
X18018120Y9717060D02*
X18053835Y9609917D01*
X18053835Y9609917D02*
X17960978Y9609917D01*
%TO.C,SW5*%
D11*
X10050680Y1226060D02*
G75*
G02*
X9699080Y1226060I-175800J0D01*
G01*
X9699080Y1226060D02*
G75*
G02*
X10050680Y1226060I175800J0D01*
G01*
X10050680Y773940D02*
G75*
G02*
X9699080Y773940I-175800J0D01*
G01*
X9699080Y773940D02*
G75*
G02*
X10050680Y773940I175800J0D01*
G01*
X10700920Y1226060D02*
G75*
G02*
X10349320Y1226060I-175800J0D01*
G01*
X10349320Y1226060D02*
G75*
G02*
X10700920Y1226060I175800J0D01*
G01*
X10700920Y773940D02*
G75*
G02*
X10349320Y773940I-175800J0D01*
G01*
X10349320Y773940D02*
G75*
G02*
X10700920Y773940I175800J0D01*
G01*
%TO.C,J11*%
D12*
X18391421Y8250000D02*
G75*
G02*
X18108579Y8250000I-141421J0D01*
G01*
X18108579Y8250000D02*
G75*
G02*
X18391421Y8250000I141421J0D01*
G01*
X18391421Y7250000D02*
G75*
G02*
X18108579Y7250000I-141421J0D01*
G01*
X18108579Y7250000D02*
G75*
G02*
X18391421Y7250000I141421J0D01*
G01*
X18641421Y8500000D02*
G75*
G02*
X18358579Y8500000I-141421J0D01*
G01*
X18358579Y8500000D02*
G75*
G02*
X18641421Y8500000I141421J0D01*
G01*
X18641421Y7750000D02*
G75*
G02*
X18358579Y7750000I-141421J0D01*
G01*
X18358579Y7750000D02*
G75*
G02*
X18641421Y7750000I141421J0D01*
G01*
X18641421Y7000000D02*
G75*
G02*
X18358579Y7000000I-141421J0D01*
G01*
X18358579Y7000000D02*
G75*
G02*
X18641421Y7000000I141421J0D01*
G01*
X19215000Y8500000D02*
G75*
G02*
X18785000Y8500000I-215000J0D01*
G01*
X18785000Y8500000D02*
G75*
G02*
X19215000Y8500000I215000J0D01*
G01*
X19215000Y7000000D02*
G75*
G02*
X18785000Y7000000I-215000J0D01*
G01*
X18785000Y7000000D02*
G75*
G02*
X19215000Y7000000I215000J0D01*
G01*
X19641421Y8000000D02*
G75*
G02*
X19358579Y8000000I-141421J0D01*
G01*
X19358579Y8000000D02*
G75*
G02*
X19641421Y8000000I141421J0D01*
G01*
X19641421Y7500000D02*
G75*
G02*
X19358579Y7500000I-141421J0D01*
G01*
X19358579Y7500000D02*
G75*
G02*
X19641421Y7500000I141421J0D01*
G01*
%TO.C,VR3*%
X15380000Y5400000D02*
G75*
G02*
X14920000Y5400000I-230000J0D01*
G01*
X14920000Y5400000D02*
G75*
G02*
X15380000Y5400000I230000J0D01*
G01*
X15530000Y4700000D02*
G75*
G02*
X15170000Y4700000I-180000J0D01*
G01*
X15170000Y4700000D02*
G75*
G02*
X15530000Y4700000I180000J0D01*
G01*
X15780000Y4700000D02*
G75*
G02*
X15420000Y4700000I-180000J0D01*
G01*
X15420000Y4700000D02*
G75*
G02*
X15780000Y4700000I180000J0D01*
G01*
X16030000Y4700000D02*
G75*
G02*
X15670000Y4700000I-180000J0D01*
G01*
X15670000Y4700000D02*
G75*
G02*
X16030000Y4700000I180000J0D01*
G01*
X16280000Y5400000D02*
G75*
G02*
X15820000Y5400000I-230000J0D01*
G01*
X15820000Y5400000D02*
G75*
G02*
X16280000Y5400000I230000J0D01*
G01*
%TO.C,VR5*%
X13580000Y3000000D02*
G75*
G02*
X13120000Y3000000I-230000J0D01*
G01*
X13120000Y3000000D02*
G75*
G02*
X13580000Y3000000I230000J0D01*
G01*
X13730000Y2300000D02*
G75*
G02*
X13370000Y2300000I-180000J0D01*
G01*
X13370000Y2300000D02*
G75*
G02*
X13730000Y2300000I180000J0D01*
G01*
X13980000Y2300000D02*
G75*
G02*
X13620000Y2300000I-180000J0D01*
G01*
X13620000Y2300000D02*
G75*
G02*
X13980000Y2300000I180000J0D01*
G01*
X14230000Y2300000D02*
G75*
G02*
X13870000Y2300000I-180000J0D01*
G01*
X13870000Y2300000D02*
G75*
G02*
X14230000Y2300000I180000J0D01*
G01*
X14480000Y3000000D02*
G75*
G02*
X14020000Y3000000I-230000J0D01*
G01*
X14020000Y3000000D02*
G75*
G02*
X14480000Y3000000I230000J0D01*
G01*
%TO.C,SW4*%
D11*
X8250680Y1226060D02*
G75*
G02*
X7899080Y1226060I-175800J0D01*
G01*
X7899080Y1226060D02*
G75*
G02*
X8250680Y1226060I175800J0D01*
G01*
X8250680Y773940D02*
G75*
G02*
X7899080Y773940I-175800J0D01*
G01*
X7899080Y773940D02*
G75*
G02*
X8250680Y773940I175800J0D01*
G01*
X8900920Y1226060D02*
G75*
G02*
X8549320Y1226060I-175800J0D01*
G01*
X8549320Y1226060D02*
G75*
G02*
X8900920Y1226060I175800J0D01*
G01*
X8900920Y773940D02*
G75*
G02*
X8549320Y773940I-175800J0D01*
G01*
X8549320Y773940D02*
G75*
G02*
X8900920Y773940I175800J0D01*
G01*
%TO.C,VR1*%
D12*
X11780000Y5400000D02*
G75*
G02*
X11320000Y5400000I-230000J0D01*
G01*
X11320000Y5400000D02*
G75*
G02*
X11780000Y5400000I230000J0D01*
G01*
X11930000Y4700000D02*
G75*
G02*
X11570000Y4700000I-180000J0D01*
G01*
X11570000Y4700000D02*
G75*
G02*
X11930000Y4700000I180000J0D01*
G01*
X12180000Y4700000D02*
G75*
G02*
X11820000Y4700000I-180000J0D01*
G01*
X11820000Y4700000D02*
G75*
G02*
X12180000Y4700000I180000J0D01*
G01*
X12430000Y4700000D02*
G75*
G02*
X12070000Y4700000I-180000J0D01*
G01*
X12070000Y4700000D02*
G75*
G02*
X12430000Y4700000I180000J0D01*
G01*
X12680000Y5400000D02*
G75*
G02*
X12220000Y5400000I-230000J0D01*
G01*
X12220000Y5400000D02*
G75*
G02*
X12680000Y5400000I230000J0D01*
G01*
%TO.C,VR4*%
X11780000Y3000000D02*
G75*
G02*
X11320000Y3000000I-230000J0D01*
G01*
X11320000Y3000000D02*
G75*
G02*
X11780000Y3000000I230000J0D01*
G01*
X11930000Y2300000D02*
G75*
G02*
X11570000Y2300000I-180000J0D01*
G01*
X11570000Y2300000D02*
G75*
G02*
X11930000Y2300000I180000J0D01*
G01*
X12180000Y2300000D02*
G75*
G02*
X11820000Y2300000I-180000J0D01*
G01*
X11820000Y2300000D02*
G75*
G02*
X12180000Y2300000I180000J0D01*
G01*
X12430000Y2300000D02*
G75*
G02*
X12070000Y2300000I-180000J0D01*
G01*
X12070000Y2300000D02*
G75*
G02*
X12430000Y2300000I180000J0D01*
G01*
X12680000Y3000000D02*
G75*
G02*
X12220000Y3000000I-230000J0D01*
G01*
X12220000Y3000000D02*
G75*
G02*
X12680000Y3000000I230000J0D01*
G01*
%TO.C,FSW_1*%
D13*
X11761875Y1082099D02*
X11761875Y917901D01*
X11984125Y911885D02*
X11984125Y1076651D01*
X12015875Y1082099D02*
X12015875Y917901D01*
X12238125Y911885D02*
X12238125Y1076651D01*
X11761875Y1082099D02*
G75*
G02*
X11870276Y1190500I108401J0D01*
G01*
X11870276Y1190500D02*
G75*
G02*
X11984125Y1076651I0J-113849D01*
G01*
X11870276Y809500D02*
G75*
G02*
X11761875Y917901I0J108401D01*
G01*
X11984125Y911885D02*
G75*
G02*
X11881740Y809500I-102385J0D01*
G01*
X12015875Y1082099D02*
G75*
G02*
X12124276Y1190500I108401J0D01*
G01*
X12124276Y1190500D02*
G75*
G02*
X12238125Y1076651I0J-113849D01*
G01*
X12124276Y809500D02*
G75*
G02*
X12015875Y917901I0J108401D01*
G01*
X12238125Y911885D02*
G75*
G02*
X12135740Y809500I-102385J0D01*
G01*
%TO.C,VR6*%
D12*
X15380000Y3000000D02*
G75*
G02*
X14920000Y3000000I-230000J0D01*
G01*
X14920000Y3000000D02*
G75*
G02*
X15380000Y3000000I230000J0D01*
G01*
X15530000Y2300000D02*
G75*
G02*
X15170000Y2300000I-180000J0D01*
G01*
X15170000Y2300000D02*
G75*
G02*
X15530000Y2300000I180000J0D01*
G01*
X15780000Y2300000D02*
G75*
G02*
X15420000Y2300000I-180000J0D01*
G01*
X15420000Y2300000D02*
G75*
G02*
X15780000Y2300000I180000J0D01*
G01*
X16030000Y2300000D02*
G75*
G02*
X15670000Y2300000I-180000J0D01*
G01*
X15670000Y2300000D02*
G75*
G02*
X16030000Y2300000I180000J0D01*
G01*
X16280000Y3000000D02*
G75*
G02*
X15820000Y3000000I-230000J0D01*
G01*
X15820000Y3000000D02*
G75*
G02*
X16280000Y3000000I230000J0D01*
G01*
%TO.C,FSW_2*%
D13*
X13561875Y1082099D02*
X13561875Y917901D01*
X13784125Y911885D02*
X13784125Y1076651D01*
X13815875Y1082099D02*
X13815875Y917901D01*
X14038125Y911885D02*
X14038125Y1076651D01*
X13561875Y1082099D02*
G75*
G02*
X13670276Y1190500I108401J0D01*
G01*
X13670276Y1190500D02*
G75*
G02*
X13784125Y1076651I0J-113849D01*
G01*
X13670276Y809500D02*
G75*
G02*
X13561875Y917901I0J108401D01*
G01*
X13784125Y911885D02*
G75*
G02*
X13681740Y809500I-102385J0D01*
G01*
X13815875Y1082099D02*
G75*
G02*
X13924276Y1190500I108401J0D01*
G01*
X13924276Y1190500D02*
G75*
G02*
X14038125Y1076651I0J-113849D01*
G01*
X13924276Y809500D02*
G75*
G02*
X13815875Y917901I0J108401D01*
G01*
X14038125Y911885D02*
G75*
G02*
X13935740Y809500I-102385J0D01*
G01*
%TO.C,J1*%
D12*
X18391421Y6000000D02*
G75*
G02*
X18108579Y6000000I-141421J0D01*
G01*
X18108579Y6000000D02*
G75*
G02*
X18391421Y6000000I141421J0D01*
G01*
X18391421Y5000000D02*
G75*
G02*
X18108579Y5000000I-141421J0D01*
G01*
X18108579Y5000000D02*
G75*
G02*
X18391421Y5000000I141421J0D01*
G01*
X18641421Y6250000D02*
G75*
G02*
X18358579Y6250000I-141421J0D01*
G01*
X18358579Y6250000D02*
G75*
G02*
X18641421Y6250000I141421J0D01*
G01*
X18641421Y5500000D02*
G75*
G02*
X18358579Y5500000I-141421J0D01*
G01*
X18358579Y5500000D02*
G75*
G02*
X18641421Y5500000I141421J0D01*
G01*
X18641421Y4750000D02*
G75*
G02*
X18358579Y4750000I-141421J0D01*
G01*
X18358579Y4750000D02*
G75*
G02*
X18641421Y4750000I141421J0D01*
G01*
X19215000Y6250000D02*
G75*
G02*
X18785000Y6250000I-215000J0D01*
G01*
X18785000Y6250000D02*
G75*
G02*
X19215000Y6250000I215000J0D01*
G01*
X19215000Y4750000D02*
G75*
G02*
X18785000Y4750000I-215000J0D01*
G01*
X18785000Y4750000D02*
G75*
G02*
X19215000Y4750000I215000J0D01*
G01*
X19641421Y5750000D02*
G75*
G02*
X19358579Y5750000I-141421J0D01*
G01*
X19358579Y5750000D02*
G75*
G02*
X19641421Y5750000I141421J0D01*
G01*
X19641421Y5250000D02*
G75*
G02*
X19358579Y5250000I-141421J0D01*
G01*
X19358579Y5250000D02*
G75*
G02*
X19641421Y5250000I141421J0D01*
G01*
%TO.C,J10*%
X18391421Y3750000D02*
G75*
G02*
X18108579Y3750000I-141421J0D01*
G01*
X18108579Y3750000D02*
G75*
G02*
X18391421Y3750000I141421J0D01*
G01*
X18391421Y2750000D02*
G75*
G02*
X18108579Y2750000I-141421J0D01*
G01*
X18108579Y2750000D02*
G75*
G02*
X18391421Y2750000I141421J0D01*
G01*
X18641421Y4000000D02*
G75*
G02*
X18358579Y4000000I-141421J0D01*
G01*
X18358579Y4000000D02*
G75*
G02*
X18641421Y4000000I141421J0D01*
G01*
X18641421Y3250000D02*
G75*
G02*
X18358579Y3250000I-141421J0D01*
G01*
X18358579Y3250000D02*
G75*
G02*
X18641421Y3250000I141421J0D01*
G01*
X18641421Y2500000D02*
G75*
G02*
X18358579Y2500000I-141421J0D01*
G01*
X18358579Y2500000D02*
G75*
G02*
X18641421Y2500000I141421J0D01*
G01*
X19215000Y4000000D02*
G75*
G02*
X18785000Y4000000I-215000J0D01*
G01*
X18785000Y4000000D02*
G75*
G02*
X19215000Y4000000I215000J0D01*
G01*
X19215000Y2500000D02*
G75*
G02*
X18785000Y2500000I-215000J0D01*
G01*
X18785000Y2500000D02*
G75*
G02*
X19215000Y2500000I215000J0D01*
G01*
X19641421Y3500000D02*
G75*
G02*
X19358579Y3500000I-141421J0D01*
G01*
X19358579Y3500000D02*
G75*
G02*
X19641421Y3500000I141421J0D01*
G01*
X19641421Y3000000D02*
G75*
G02*
X19358579Y3000000I-141421J0D01*
G01*
X19358579Y3000000D02*
G75*
G02*
X19641421Y3000000I141421J0D01*
G01*
%TO.C,VR2*%
X13580000Y5400000D02*
G75*
G02*
X13120000Y5400000I-230000J0D01*
G01*
X13120000Y5400000D02*
G75*
G02*
X13580000Y5400000I230000J0D01*
G01*
X13730000Y4700000D02*
G75*
G02*
X13370000Y4700000I-180000J0D01*
G01*
X13370000Y4700000D02*
G75*
G02*
X13730000Y4700000I180000J0D01*
G01*
X13980000Y4700000D02*
G75*
G02*
X13620000Y4700000I-180000J0D01*
G01*
X13620000Y4700000D02*
G75*
G02*
X13980000Y4700000I180000J0D01*
G01*
X14230000Y4700000D02*
G75*
G02*
X13870000Y4700000I-180000J0D01*
G01*
X13870000Y4700000D02*
G75*
G02*
X14230000Y4700000I180000J0D01*
G01*
X14480000Y5400000D02*
G75*
G02*
X14020000Y5400000I-230000J0D01*
G01*
X14020000Y5400000D02*
G75*
G02*
X14480000Y5400000I230000J0D01*
G01*
%TD*%
%LPC*%
D14*
%TO.C,SW5*%
X9874880Y1226060D03*
X10525120Y1226060D03*
X9874880Y773940D03*
X10525120Y773940D03*
%TD*%
D15*
%TO.C,H1*%
X500000Y9500000D03*
%TD*%
D16*
%TO.C,J5*%
X1200000Y8900000D03*
X2823000Y8900000D03*
X1200000Y9535000D03*
X2823000Y9535000D03*
X1200000Y8265000D03*
X2823000Y8265000D03*
%TD*%
D17*
%TO.C,J11*%
X19500000Y7500000D03*
X19500000Y8000000D03*
D18*
X19000000Y7000000D03*
X19000000Y8500000D03*
D17*
X18500000Y8500000D03*
X18500000Y7750000D03*
X18500000Y7000000D03*
X18251000Y8250000D03*
X18251000Y7250000D03*
%TD*%
D19*
%TO.C,VR3*%
X15350000Y4700000D03*
D20*
X15600000Y4700000D03*
X15850000Y4700000D03*
D21*
X15150000Y5400000D03*
X16050000Y5400000D03*
%TD*%
D19*
%TO.C,VR5*%
X13550000Y2300000D03*
D20*
X13800000Y2300000D03*
X14050000Y2300000D03*
D21*
X13350000Y3000000D03*
X14250000Y3000000D03*
%TD*%
D16*
%TO.C,J2*%
X8700000Y8900000D03*
X10323000Y8900000D03*
X8700000Y9535000D03*
X10323000Y9535000D03*
X8700000Y8265000D03*
X10323000Y8265000D03*
%TD*%
D22*
%TO.C,SW2*%
X4546000Y1000000D03*
X4800000Y1000000D03*
X5054000Y1000000D03*
%TD*%
D14*
%TO.C,SW4*%
X8074880Y1226060D03*
X8725120Y1226060D03*
X8074880Y773940D03*
X8725120Y773940D03*
%TD*%
D19*
%TO.C,VR1*%
X11750000Y4700000D03*
D20*
X12000000Y4700000D03*
X12250000Y4700000D03*
D21*
X11550000Y5400000D03*
X12450000Y5400000D03*
%TD*%
D23*
%TO.C,LED1*%
X15600000Y900000D03*
D24*
X15600000Y1154000D03*
%TD*%
D25*
%TO.C,A1*%
X279500Y2970500D03*
D26*
X533500Y2970500D03*
X787500Y2970500D03*
X1041500Y2970500D03*
X1295500Y2970500D03*
X1549500Y2970500D03*
X1803500Y2970500D03*
X2057500Y2970500D03*
X2311500Y2970500D03*
X2565500Y2970500D03*
X2819500Y2970500D03*
X3073500Y2970500D03*
X3327500Y2970500D03*
X3581500Y2970500D03*
X3835500Y2970500D03*
X4089500Y2970500D03*
X4343500Y2970500D03*
X4597500Y2970500D03*
X4851500Y2970500D03*
X5105500Y2970500D03*
X5105500Y4494500D03*
X4851500Y4494500D03*
X4597500Y4494500D03*
X4343500Y4494500D03*
X4089500Y4494500D03*
X3835500Y4494500D03*
X3581500Y4494500D03*
X3327500Y4494500D03*
X3073500Y4494500D03*
X2819500Y4494500D03*
X2565500Y4494500D03*
X2311500Y4494500D03*
X2057500Y4494500D03*
X1803500Y4494500D03*
X1549500Y4494500D03*
X1295500Y4494500D03*
X1041500Y4494500D03*
X787500Y4494500D03*
X533500Y4494500D03*
X279500Y4494500D03*
%TD*%
D19*
%TO.C,VR4*%
X11750000Y2300000D03*
D20*
X12000000Y2300000D03*
X12250000Y2300000D03*
D21*
X11550000Y3000000D03*
X12450000Y3000000D03*
%TD*%
D27*
%TO.C,U11*%
X18020000Y1752500D03*
D28*
X18020000Y1498500D03*
X18020000Y1244500D03*
X18782000Y1244500D03*
X18782000Y1498500D03*
X18782000Y1752500D03*
%TD*%
D16*
%TO.C,J6*%
X15500000Y8900000D03*
X17123000Y8900000D03*
X15500000Y9535000D03*
X17123000Y9535000D03*
X15500000Y8265000D03*
X17123000Y8265000D03*
%TD*%
D29*
%TO.C,FSW_1*%
X12125000Y1000000D03*
X11875000Y1000000D03*
%TD*%
D30*
%TO.C,J7*%
X600000Y7500000D03*
X600000Y6922000D03*
%TD*%
D15*
%TO.C,H2*%
X500000Y500000D03*
%TD*%
D19*
%TO.C,VR6*%
X15350000Y2300000D03*
D20*
X15600000Y2300000D03*
X15850000Y2300000D03*
D21*
X15150000Y3000000D03*
X16050000Y3000000D03*
%TD*%
D16*
%TO.C,J3*%
X3700000Y8900000D03*
X5323000Y8900000D03*
X3700000Y9535000D03*
X5323000Y9535000D03*
X3700000Y8265000D03*
X5323000Y8265000D03*
%TD*%
D31*
%TO.C,SW1*%
X2746000Y1000000D03*
X3000000Y1000000D03*
X3254000Y1000000D03*
%TD*%
D29*
%TO.C,FSW_2*%
X13925000Y1000000D03*
X13675000Y1000000D03*
%TD*%
D23*
%TO.C,LED2*%
X3000000Y2300000D03*
D24*
X3000000Y2084100D03*
X3000000Y1868200D03*
X3000000Y1652300D03*
%TD*%
D15*
%TO.C,H3*%
X19200000Y9500000D03*
%TD*%
D22*
%TO.C,SW3*%
X6346000Y1000000D03*
X6600000Y1000000D03*
X6854000Y1000000D03*
%TD*%
D32*
%TO.C,U7*%
X474440Y2330380D03*
X474440Y1532820D03*
%TD*%
D33*
%TO.C,J8*%
X11650000Y8590000D03*
D34*
X11650000Y9170000D03*
D35*
X11170000Y8890000D03*
%TD*%
D17*
%TO.C,J1*%
X19500000Y5250000D03*
X19500000Y5750000D03*
D18*
X19000000Y4750000D03*
X19000000Y6250000D03*
D17*
X18500000Y6250000D03*
X18500000Y5500000D03*
X18500000Y4750000D03*
X18251000Y6000000D03*
X18251000Y5000000D03*
%TD*%
D16*
%TO.C,J4*%
X6200000Y8900000D03*
X7823000Y8900000D03*
X6200000Y9535000D03*
X7823000Y9535000D03*
X6200000Y8265000D03*
X7823000Y8265000D03*
%TD*%
D17*
%TO.C,J10*%
X19500000Y3000000D03*
X19500000Y3500000D03*
D18*
X19000000Y2500000D03*
X19000000Y4000000D03*
D17*
X18500000Y4000000D03*
X18500000Y3250000D03*
X18500000Y2500000D03*
X18251000Y3750000D03*
X18251000Y2750000D03*
%TD*%
D19*
%TO.C,VR2*%
X13550000Y4700000D03*
D20*
X13800000Y4700000D03*
X14050000Y4700000D03*
D21*
X13350000Y5400000D03*
X14250000Y5400000D03*
%TD*%
D15*
%TO.C,H4*%
X19200000Y500000D03*
%TD*%
%LPD*%
M02*
