%TF.GenerationSoftware,KiCad,Pcbnew,10.0.1*%
%TF.CreationDate,2026-06-18T11:59:13-07:00*%
%TF.ProjectId,ES-Seed3-DevKit-Pedal-Rev4,45532d53-6565-4643-932d-4465764b6974,rev?*%
%TF.SameCoordinates,Original*%
%TF.FileFunction,AssemblyDrawing,Bot*%
%FSLAX45Y45*%
G04 Gerber Fmt 4.5, Leading zero omitted, Abs format (unit mm)*
G04 Created by KiCad (PCBNEW 10.0.1) date 2026-06-18 11:59:13*
%MOMM*%
%LPD*%
G01*
G04 APERTURE LIST*
%ADD10C,0.100000*%
G04 APERTURE END LIST*
D10*
X9968860Y1226060D02*
G75*
G02*
X9780900Y1226060I-93980J0D01*
G01*
X9780900Y1226060D02*
G75*
G02*
X9968860Y1226060I93980J0D01*
G01*
X10619100Y1226060D02*
G75*
G02*
X10431140Y1226060I-93980J0D01*
G01*
X10431140Y1226060D02*
G75*
G02*
X10619100Y1226060I93980J0D01*
G01*
X9968860Y773940D02*
G75*
G02*
X9780900Y773940I-93980J0D01*
G01*
X9780900Y773940D02*
G75*
G02*
X9968860Y773940I93980J0D01*
G01*
X10619100Y773940D02*
G75*
G02*
X10431140Y773940I-93980J0D01*
G01*
X10431140Y773940D02*
G75*
G02*
X10619100Y773940I93980J0D01*
G01*
X850000Y9500000D02*
G75*
G02*
X150000Y9500000I-350000J0D01*
G01*
X150000Y9500000D02*
G75*
G02*
X850000Y9500000I350000J0D01*
G01*
X1350000Y8900000D02*
G75*
G02*
X1050000Y8900000I-150000J0D01*
G01*
X1050000Y8900000D02*
G75*
G02*
X1350000Y8900000I150000J0D01*
G01*
X2973000Y8900000D02*
G75*
G02*
X2673000Y8900000I-150000J0D01*
G01*
X2673000Y8900000D02*
G75*
G02*
X2973000Y8900000I150000J0D01*
G01*
X1350000Y9535000D02*
G75*
G02*
X1050000Y9535000I-150000J0D01*
G01*
X1050000Y9535000D02*
G75*
G02*
X1350000Y9535000I150000J0D01*
G01*
X2973000Y9535000D02*
G75*
G02*
X2673000Y9535000I-150000J0D01*
G01*
X2673000Y9535000D02*
G75*
G02*
X2973000Y9535000I150000J0D01*
G01*
X1350000Y8265000D02*
G75*
G02*
X1050000Y8265000I-150000J0D01*
G01*
X1050000Y8265000D02*
G75*
G02*
X1350000Y8265000I150000J0D01*
G01*
X2973000Y8265000D02*
G75*
G02*
X2673000Y8265000I-150000J0D01*
G01*
X2673000Y8265000D02*
G75*
G02*
X2973000Y8265000I150000J0D01*
G01*
X19601250Y7500000D02*
G75*
G02*
X19398750Y7500000I-101250J0D01*
G01*
X19398750Y7500000D02*
G75*
G02*
X19601250Y7500000I101250J0D01*
G01*
X19601250Y8000000D02*
G75*
G02*
X19398750Y8000000I-101250J0D01*
G01*
X19398750Y8000000D02*
G75*
G02*
X19601250Y8000000I101250J0D01*
G01*
X19170300Y7000000D02*
G75*
G02*
X18829700Y7000000I-170300J0D01*
G01*
X18829700Y7000000D02*
G75*
G02*
X19170300Y7000000I170300J0D01*
G01*
X19170300Y8500000D02*
G75*
G02*
X18829700Y8500000I-170300J0D01*
G01*
X18829700Y8500000D02*
G75*
G02*
X19170300Y8500000I170300J0D01*
G01*
X18601250Y8500000D02*
G75*
G02*
X18398750Y8500000I-101250J0D01*
G01*
X18398750Y8500000D02*
G75*
G02*
X18601250Y8500000I101250J0D01*
G01*
X18601250Y7750000D02*
G75*
G02*
X18398750Y7750000I-101250J0D01*
G01*
X18398750Y7750000D02*
G75*
G02*
X18601250Y7750000I101250J0D01*
G01*
X18601250Y7000000D02*
G75*
G02*
X18398750Y7000000I-101250J0D01*
G01*
X18398750Y7000000D02*
G75*
G02*
X18601250Y7000000I101250J0D01*
G01*
X18352250Y8250000D02*
G75*
G02*
X18149750Y8250000I-101250J0D01*
G01*
X18149750Y8250000D02*
G75*
G02*
X18352250Y8250000I101250J0D01*
G01*
X18352250Y7250000D02*
G75*
G02*
X18149750Y7250000I-101250J0D01*
G01*
X18149750Y7250000D02*
G75*
G02*
X18352250Y7250000I101250J0D01*
G01*
X15432500Y4782500D02*
X15432500Y4617500D01*
X15267500Y4617500D01*
X15267500Y4782500D01*
X15432500Y4782500D01*
X15634173Y4782500D02*
X15682500Y4734173D01*
X15682500Y4665827D01*
X15634173Y4617500D01*
X15565827Y4617500D01*
X15517500Y4665827D01*
X15517500Y4734173D01*
X15565827Y4782500D01*
X15634173Y4782500D01*
X15884173Y4782500D02*
X15932500Y4734173D01*
X15932500Y4665827D01*
X15884173Y4617500D01*
X15815827Y4617500D01*
X15767500Y4665827D01*
X15767500Y4734173D01*
X15815827Y4782500D01*
X15884173Y4782500D01*
X15305800Y5555800D02*
X15305800Y5244200D01*
X14994200Y5244200D01*
X14994200Y5555800D01*
X15305800Y5555800D01*
X16205800Y5555800D02*
X16205800Y5244200D01*
X15894200Y5244200D01*
X15894200Y5555800D01*
X16205800Y5555800D01*
X13632500Y2382500D02*
X13632500Y2217500D01*
X13467500Y2217500D01*
X13467500Y2382500D01*
X13632500Y2382500D01*
X13834173Y2382500D02*
X13882500Y2334173D01*
X13882500Y2265827D01*
X13834173Y2217500D01*
X13765827Y2217500D01*
X13717500Y2265827D01*
X13717500Y2334173D01*
X13765827Y2382500D01*
X13834173Y2382500D01*
X14084173Y2382500D02*
X14132500Y2334173D01*
X14132500Y2265827D01*
X14084173Y2217500D01*
X14015827Y2217500D01*
X13967500Y2265827D01*
X13967500Y2334173D01*
X14015827Y2382500D01*
X14084173Y2382500D01*
X13505800Y3155800D02*
X13505800Y2844200D01*
X13194200Y2844200D01*
X13194200Y3155800D01*
X13505800Y3155800D01*
X14405800Y3155800D02*
X14405800Y2844200D01*
X14094200Y2844200D01*
X14094200Y3155800D01*
X14405800Y3155800D01*
X8850000Y8900000D02*
G75*
G02*
X8550000Y8900000I-150000J0D01*
G01*
X8550000Y8900000D02*
G75*
G02*
X8850000Y8900000I150000J0D01*
G01*
X10473000Y8900000D02*
G75*
G02*
X10173000Y8900000I-150000J0D01*
G01*
X10173000Y8900000D02*
G75*
G02*
X10473000Y8900000I150000J0D01*
G01*
X8850000Y9535000D02*
G75*
G02*
X8550000Y9535000I-150000J0D01*
G01*
X8550000Y9535000D02*
G75*
G02*
X8850000Y9535000I150000J0D01*
G01*
X10473000Y9535000D02*
G75*
G02*
X10173000Y9535000I-150000J0D01*
G01*
X10173000Y9535000D02*
G75*
G02*
X10473000Y9535000I150000J0D01*
G01*
X8850000Y8265000D02*
G75*
G02*
X8550000Y8265000I-150000J0D01*
G01*
X8550000Y8265000D02*
G75*
G02*
X8850000Y8265000I150000J0D01*
G01*
X10473000Y8265000D02*
G75*
G02*
X10173000Y8265000I-150000J0D01*
G01*
X10173000Y8265000D02*
G75*
G02*
X10473000Y8265000I150000J0D01*
G01*
X4634900Y1000000D02*
G75*
G02*
X4457100Y1000000I-88900J0D01*
G01*
X4457100Y1000000D02*
G75*
G02*
X4634900Y1000000I88900J0D01*
G01*
X4888900Y1000000D02*
G75*
G02*
X4711100Y1000000I-88900J0D01*
G01*
X4711100Y1000000D02*
G75*
G02*
X4888900Y1000000I88900J0D01*
G01*
X5142900Y1000000D02*
G75*
G02*
X4965100Y1000000I-88900J0D01*
G01*
X4965100Y1000000D02*
G75*
G02*
X5142900Y1000000I88900J0D01*
G01*
X8168860Y1226060D02*
G75*
G02*
X7980900Y1226060I-93980J0D01*
G01*
X7980900Y1226060D02*
G75*
G02*
X8168860Y1226060I93980J0D01*
G01*
X8819100Y1226060D02*
G75*
G02*
X8631140Y1226060I-93980J0D01*
G01*
X8631140Y1226060D02*
G75*
G02*
X8819100Y1226060I93980J0D01*
G01*
X8168860Y773940D02*
G75*
G02*
X7980900Y773940I-93980J0D01*
G01*
X7980900Y773940D02*
G75*
G02*
X8168860Y773940I93980J0D01*
G01*
X8819100Y773940D02*
G75*
G02*
X8631140Y773940I-93980J0D01*
G01*
X8631140Y773940D02*
G75*
G02*
X8819100Y773940I93980J0D01*
G01*
X11832500Y4782500D02*
X11832500Y4617500D01*
X11667500Y4617500D01*
X11667500Y4782500D01*
X11832500Y4782500D01*
X12034173Y4782500D02*
X12082500Y4734173D01*
X12082500Y4665827D01*
X12034173Y4617500D01*
X11965827Y4617500D01*
X11917500Y4665827D01*
X11917500Y4734173D01*
X11965827Y4782500D01*
X12034173Y4782500D01*
X12284173Y4782500D02*
X12332500Y4734173D01*
X12332500Y4665827D01*
X12284173Y4617500D01*
X12215827Y4617500D01*
X12167500Y4665827D01*
X12167500Y4734173D01*
X12215827Y4782500D01*
X12284173Y4782500D01*
X11705800Y5555800D02*
X11705800Y5244200D01*
X11394200Y5244200D01*
X11394200Y5555800D01*
X11705800Y5555800D01*
X12605800Y5555800D02*
X12605800Y5244200D01*
X12294200Y5244200D01*
X12294200Y5555800D01*
X12605800Y5555800D01*
X15510000Y810000D02*
X15510000Y990000D01*
X15690000Y990000D01*
X15690000Y810000D01*
X15510000Y810000D01*
X15690000Y1154000D02*
G75*
G02*
X15510000Y1154000I-90000J0D01*
G01*
X15510000Y1154000D02*
G75*
G02*
X15690000Y1154000I90000J0D01*
G01*
X194500Y2885500D02*
X194500Y3055500D01*
X364500Y3055500D01*
X364500Y2885500D01*
X194500Y2885500D01*
X618500Y2970500D02*
G75*
G02*
X448500Y2970500I-85000J0D01*
G01*
X448500Y2970500D02*
G75*
G02*
X618500Y2970500I85000J0D01*
G01*
X872500Y2970500D02*
G75*
G02*
X702500Y2970500I-85000J0D01*
G01*
X702500Y2970500D02*
G75*
G02*
X872500Y2970500I85000J0D01*
G01*
X1126500Y2970500D02*
G75*
G02*
X956500Y2970500I-85000J0D01*
G01*
X956500Y2970500D02*
G75*
G02*
X1126500Y2970500I85000J0D01*
G01*
X1380500Y2970500D02*
G75*
G02*
X1210500Y2970500I-85000J0D01*
G01*
X1210500Y2970500D02*
G75*
G02*
X1380500Y2970500I85000J0D01*
G01*
X1634500Y2970500D02*
G75*
G02*
X1464500Y2970500I-85000J0D01*
G01*
X1464500Y2970500D02*
G75*
G02*
X1634500Y2970500I85000J0D01*
G01*
X1888500Y2970500D02*
G75*
G02*
X1718500Y2970500I-85000J0D01*
G01*
X1718500Y2970500D02*
G75*
G02*
X1888500Y2970500I85000J0D01*
G01*
X2142500Y2970500D02*
G75*
G02*
X1972500Y2970500I-85000J0D01*
G01*
X1972500Y2970500D02*
G75*
G02*
X2142500Y2970500I85000J0D01*
G01*
X2396500Y2970500D02*
G75*
G02*
X2226500Y2970500I-85000J0D01*
G01*
X2226500Y2970500D02*
G75*
G02*
X2396500Y2970500I85000J0D01*
G01*
X2650500Y2970500D02*
G75*
G02*
X2480500Y2970500I-85000J0D01*
G01*
X2480500Y2970500D02*
G75*
G02*
X2650500Y2970500I85000J0D01*
G01*
X2904500Y2970500D02*
G75*
G02*
X2734500Y2970500I-85000J0D01*
G01*
X2734500Y2970500D02*
G75*
G02*
X2904500Y2970500I85000J0D01*
G01*
X3158500Y2970500D02*
G75*
G02*
X2988500Y2970500I-85000J0D01*
G01*
X2988500Y2970500D02*
G75*
G02*
X3158500Y2970500I85000J0D01*
G01*
X3412500Y2970500D02*
G75*
G02*
X3242500Y2970500I-85000J0D01*
G01*
X3242500Y2970500D02*
G75*
G02*
X3412500Y2970500I85000J0D01*
G01*
X3666500Y2970500D02*
G75*
G02*
X3496500Y2970500I-85000J0D01*
G01*
X3496500Y2970500D02*
G75*
G02*
X3666500Y2970500I85000J0D01*
G01*
X3920500Y2970500D02*
G75*
G02*
X3750500Y2970500I-85000J0D01*
G01*
X3750500Y2970500D02*
G75*
G02*
X3920500Y2970500I85000J0D01*
G01*
X4174500Y2970500D02*
G75*
G02*
X4004500Y2970500I-85000J0D01*
G01*
X4004500Y2970500D02*
G75*
G02*
X4174500Y2970500I85000J0D01*
G01*
X4428500Y2970500D02*
G75*
G02*
X4258500Y2970500I-85000J0D01*
G01*
X4258500Y2970500D02*
G75*
G02*
X4428500Y2970500I85000J0D01*
G01*
X4682500Y2970500D02*
G75*
G02*
X4512500Y2970500I-85000J0D01*
G01*
X4512500Y2970500D02*
G75*
G02*
X4682500Y2970500I85000J0D01*
G01*
X4936500Y2970500D02*
G75*
G02*
X4766500Y2970500I-85000J0D01*
G01*
X4766500Y2970500D02*
G75*
G02*
X4936500Y2970500I85000J0D01*
G01*
X5190500Y2970500D02*
G75*
G02*
X5020500Y2970500I-85000J0D01*
G01*
X5020500Y2970500D02*
G75*
G02*
X5190500Y2970500I85000J0D01*
G01*
X5190500Y4494500D02*
G75*
G02*
X5020500Y4494500I-85000J0D01*
G01*
X5020500Y4494500D02*
G75*
G02*
X5190500Y4494500I85000J0D01*
G01*
X4936500Y4494500D02*
G75*
G02*
X4766500Y4494500I-85000J0D01*
G01*
X4766500Y4494500D02*
G75*
G02*
X4936500Y4494500I85000J0D01*
G01*
X4682500Y4494500D02*
G75*
G02*
X4512500Y4494500I-85000J0D01*
G01*
X4512500Y4494500D02*
G75*
G02*
X4682500Y4494500I85000J0D01*
G01*
X4428500Y4494500D02*
G75*
G02*
X4258500Y4494500I-85000J0D01*
G01*
X4258500Y4494500D02*
G75*
G02*
X4428500Y4494500I85000J0D01*
G01*
X4174500Y4494500D02*
G75*
G02*
X4004500Y4494500I-85000J0D01*
G01*
X4004500Y4494500D02*
G75*
G02*
X4174500Y4494500I85000J0D01*
G01*
X3920500Y4494500D02*
G75*
G02*
X3750500Y4494500I-85000J0D01*
G01*
X3750500Y4494500D02*
G75*
G02*
X3920500Y4494500I85000J0D01*
G01*
X3666500Y4494500D02*
G75*
G02*
X3496500Y4494500I-85000J0D01*
G01*
X3496500Y4494500D02*
G75*
G02*
X3666500Y4494500I85000J0D01*
G01*
X3412500Y4494500D02*
G75*
G02*
X3242500Y4494500I-85000J0D01*
G01*
X3242500Y4494500D02*
G75*
G02*
X3412500Y4494500I85000J0D01*
G01*
X3158500Y4494500D02*
G75*
G02*
X2988500Y4494500I-85000J0D01*
G01*
X2988500Y4494500D02*
G75*
G02*
X3158500Y4494500I85000J0D01*
G01*
X2904500Y4494500D02*
G75*
G02*
X2734500Y4494500I-85000J0D01*
G01*
X2734500Y4494500D02*
G75*
G02*
X2904500Y4494500I85000J0D01*
G01*
X2650500Y4494500D02*
G75*
G02*
X2480500Y4494500I-85000J0D01*
G01*
X2480500Y4494500D02*
G75*
G02*
X2650500Y4494500I85000J0D01*
G01*
X2396500Y4494500D02*
G75*
G02*
X2226500Y4494500I-85000J0D01*
G01*
X2226500Y4494500D02*
G75*
G02*
X2396500Y4494500I85000J0D01*
G01*
X2142500Y4494500D02*
G75*
G02*
X1972500Y4494500I-85000J0D01*
G01*
X1972500Y4494500D02*
G75*
G02*
X2142500Y4494500I85000J0D01*
G01*
X1888500Y4494500D02*
G75*
G02*
X1718500Y4494500I-85000J0D01*
G01*
X1718500Y4494500D02*
G75*
G02*
X1888500Y4494500I85000J0D01*
G01*
X1634500Y4494500D02*
G75*
G02*
X1464500Y4494500I-85000J0D01*
G01*
X1464500Y4494500D02*
G75*
G02*
X1634500Y4494500I85000J0D01*
G01*
X1380500Y4494500D02*
G75*
G02*
X1210500Y4494500I-85000J0D01*
G01*
X1210500Y4494500D02*
G75*
G02*
X1380500Y4494500I85000J0D01*
G01*
X1126500Y4494500D02*
G75*
G02*
X956500Y4494500I-85000J0D01*
G01*
X956500Y4494500D02*
G75*
G02*
X1126500Y4494500I85000J0D01*
G01*
X872500Y4494500D02*
G75*
G02*
X702500Y4494500I-85000J0D01*
G01*
X702500Y4494500D02*
G75*
G02*
X872500Y4494500I85000J0D01*
G01*
X618500Y4494500D02*
G75*
G02*
X448500Y4494500I-85000J0D01*
G01*
X448500Y4494500D02*
G75*
G02*
X618500Y4494500I85000J0D01*
G01*
X364500Y4494500D02*
G75*
G02*
X194500Y4494500I-85000J0D01*
G01*
X194500Y4494500D02*
G75*
G02*
X364500Y4494500I85000J0D01*
G01*
X11832500Y2382500D02*
X11832500Y2217500D01*
X11667500Y2217500D01*
X11667500Y2382500D01*
X11832500Y2382500D01*
X12034173Y2382500D02*
X12082500Y2334173D01*
X12082500Y2265827D01*
X12034173Y2217500D01*
X11965827Y2217500D01*
X11917500Y2265827D01*
X11917500Y2334173D01*
X11965827Y2382500D01*
X12034173Y2382500D01*
X12284173Y2382500D02*
X12332500Y2334173D01*
X12332500Y2265827D01*
X12284173Y2217500D01*
X12215827Y2217500D01*
X12167500Y2265827D01*
X12167500Y2334173D01*
X12215827Y2382500D01*
X12284173Y2382500D01*
X11705800Y3155800D02*
X11705800Y2844200D01*
X11394200Y2844200D01*
X11394200Y3155800D01*
X11705800Y3155800D01*
X12605800Y3155800D02*
X12605800Y2844200D01*
X12294200Y2844200D01*
X12294200Y3155800D01*
X12605800Y3155800D01*
X17940000Y1832500D02*
X18100000Y1832500D01*
X18100000Y1672500D01*
X17940000Y1672500D01*
X17940000Y1832500D01*
X17940000Y1498500D02*
X17940000Y1498500D01*
X18100000Y1498500D02*
G75*
G02*
X17940000Y1498500I-80000J0D01*
G01*
X18100000Y1498500D02*
X18100000Y1498500D01*
X18100000Y1498500D02*
G75*
G03*
X17940000Y1498500I-80000J0D01*
G01*
X17940000Y1244500D02*
X17940000Y1244500D01*
X18100000Y1244500D02*
G75*
G02*
X17940000Y1244500I-80000J0D01*
G01*
X18100000Y1244500D02*
X18100000Y1244500D01*
X18100000Y1244500D02*
G75*
G03*
X17940000Y1244500I-80000J0D01*
G01*
X18702000Y1244500D02*
X18702000Y1244500D01*
X18862000Y1244500D02*
G75*
G02*
X18702000Y1244500I-80000J0D01*
G01*
X18862000Y1244500D02*
X18862000Y1244500D01*
X18862000Y1244500D02*
G75*
G03*
X18702000Y1244500I-80000J0D01*
G01*
X18702000Y1498500D02*
X18702000Y1498500D01*
X18862000Y1498500D02*
G75*
G02*
X18702000Y1498500I-80000J0D01*
G01*
X18862000Y1498500D02*
X18862000Y1498500D01*
X18862000Y1498500D02*
G75*
G03*
X18702000Y1498500I-80000J0D01*
G01*
X18702000Y1752500D02*
X18702000Y1752500D01*
X18862000Y1752500D02*
G75*
G02*
X18702000Y1752500I-80000J0D01*
G01*
X18862000Y1752500D02*
X18862000Y1752500D01*
X18862000Y1752500D02*
G75*
G03*
X18702000Y1752500I-80000J0D01*
G01*
X15650000Y8900000D02*
G75*
G02*
X15350000Y8900000I-150000J0D01*
G01*
X15350000Y8900000D02*
G75*
G02*
X15650000Y8900000I150000J0D01*
G01*
X17273000Y8900000D02*
G75*
G02*
X16973000Y8900000I-150000J0D01*
G01*
X16973000Y8900000D02*
G75*
G02*
X17273000Y8900000I150000J0D01*
G01*
X15650000Y9535000D02*
G75*
G02*
X15350000Y9535000I-150000J0D01*
G01*
X15350000Y9535000D02*
G75*
G02*
X15650000Y9535000I150000J0D01*
G01*
X17273000Y9535000D02*
G75*
G02*
X16973000Y9535000I-150000J0D01*
G01*
X16973000Y9535000D02*
G75*
G02*
X17273000Y9535000I150000J0D01*
G01*
X15650000Y8265000D02*
G75*
G02*
X15350000Y8265000I-150000J0D01*
G01*
X15350000Y8265000D02*
G75*
G02*
X15650000Y8265000I150000J0D01*
G01*
X17273000Y8265000D02*
G75*
G02*
X16973000Y8265000I-150000J0D01*
G01*
X16973000Y8265000D02*
G75*
G02*
X17273000Y8265000I150000J0D01*
G01*
X12201200Y923800D02*
X12201200Y1076200D01*
X12048800Y1076200D02*
G75*
G02*
X12201200Y1076200I76200J0D01*
G01*
X12048800Y1076200D02*
X12048800Y923800D01*
X12048800Y923800D02*
G75*
G03*
X12201200Y923800I76200J0D01*
G01*
X11951200Y923800D02*
X11951200Y1076200D01*
X11798800Y1076200D02*
G75*
G02*
X11951200Y1076200I76200J0D01*
G01*
X11798800Y1076200D02*
X11798800Y923800D01*
X11798800Y923800D02*
G75*
G03*
X11951200Y923800I76200J0D01*
G01*
X632500Y7500000D02*
G75*
G02*
X567500Y7500000I-32500J0D01*
G01*
X567500Y7500000D02*
G75*
G02*
X632500Y7500000I32500J0D01*
G01*
X632500Y6922000D02*
G75*
G02*
X567500Y6922000I-32500J0D01*
G01*
X567500Y6922000D02*
G75*
G02*
X632500Y6922000I32500J0D01*
G01*
X850000Y500000D02*
G75*
G02*
X150000Y500000I-350000J0D01*
G01*
X150000Y500000D02*
G75*
G02*
X850000Y500000I350000J0D01*
G01*
X15432500Y2382500D02*
X15432500Y2217500D01*
X15267500Y2217500D01*
X15267500Y2382500D01*
X15432500Y2382500D01*
X15634173Y2382500D02*
X15682500Y2334173D01*
X15682500Y2265827D01*
X15634173Y2217500D01*
X15565827Y2217500D01*
X15517500Y2265827D01*
X15517500Y2334173D01*
X15565827Y2382500D01*
X15634173Y2382500D01*
X15884173Y2382500D02*
X15932500Y2334173D01*
X15932500Y2265827D01*
X15884173Y2217500D01*
X15815827Y2217500D01*
X15767500Y2265827D01*
X15767500Y2334173D01*
X15815827Y2382500D01*
X15884173Y2382500D01*
X15305800Y3155800D02*
X15305800Y2844200D01*
X14994200Y2844200D01*
X14994200Y3155800D01*
X15305800Y3155800D01*
X16205800Y3155800D02*
X16205800Y2844200D01*
X15894200Y2844200D01*
X15894200Y3155800D01*
X16205800Y3155800D01*
X3850000Y8900000D02*
G75*
G02*
X3550000Y8900000I-150000J0D01*
G01*
X3550000Y8900000D02*
G75*
G02*
X3850000Y8900000I150000J0D01*
G01*
X5473000Y8900000D02*
G75*
G02*
X5173000Y8900000I-150000J0D01*
G01*
X5173000Y8900000D02*
G75*
G02*
X5473000Y8900000I150000J0D01*
G01*
X3850000Y9535000D02*
G75*
G02*
X3550000Y9535000I-150000J0D01*
G01*
X3550000Y9535000D02*
G75*
G02*
X3850000Y9535000I150000J0D01*
G01*
X5473000Y9535000D02*
G75*
G02*
X5173000Y9535000I-150000J0D01*
G01*
X5173000Y9535000D02*
G75*
G02*
X5473000Y9535000I150000J0D01*
G01*
X3850000Y8265000D02*
G75*
G02*
X3550000Y8265000I-150000J0D01*
G01*
X3550000Y8265000D02*
G75*
G02*
X3850000Y8265000I150000J0D01*
G01*
X5473000Y8265000D02*
G75*
G02*
X5173000Y8265000I-150000J0D01*
G01*
X5173000Y8265000D02*
G75*
G02*
X5473000Y8265000I150000J0D01*
G01*
X2817120Y928880D02*
X2817120Y1071120D01*
X2674880Y1071120D02*
G75*
G02*
X2817120Y1071120I71120J0D01*
G01*
X2674880Y1071120D02*
X2674880Y928880D01*
X2674880Y928880D02*
G75*
G03*
X2817120Y928880I71120J0D01*
G01*
X3071120Y928880D02*
X3071120Y1071120D01*
X2928880Y1071120D02*
G75*
G02*
X3071120Y1071120I71120J0D01*
G01*
X2928880Y1071120D02*
X2928880Y928880D01*
X2928880Y928880D02*
G75*
G03*
X3071120Y928880I71120J0D01*
G01*
X3325120Y928880D02*
X3325120Y1071120D01*
X3182880Y1071120D02*
G75*
G02*
X3325120Y1071120I71120J0D01*
G01*
X3182880Y1071120D02*
X3182880Y928880D01*
X3182880Y928880D02*
G75*
G03*
X3325120Y928880I71120J0D01*
G01*
X14001200Y923800D02*
X14001200Y1076200D01*
X13848800Y1076200D02*
G75*
G02*
X14001200Y1076200I76200J0D01*
G01*
X13848800Y1076200D02*
X13848800Y923800D01*
X13848800Y923800D02*
G75*
G03*
X14001200Y923800I76200J0D01*
G01*
X13751200Y923800D02*
X13751200Y1076200D01*
X13598800Y1076200D02*
G75*
G02*
X13751200Y1076200I76200J0D01*
G01*
X13598800Y1076200D02*
X13598800Y923800D01*
X13598800Y923800D02*
G75*
G03*
X13751200Y923800I76200J0D01*
G01*
X3090000Y2390000D02*
X3090000Y2210000D01*
X2910000Y2210000D01*
X2910000Y2390000D01*
X3090000Y2390000D01*
X3090000Y2084100D02*
G75*
G02*
X2910000Y2084100I-90000J0D01*
G01*
X2910000Y2084100D02*
G75*
G02*
X3090000Y2084100I90000J0D01*
G01*
X3090000Y1868200D02*
G75*
G02*
X2910000Y1868200I-90000J0D01*
G01*
X2910000Y1868200D02*
G75*
G02*
X3090000Y1868200I90000J0D01*
G01*
X3090000Y1652300D02*
G75*
G02*
X2910000Y1652300I-90000J0D01*
G01*
X2910000Y1652300D02*
G75*
G02*
X3090000Y1652300I90000J0D01*
G01*
X19550000Y9500000D02*
G75*
G02*
X18850000Y9500000I-350000J0D01*
G01*
X18850000Y9500000D02*
G75*
G02*
X19550000Y9500000I350000J0D01*
G01*
X6434900Y1000000D02*
G75*
G02*
X6257100Y1000000I-88900J0D01*
G01*
X6257100Y1000000D02*
G75*
G02*
X6434900Y1000000I88900J0D01*
G01*
X6688900Y1000000D02*
G75*
G02*
X6511100Y1000000I-88900J0D01*
G01*
X6511100Y1000000D02*
G75*
G02*
X6688900Y1000000I88900J0D01*
G01*
X6942900Y1000000D02*
G75*
G02*
X6765100Y1000000I-88900J0D01*
G01*
X6765100Y1000000D02*
G75*
G02*
X6942900Y1000000I88900J0D01*
G01*
X524440Y2330380D02*
G75*
G02*
X424440Y2330380I-50000J0D01*
G01*
X424440Y2330380D02*
G75*
G02*
X524440Y2330380I50000J0D01*
G01*
X524440Y1532820D02*
G75*
G02*
X424440Y1532820I-50000J0D01*
G01*
X424440Y1532820D02*
G75*
G02*
X524440Y1532820I50000J0D01*
G01*
X11870000Y8500000D02*
X11430000Y8500000D01*
X11430000Y8680000D01*
X11870000Y8680000D01*
X11870000Y8500000D01*
X11760000Y9260000D02*
X11540000Y9260000D01*
X11540000Y9080000D02*
G75*
G02*
X11540000Y9260000I0J90000D01*
G01*
X11540000Y9080000D02*
X11760000Y9080000D01*
X11760000Y9080000D02*
G75*
G03*
X11760000Y9260000I0J90000D01*
G01*
X11080000Y9000000D02*
X11080000Y8780000D01*
X11260000Y8780000D02*
G75*
G02*
X11080000Y8780000I-90000J0D01*
G01*
X11260000Y8780000D02*
X11260000Y9000000D01*
X11260000Y9000000D02*
G75*
G03*
X11080000Y9000000I-90000J0D01*
G01*
X19601250Y5250000D02*
G75*
G02*
X19398750Y5250000I-101250J0D01*
G01*
X19398750Y5250000D02*
G75*
G02*
X19601250Y5250000I101250J0D01*
G01*
X19601250Y5750000D02*
G75*
G02*
X19398750Y5750000I-101250J0D01*
G01*
X19398750Y5750000D02*
G75*
G02*
X19601250Y5750000I101250J0D01*
G01*
X19170300Y4750000D02*
G75*
G02*
X18829700Y4750000I-170300J0D01*
G01*
X18829700Y4750000D02*
G75*
G02*
X19170300Y4750000I170300J0D01*
G01*
X19170300Y6250000D02*
G75*
G02*
X18829700Y6250000I-170300J0D01*
G01*
X18829700Y6250000D02*
G75*
G02*
X19170300Y6250000I170300J0D01*
G01*
X18601250Y6250000D02*
G75*
G02*
X18398750Y6250000I-101250J0D01*
G01*
X18398750Y6250000D02*
G75*
G02*
X18601250Y6250000I101250J0D01*
G01*
X18601250Y5500000D02*
G75*
G02*
X18398750Y5500000I-101250J0D01*
G01*
X18398750Y5500000D02*
G75*
G02*
X18601250Y5500000I101250J0D01*
G01*
X18601250Y4750000D02*
G75*
G02*
X18398750Y4750000I-101250J0D01*
G01*
X18398750Y4750000D02*
G75*
G02*
X18601250Y4750000I101250J0D01*
G01*
X18352250Y6000000D02*
G75*
G02*
X18149750Y6000000I-101250J0D01*
G01*
X18149750Y6000000D02*
G75*
G02*
X18352250Y6000000I101250J0D01*
G01*
X18352250Y5000000D02*
G75*
G02*
X18149750Y5000000I-101250J0D01*
G01*
X18149750Y5000000D02*
G75*
G02*
X18352250Y5000000I101250J0D01*
G01*
X6350000Y8900000D02*
G75*
G02*
X6050000Y8900000I-150000J0D01*
G01*
X6050000Y8900000D02*
G75*
G02*
X6350000Y8900000I150000J0D01*
G01*
X7973000Y8900000D02*
G75*
G02*
X7673000Y8900000I-150000J0D01*
G01*
X7673000Y8900000D02*
G75*
G02*
X7973000Y8900000I150000J0D01*
G01*
X6350000Y9535000D02*
G75*
G02*
X6050000Y9535000I-150000J0D01*
G01*
X6050000Y9535000D02*
G75*
G02*
X6350000Y9535000I150000J0D01*
G01*
X7973000Y9535000D02*
G75*
G02*
X7673000Y9535000I-150000J0D01*
G01*
X7673000Y9535000D02*
G75*
G02*
X7973000Y9535000I150000J0D01*
G01*
X6350000Y8265000D02*
G75*
G02*
X6050000Y8265000I-150000J0D01*
G01*
X6050000Y8265000D02*
G75*
G02*
X6350000Y8265000I150000J0D01*
G01*
X7973000Y8265000D02*
G75*
G02*
X7673000Y8265000I-150000J0D01*
G01*
X7673000Y8265000D02*
G75*
G02*
X7973000Y8265000I150000J0D01*
G01*
X19601250Y3000000D02*
G75*
G02*
X19398750Y3000000I-101250J0D01*
G01*
X19398750Y3000000D02*
G75*
G02*
X19601250Y3000000I101250J0D01*
G01*
X19601250Y3500000D02*
G75*
G02*
X19398750Y3500000I-101250J0D01*
G01*
X19398750Y3500000D02*
G75*
G02*
X19601250Y3500000I101250J0D01*
G01*
X19170300Y2500000D02*
G75*
G02*
X18829700Y2500000I-170300J0D01*
G01*
X18829700Y2500000D02*
G75*
G02*
X19170300Y2500000I170300J0D01*
G01*
X19170300Y4000000D02*
G75*
G02*
X18829700Y4000000I-170300J0D01*
G01*
X18829700Y4000000D02*
G75*
G02*
X19170300Y4000000I170300J0D01*
G01*
X18601250Y4000000D02*
G75*
G02*
X18398750Y4000000I-101250J0D01*
G01*
X18398750Y4000000D02*
G75*
G02*
X18601250Y4000000I101250J0D01*
G01*
X18601250Y3250000D02*
G75*
G02*
X18398750Y3250000I-101250J0D01*
G01*
X18398750Y3250000D02*
G75*
G02*
X18601250Y3250000I101250J0D01*
G01*
X18601250Y2500000D02*
G75*
G02*
X18398750Y2500000I-101250J0D01*
G01*
X18398750Y2500000D02*
G75*
G02*
X18601250Y2500000I101250J0D01*
G01*
X18352250Y3750000D02*
G75*
G02*
X18149750Y3750000I-101250J0D01*
G01*
X18149750Y3750000D02*
G75*
G02*
X18352250Y3750000I101250J0D01*
G01*
X18352250Y2750000D02*
G75*
G02*
X18149750Y2750000I-101250J0D01*
G01*
X18149750Y2750000D02*
G75*
G02*
X18352250Y2750000I101250J0D01*
G01*
X13632500Y4782500D02*
X13632500Y4617500D01*
X13467500Y4617500D01*
X13467500Y4782500D01*
X13632500Y4782500D01*
X13834173Y4782500D02*
X13882500Y4734173D01*
X13882500Y4665827D01*
X13834173Y4617500D01*
X13765827Y4617500D01*
X13717500Y4665827D01*
X13717500Y4734173D01*
X13765827Y4782500D01*
X13834173Y4782500D01*
X14084173Y4782500D02*
X14132500Y4734173D01*
X14132500Y4665827D01*
X14084173Y4617500D01*
X14015827Y4617500D01*
X13967500Y4665827D01*
X13967500Y4734173D01*
X14015827Y4782500D01*
X14084173Y4782500D01*
X13505800Y5555800D02*
X13505800Y5244200D01*
X13194200Y5244200D01*
X13194200Y5555800D01*
X13505800Y5555800D01*
X14405800Y5555800D02*
X14405800Y5244200D01*
X14094200Y5244200D01*
X14094200Y5555800D01*
X14405800Y5555800D01*
X19550000Y500000D02*
G75*
G02*
X18850000Y500000I-350000J0D01*
G01*
X18850000Y500000D02*
G75*
G02*
X19550000Y500000I350000J0D01*
G01*
M02*
