%TF.GenerationSoftware,KiCad,Pcbnew,10.0.1*%
%TF.CreationDate,2026-06-18T10:06:20-07:00*%
%TF.ProjectId,ES-Seed3-DevKit-Pedal-Rev4,45532d53-6565-4643-932d-4465764b6974,rev?*%
%TF.SameCoordinates,Original*%
%TF.FileFunction,Soldermask,Bot*%
%TF.FilePolarity,Negative*%
%FSLAX45Y45*%
G04 Gerber Fmt 4.5, Leading zero omitted, Abs format (unit mm)*
G04 Created by KiCad (PCBNEW 10.0.1) date 2026-06-18 10:06:20*
%MOMM*%
%LPD*%
G01*
G04 APERTURE LIST*
G04 Aperture macros list*
%AMRoundRect*
0 Rectangle with rounded corners*
0 $1 Rounding radius*
0 $2 $3 $4 $5 $6 $7 $8 $9 X,Y pos of 4 corners*
0 Add a 4 corners polygon primitive as box body*
4,1,4,$2,$3,$4,$5,$6,$7,$8,$9,$2,$3,0*
0 Add four circle primitives for the rounded corners*
1,1,$1+$1,$2,$3*
1,1,$1+$1,$4,$5*
1,1,$1+$1,$6,$7*
1,1,$1+$1,$8,$9*
0 Add four rect primitives between the rounded corners*
20,1,$1+$1,$2,$3,$4,$5,0*
20,1,$1+$1,$4,$5,$6,$7,0*
20,1,$1+$1,$6,$7,$8,$9,0*
20,1,$1+$1,$8,$9,$2,$3,0*%
%AMFreePoly0*
4,1,25,0.401445,0.907196,0.413568,0.896842,0.896842,0.413568,0.925349,0.357620,0.926600,0.341726,0.926600,-0.341726,0.907196,-0.401445,0.896842,-0.413568,0.413568,-0.896842,0.357620,-0.925349,0.341726,-0.926600,-0.341726,-0.926600,-0.401445,-0.907196,-0.413568,-0.896842,-0.896842,-0.413568,-0.925349,-0.357620,-0.926600,-0.341726,-0.926600,0.341726,-0.907196,0.401445,-0.896842,0.413568,
-0.413568,0.896842,-0.357620,0.925349,-0.341726,0.926600,0.341726,0.926600,0.401445,0.907196,0.401445,0.907196,$1*%
G04 Aperture macros list end*
%ADD10C,2.082800*%
%ADD11C,7.000000*%
%ADD12C,3.000000*%
%ADD13C,2.228200*%
%ADD14C,3.609200*%
%ADD15RoundRect,0.101600X-0.825000X0.825000X-0.825000X-0.825000X0.825000X-0.825000X0.825000X0.825000X0*%
%ADD16FreePoly0,270.000000*%
%ADD17RoundRect,0.101600X-1.558000X1.558000X-1.558000X-1.558000X1.558000X-1.558000X1.558000X1.558000X0*%
%ADD18C,1.981200*%
%ADD19R,1.800000X1.800000*%
%ADD20C,1.800000*%
%ADD21R,1.700000X1.700000*%
%ADD22C,1.700000*%
%ADD23R,1.600000X1.600000*%
%ADD24O,1.600000X1.600000*%
%ADD25O,1.727200X3.251200*%
%ADD26C,0.650000*%
%ADD27O,1.625600X3.048000*%
%ADD28C,0.999997*%
%ADD29R,4.400000X1.800000*%
%ADD30O,4.000000X1.800000*%
%ADD31O,1.800000X4.000000*%
G04 APERTURE END LIST*
D10*
%TO.C,SW5*%
X9874880Y1226060D03*
X10525120Y1226060D03*
X9874880Y773940D03*
X10525120Y773940D03*
%TD*%
D11*
%TO.C,H1*%
X500000Y9500000D03*
%TD*%
D12*
%TO.C,J5*%
X1200000Y8900000D03*
X2823000Y8900000D03*
X1200000Y9535000D03*
X2823000Y9535000D03*
X1200000Y8265000D03*
X2823000Y8265000D03*
%TD*%
D13*
%TO.C,J11*%
X19500000Y7500000D03*
X19500000Y8000000D03*
D14*
X19000000Y7000000D03*
X19000000Y8500000D03*
D13*
X18500000Y8500000D03*
X18500000Y7750000D03*
X18500000Y7000000D03*
X18251000Y8250000D03*
X18251000Y7250000D03*
%TD*%
D15*
%TO.C,VR3*%
X15350000Y4700000D03*
D16*
X15600000Y4700000D03*
X15850000Y4700000D03*
D17*
X15150000Y5400000D03*
X16050000Y5400000D03*
%TD*%
D15*
%TO.C,VR5*%
X13550000Y2300000D03*
D16*
X13800000Y2300000D03*
X14050000Y2300000D03*
D17*
X13350000Y3000000D03*
X14250000Y3000000D03*
%TD*%
D12*
%TO.C,J2*%
X8700000Y8900000D03*
X10323000Y8900000D03*
X8700000Y9535000D03*
X10323000Y9535000D03*
X8700000Y8265000D03*
X10323000Y8265000D03*
%TD*%
D18*
%TO.C,SW2*%
X4546000Y1000000D03*
X4800000Y1000000D03*
X5054000Y1000000D03*
%TD*%
D10*
%TO.C,SW4*%
X8074880Y1226060D03*
X8725120Y1226060D03*
X8074880Y773940D03*
X8725120Y773940D03*
%TD*%
D15*
%TO.C,VR1*%
X11750000Y4700000D03*
D16*
X12000000Y4700000D03*
X12250000Y4700000D03*
D17*
X11550000Y5400000D03*
X12450000Y5400000D03*
%TD*%
D19*
%TO.C,LED1*%
X15600000Y900000D03*
D20*
X15600000Y1154000D03*
%TD*%
D21*
%TO.C,A1*%
X279500Y2970500D03*
D22*
X533500Y2970500D03*
X787500Y2970500D03*
X1041500Y2970500D03*
X1295500Y2970500D03*
X1549500Y2970500D03*
X1803500Y2970500D03*
X2057500Y2970500D03*
X2311500Y2970500D03*
X2565500Y2970500D03*
X2819500Y2970500D03*
X3073500Y2970500D03*
X3327500Y2970500D03*
X3581500Y2970500D03*
X3835500Y2970500D03*
X4089500Y2970500D03*
X4343500Y2970500D03*
X4597500Y2970500D03*
X4851500Y2970500D03*
X5105500Y2970500D03*
X5105500Y4494500D03*
X4851500Y4494500D03*
X4597500Y4494500D03*
X4343500Y4494500D03*
X4089500Y4494500D03*
X3835500Y4494500D03*
X3581500Y4494500D03*
X3327500Y4494500D03*
X3073500Y4494500D03*
X2819500Y4494500D03*
X2565500Y4494500D03*
X2311500Y4494500D03*
X2057500Y4494500D03*
X1803500Y4494500D03*
X1549500Y4494500D03*
X1295500Y4494500D03*
X1041500Y4494500D03*
X787500Y4494500D03*
X533500Y4494500D03*
X279500Y4494500D03*
%TD*%
D15*
%TO.C,VR4*%
X11750000Y2300000D03*
D16*
X12000000Y2300000D03*
X12250000Y2300000D03*
D17*
X11550000Y3000000D03*
X12450000Y3000000D03*
%TD*%
D23*
%TO.C,U11*%
X18020000Y1752500D03*
D24*
X18020000Y1498500D03*
X18020000Y1244500D03*
X18782000Y1244500D03*
X18782000Y1498500D03*
X18782000Y1752500D03*
%TD*%
D12*
%TO.C,J6*%
X15500000Y8900000D03*
X17123000Y8900000D03*
X15500000Y9535000D03*
X17123000Y9535000D03*
X15500000Y8265000D03*
X17123000Y8265000D03*
%TD*%
D25*
%TO.C,FSW_1*%
X12125000Y1000000D03*
X11875000Y1000000D03*
%TD*%
D26*
%TO.C,J7*%
X600000Y7500000D03*
X600000Y6922000D03*
%TD*%
D11*
%TO.C,H2*%
X500000Y500000D03*
%TD*%
D15*
%TO.C,VR6*%
X15350000Y2300000D03*
D16*
X15600000Y2300000D03*
X15850000Y2300000D03*
D17*
X15150000Y3000000D03*
X16050000Y3000000D03*
%TD*%
D12*
%TO.C,J3*%
X3700000Y8900000D03*
X5323000Y8900000D03*
X3700000Y9535000D03*
X5323000Y9535000D03*
X3700000Y8265000D03*
X5323000Y8265000D03*
%TD*%
D27*
%TO.C,SW1*%
X2746000Y1000000D03*
X3000000Y1000000D03*
X3254000Y1000000D03*
%TD*%
D25*
%TO.C,FSW_2*%
X13925000Y1000000D03*
X13675000Y1000000D03*
%TD*%
D19*
%TO.C,LED2*%
X3000000Y2300000D03*
D20*
X3000000Y2084100D03*
X3000000Y1868200D03*
X3000000Y1652300D03*
%TD*%
D11*
%TO.C,H3*%
X19200000Y9500000D03*
%TD*%
D18*
%TO.C,SW3*%
X6346000Y1000000D03*
X6600000Y1000000D03*
X6854000Y1000000D03*
%TD*%
D28*
%TO.C,U7*%
X474440Y2330380D03*
X474440Y1532820D03*
%TD*%
D29*
%TO.C,J8*%
X11650000Y8590000D03*
D30*
X11650000Y9170000D03*
D31*
X11170000Y8890000D03*
%TD*%
D13*
%TO.C,J1*%
X19500000Y5250000D03*
X19500000Y5750000D03*
D14*
X19000000Y4750000D03*
X19000000Y6250000D03*
D13*
X18500000Y6250000D03*
X18500000Y5500000D03*
X18500000Y4750000D03*
X18251000Y6000000D03*
X18251000Y5000000D03*
%TD*%
D12*
%TO.C,J4*%
X6200000Y8900000D03*
X7823000Y8900000D03*
X6200000Y9535000D03*
X7823000Y9535000D03*
X6200000Y8265000D03*
X7823000Y8265000D03*
%TD*%
D13*
%TO.C,J10*%
X19500000Y3000000D03*
X19500000Y3500000D03*
D14*
X19000000Y2500000D03*
X19000000Y4000000D03*
D13*
X18500000Y4000000D03*
X18500000Y3250000D03*
X18500000Y2500000D03*
X18251000Y3750000D03*
X18251000Y2750000D03*
%TD*%
D15*
%TO.C,VR2*%
X13550000Y4700000D03*
D16*
X13800000Y4700000D03*
X14050000Y4700000D03*
D17*
X13350000Y5400000D03*
X14250000Y5400000D03*
%TD*%
D11*
%TO.C,H4*%
X19200000Y500000D03*
%TD*%
M02*
