%TF.GenerationSoftware,KiCad,Pcbnew,8.0.8*%
%TF.CreationDate,2025-02-03T08:16:10-08:00*%
%TF.ProjectId,ES-Seed3-DevKit-Pedal-Rev1,45532d53-6565-4643-932d-4465764b6974,rev?*%
%TF.SameCoordinates,Original*%
%TF.FileFunction,Soldermask,Top*%
%TF.FilePolarity,Negative*%
%FSLAX46Y46*%
G04 Gerber Fmt 4.6, Leading zero omitted, Abs format (unit mm)*
G04 Created by KiCad (PCBNEW 8.0.8) date 2025-02-03 08:16:10*
%MOMM*%
%LPD*%
G01*
G04 APERTURE LIST*
G04 Aperture macros list*
%AMRoundRect*
0 Rectangle with rounded corners*
0 $1 Rounding radius*
0 $2 $3 $4 $5 $6 $7 $8 $9 X,Y pos of 4 corners*
0 Add a 4 corners polygon primitive as box body*
4,1,4,$2,$3,$4,$5,$6,$7,$8,$9,$2,$3,0*
0 Add four circle primitives for the rounded corners*
1,1,$1+$1,$2,$3*
1,1,$1+$1,$4,$5*
1,1,$1+$1,$6,$7*
1,1,$1+$1,$8,$9*
0 Add four rect primitives between the rounded corners*
20,1,$1+$1,$2,$3,$4,$5,0*
20,1,$1+$1,$4,$5,$6,$7,0*
20,1,$1+$1,$6,$7,$8,$9,0*
20,1,$1+$1,$8,$9,$2,$3,0*%
%AMFreePoly0*
4,1,25,0.401445,0.907196,0.413568,0.896842,0.896842,0.413568,0.925349,0.357620,0.926600,0.341726,0.926600,-0.341726,0.907196,-0.401445,0.896842,-0.413568,0.413568,-0.896842,0.357620,-0.925349,0.341726,-0.926600,-0.341726,-0.926600,-0.401445,-0.907196,-0.413568,-0.896842,-0.896842,-0.413568,-0.925349,-0.357620,-0.926600,-0.341726,-0.926600,0.341726,-0.907196,0.401445,-0.896842,0.413568,
-0.413568,0.896842,-0.357620,0.925349,-0.341726,0.926600,0.341726,0.926600,0.401445,0.907196,0.401445,0.907196,$1*%
G04 Aperture macros list end*
%ADD10RoundRect,0.150000X-0.150000X0.825000X-0.150000X-0.825000X0.150000X-0.825000X0.150000X0.825000X0*%
%ADD11RoundRect,0.150000X0.825000X0.150000X-0.825000X0.150000X-0.825000X-0.150000X0.825000X-0.150000X0*%
%ADD12RoundRect,0.200000X-0.275000X0.200000X-0.275000X-0.200000X0.275000X-0.200000X0.275000X0.200000X0*%
%ADD13C,2.000000*%
%ADD14C,2.082800*%
%ADD15RoundRect,0.225000X-0.250000X0.225000X-0.250000X-0.225000X0.250000X-0.225000X0.250000X0.225000X0*%
%ADD16RoundRect,0.200000X0.200000X0.275000X-0.200000X0.275000X-0.200000X-0.275000X0.200000X-0.275000X0*%
%ADD17RoundRect,0.150000X-0.587500X-0.150000X0.587500X-0.150000X0.587500X0.150000X-0.587500X0.150000X0*%
%ADD18RoundRect,0.225000X-0.225000X-0.250000X0.225000X-0.250000X0.225000X0.250000X-0.225000X0.250000X0*%
%ADD19RoundRect,0.200000X0.275000X-0.200000X0.275000X0.200000X-0.275000X0.200000X-0.275000X-0.200000X0*%
%ADD20RoundRect,0.250000X0.550000X-1.500000X0.550000X1.500000X-0.550000X1.500000X-0.550000X-1.500000X0*%
%ADD21RoundRect,0.200000X-0.200000X-0.275000X0.200000X-0.275000X0.200000X0.275000X-0.200000X0.275000X0*%
%ADD22C,7.000000*%
%ADD23C,2.453200*%
%ADD24C,2.228200*%
%ADD25C,3.609200*%
%ADD26RoundRect,0.101600X-0.825000X0.825000X-0.825000X-0.825000X0.825000X-0.825000X0.825000X0.825000X0*%
%ADD27FreePoly0,270.000000*%
%ADD28RoundRect,0.101600X-1.558000X1.558000X-1.558000X-1.558000X1.558000X-1.558000X1.558000X1.558000X0*%
%ADD29RoundRect,0.225000X0.225000X0.250000X-0.225000X0.250000X-0.225000X-0.250000X0.225000X-0.250000X0*%
%ADD30C,1.879600*%
%ADD31RoundRect,0.375000X0.625000X0.375000X-0.625000X0.375000X-0.625000X-0.375000X0.625000X-0.375000X0*%
%ADD32RoundRect,0.500000X0.500000X1.400000X-0.500000X1.400000X-0.500000X-1.400000X0.500000X-1.400000X0*%
%ADD33RoundRect,0.250000X-0.550000X1.500000X-0.550000X-1.500000X0.550000X-1.500000X0.550000X1.500000X0*%
%ADD34RoundRect,0.250000X0.550000X-1.050000X0.550000X1.050000X-0.550000X1.050000X-0.550000X-1.050000X0*%
%ADD35RoundRect,0.112500X0.187500X0.112500X-0.187500X0.112500X-0.187500X-0.112500X0.187500X-0.112500X0*%
%ADD36R,1.800000X1.800000*%
%ADD37C,1.800000*%
%ADD38R,1.700000X1.700000*%
%ADD39C,1.700000*%
%ADD40RoundRect,0.050800X0.850000X-0.575000X0.850000X0.575000X-0.850000X0.575000X-0.850000X-0.575000X0*%
%ADD41RoundRect,0.112500X0.112500X-0.187500X0.112500X0.187500X-0.112500X0.187500X-0.112500X-0.187500X0*%
%ADD42RoundRect,0.250000X0.475000X-0.250000X0.475000X0.250000X-0.475000X0.250000X-0.475000X-0.250000X0*%
%ADD43RoundRect,0.250000X1.050000X0.550000X-1.050000X0.550000X-1.050000X-0.550000X1.050000X-0.550000X0*%
%ADD44RoundRect,0.112500X-0.112500X0.187500X-0.112500X-0.187500X0.112500X-0.187500X0.112500X0.187500X0*%
%ADD45RoundRect,0.250000X-1.050000X-0.550000X1.050000X-0.550000X1.050000X0.550000X-1.050000X0.550000X0*%
%ADD46RoundRect,0.225000X0.250000X-0.225000X0.250000X0.225000X-0.250000X0.225000X-0.250000X-0.225000X0*%
%ADD47R,1.600000X1.600000*%
%ADD48O,1.600000X1.600000*%
%ADD49O,1.727200X3.251200*%
%ADD50RoundRect,0.250000X1.500000X0.550000X-1.500000X0.550000X-1.500000X-0.550000X1.500000X-0.550000X0*%
%ADD51RoundRect,0.150000X-0.512500X-0.150000X0.512500X-0.150000X0.512500X0.150000X-0.512500X0.150000X0*%
%ADD52RoundRect,0.250000X-0.475000X0.250000X-0.475000X-0.250000X0.475000X-0.250000X0.475000X0.250000X0*%
%ADD53RoundRect,0.250000X-0.550000X1.050000X-0.550000X-1.050000X0.550000X-1.050000X0.550000X1.050000X0*%
%ADD54RoundRect,0.725800X-3.375800X-0.725800X3.375800X-0.725800X3.375800X0.725800X-3.375800X0.725800X0*%
%ADD55C,0.999997*%
%ADD56RoundRect,0.102000X-0.650000X0.350000X-0.650000X-0.350000X0.650000X-0.350000X0.650000X0.350000X0*%
%ADD57RoundRect,0.102000X-0.825500X0.723900X-0.825500X-0.723900X0.825500X-0.723900X0.825500X0.723900X0*%
%ADD58RoundRect,0.102000X-1.219200X0.723900X-1.219200X-0.723900X1.219200X-0.723900X1.219200X0.723900X0*%
%ADD59RoundRect,0.102000X-0.825500X0.927100X-0.825500X-0.927100X0.825500X-0.927100X0.825500X0.927100X0*%
%ADD60R,4.400000X1.800000*%
%ADD61O,4.000000X1.800000*%
%ADD62O,1.800000X4.000000*%
%ADD63C,0.650000*%
%ADD64O,2.200000X1.100000*%
%ADD65O,1.900000X1.100000*%
%ADD66RoundRect,0.050000X-0.620000X0.300000X-0.620000X-0.300000X0.620000X-0.300000X0.620000X0.300000X0*%
%ADD67RoundRect,0.050000X-0.620000X0.150000X-0.620000X-0.150000X0.620000X-0.150000X0.620000X0.150000X0*%
%ADD68RoundRect,0.250000X-1.500000X-0.550000X1.500000X-0.550000X1.500000X0.550000X-1.500000X0.550000X0*%
G04 APERTURE END LIST*
D10*
%TO.C,U10*%
X116905000Y-124775000D03*
X115635000Y-124775000D03*
X114365000Y-124775000D03*
X113095000Y-124775000D03*
X113095000Y-129725000D03*
X114365000Y-129725000D03*
X115635000Y-129725000D03*
X116905000Y-129725000D03*
%TD*%
D11*
%TO.C,U9*%
X141075000Y-105655000D03*
X141075000Y-104385000D03*
X141075000Y-103115000D03*
X141075000Y-101845000D03*
X136125000Y-101845000D03*
X136125000Y-103115000D03*
X136125000Y-104385000D03*
X136125000Y-105655000D03*
%TD*%
%TO.C,U3*%
X116175000Y-105305000D03*
X116175000Y-104035000D03*
X116175000Y-102765000D03*
X116175000Y-101495000D03*
X111225000Y-101495000D03*
X111225000Y-102765000D03*
X111225000Y-104035000D03*
X111225000Y-105305000D03*
%TD*%
D12*
%TO.C,R46*%
X218700000Y-80175000D03*
X218700000Y-81825000D03*
%TD*%
D13*
%TO.C,FD3*%
X235001100Y-151003600D03*
%TD*%
D12*
%TO.C,R61*%
X224400000Y-80175000D03*
X224400000Y-81825000D03*
%TD*%
D14*
%TO.C,SW4*%
X148748800Y-142739400D03*
X155251200Y-142739400D03*
X148748800Y-147260600D03*
X155251200Y-147260600D03*
%TD*%
D15*
%TO.C,C30*%
X137600000Y-107575000D03*
X137600000Y-109125000D03*
%TD*%
D16*
%TO.C,R77*%
X123225000Y-119750000D03*
X121575000Y-119750000D03*
%TD*%
D17*
%TO.C,Q1*%
X135233800Y-94219400D03*
X135233800Y-96119400D03*
X137108800Y-95169400D03*
%TD*%
D18*
%TO.C,C5*%
X114025000Y-133600000D03*
X115575000Y-133600000D03*
%TD*%
%TO.C,C31*%
X212275000Y-83850000D03*
X213825000Y-83850000D03*
%TD*%
D15*
%TO.C,C47*%
X240250000Y-134725000D03*
X240250000Y-136275000D03*
%TD*%
D19*
%TO.C,R50*%
X57750000Y-122650000D03*
X57750000Y-121000000D03*
%TD*%
D20*
%TO.C,C27*%
X198550000Y-82650000D03*
X198550000Y-77250000D03*
%TD*%
D21*
%TO.C,FB2*%
X188425000Y-80550000D03*
X190075000Y-80550000D03*
%TD*%
D16*
%TO.C,R2*%
X63325100Y-86000000D03*
X61675100Y-86000000D03*
%TD*%
D22*
%TO.C,H1*%
X55000000Y-60000000D03*
%TD*%
D19*
%TO.C,R26*%
X109000000Y-103925000D03*
X109000000Y-102275000D03*
%TD*%
D23*
%TO.C,J5*%
X61751100Y-59703600D03*
X61751100Y-72303600D03*
X61751100Y-66003600D03*
X78251100Y-59703600D03*
X78251100Y-72303600D03*
X78251100Y-66003600D03*
%TD*%
D18*
%TO.C,C12*%
X106625000Y-100750000D03*
X108175000Y-100750000D03*
%TD*%
D19*
%TO.C,R51*%
X55250000Y-122650000D03*
X55250000Y-121000000D03*
%TD*%
D24*
%TO.C,J11*%
X245000000Y-80000000D03*
X245000000Y-75000000D03*
D25*
X240000000Y-85000000D03*
X240000000Y-70000000D03*
D24*
X235000000Y-70000000D03*
X235000000Y-77500000D03*
X235000000Y-85000000D03*
X232510000Y-72500000D03*
X232510000Y-82500000D03*
%TD*%
D26*
%TO.C,VR3*%
X203500000Y-108000000D03*
D27*
X206000000Y-108000000D03*
X208500000Y-108000000D03*
D28*
X201500000Y-101000000D03*
X210500000Y-101000000D03*
%TD*%
D16*
%TO.C,R57*%
X190075000Y-78950000D03*
X188425000Y-78950000D03*
%TD*%
D29*
%TO.C,C20*%
X177075000Y-59400000D03*
X175525000Y-59400000D03*
%TD*%
D12*
%TO.C,R44*%
X74000000Y-131925000D03*
X74000000Y-133575000D03*
%TD*%
D26*
%TO.C,VR5*%
X185500000Y-132000000D03*
D27*
X188000000Y-132000000D03*
X190500000Y-132000000D03*
D28*
X183500000Y-125000000D03*
X192500000Y-125000000D03*
%TD*%
D12*
%TO.C,R22*%
X105500000Y-102275000D03*
X105500000Y-103925000D03*
%TD*%
D23*
%TO.C,J2*%
X136751100Y-59703600D03*
X136751100Y-72303600D03*
X136751100Y-66003600D03*
X153251100Y-59703600D03*
X153251100Y-72303600D03*
X153251100Y-66003600D03*
%TD*%
D30*
%TO.C,SW2*%
X95460000Y-145000000D03*
X98000000Y-145000000D03*
X100540000Y-145000000D03*
%TD*%
D31*
%TO.C,U8*%
X193400000Y-87350000D03*
X193400000Y-85050000D03*
D32*
X187100000Y-85050000D03*
D31*
X193400000Y-82750000D03*
%TD*%
D12*
%TO.C,R21*%
X112450000Y-107175000D03*
X112450000Y-108825000D03*
%TD*%
D19*
%TO.C,R52*%
X65500000Y-122650000D03*
X65500000Y-121000000D03*
%TD*%
D13*
%TO.C,FD1*%
X63001100Y-151003600D03*
%TD*%
D14*
%TO.C,SW3*%
X130748800Y-142739400D03*
X137251200Y-142739400D03*
X130748800Y-147260600D03*
X137251200Y-147260600D03*
%TD*%
D19*
%TO.C,R8*%
X144200000Y-104725000D03*
X144200000Y-103075000D03*
%TD*%
D26*
%TO.C,VR1*%
X167500000Y-108000000D03*
D27*
X170000000Y-108000000D03*
X172500000Y-108000000D03*
D28*
X165500000Y-101000000D03*
X174500000Y-101000000D03*
%TD*%
D16*
%TO.C,R48*%
X176425000Y-77800000D03*
X174775000Y-77800000D03*
%TD*%
D33*
%TO.C,C24*%
X154700000Y-79200000D03*
X154700000Y-84600000D03*
%TD*%
D12*
%TO.C,R7*%
X145800000Y-103075000D03*
X145800000Y-104725000D03*
%TD*%
D21*
%TO.C,R9*%
X131746300Y-96069400D03*
X133396300Y-96069400D03*
%TD*%
D16*
%TO.C,R13*%
X118725000Y-132000000D03*
X117075000Y-132000000D03*
%TD*%
D12*
%TO.C,R71*%
X135900000Y-107525000D03*
X135900000Y-109175000D03*
%TD*%
D21*
%TO.C,R43*%
X199750000Y-141750000D03*
X201400000Y-141750000D03*
%TD*%
D34*
%TO.C,C29*%
X145800000Y-100350000D03*
X145800000Y-96750000D03*
%TD*%
D15*
%TO.C,C9*%
X114050000Y-107225000D03*
X114050000Y-108775000D03*
%TD*%
D35*
%TO.C,D6*%
X190300000Y-77150000D03*
X188200000Y-77150000D03*
%TD*%
D36*
%TO.C,LED1*%
X206000000Y-146000000D03*
D37*
X206000000Y-143460000D03*
%TD*%
D16*
%TO.C,R11*%
X115625000Y-135200000D03*
X113975000Y-135200000D03*
%TD*%
D38*
%TO.C,A1*%
X52795000Y-125295000D03*
D39*
X55335000Y-125295000D03*
X57875000Y-125295000D03*
X60415000Y-125295000D03*
X62955000Y-125295000D03*
X65495000Y-125295000D03*
X68035000Y-125295000D03*
X70575000Y-125295000D03*
X73115000Y-125295000D03*
X75655000Y-125295000D03*
X78195000Y-125295000D03*
X80735000Y-125295000D03*
X83275000Y-125295000D03*
X85815000Y-125295000D03*
X88355000Y-125295000D03*
X90895000Y-125295000D03*
X93435000Y-125295000D03*
X95975000Y-125295000D03*
X98515000Y-125295000D03*
X101055000Y-125295000D03*
X101055000Y-110055000D03*
X98515000Y-110055000D03*
X95975000Y-110055000D03*
X93435000Y-110055000D03*
X90895000Y-110055000D03*
X88355000Y-110055000D03*
X85815000Y-110055000D03*
X83275000Y-110055000D03*
X80735000Y-110055000D03*
X78195000Y-110055000D03*
X75655000Y-110055000D03*
X73115000Y-110055000D03*
X70575000Y-110055000D03*
X68035000Y-110055000D03*
X65495000Y-110055000D03*
X62955000Y-110055000D03*
X60415000Y-110055000D03*
X57875000Y-110055000D03*
X55335000Y-110055000D03*
X52795000Y-110055000D03*
%TD*%
D19*
%TO.C,R54*%
X60500000Y-122650000D03*
X60500000Y-121000000D03*
%TD*%
D15*
%TO.C,C11*%
X107250000Y-102325000D03*
X107250000Y-103875000D03*
%TD*%
D40*
%TO.C,U6*%
X118985400Y-90949900D03*
X118985400Y-87750000D03*
X118985400Y-85549800D03*
X118985400Y-83349900D03*
X111750000Y-83349900D03*
X111750000Y-85549800D03*
X111750000Y-87750000D03*
X111750000Y-90949900D03*
%TD*%
D41*
%TO.C,D5*%
X180700000Y-71850000D03*
X180700000Y-69750000D03*
%TD*%
D42*
%TO.C,C26*%
X193550000Y-80500000D03*
X193550000Y-78600000D03*
%TD*%
D33*
%TO.C,C43*%
X201150000Y-86450000D03*
X201150000Y-91850000D03*
%TD*%
D16*
%TO.C,R75*%
X117225000Y-122500000D03*
X115575000Y-122500000D03*
%TD*%
D21*
%TO.C,FB5*%
X177075000Y-64400000D03*
X178725000Y-64400000D03*
%TD*%
D12*
%TO.C,R15*%
X120250000Y-102775000D03*
X120250000Y-104425000D03*
%TD*%
D21*
%TO.C,R1*%
X61675100Y-80500000D03*
X63325100Y-80500000D03*
%TD*%
D12*
%TO.C,R62*%
X64000000Y-91475000D03*
X64000000Y-93125000D03*
%TD*%
D43*
%TO.C,C48*%
X110200000Y-123650000D03*
X106600000Y-123650000D03*
%TD*%
D26*
%TO.C,VR4*%
X167500000Y-132000000D03*
D27*
X170000000Y-132000000D03*
X172500000Y-132000000D03*
D28*
X165500000Y-125000000D03*
X174500000Y-125000000D03*
%TD*%
D16*
%TO.C,R12*%
X115625000Y-132000000D03*
X113975000Y-132000000D03*
%TD*%
%TO.C,R14*%
X123225000Y-134750000D03*
X121575000Y-134750000D03*
%TD*%
D12*
%TO.C,R58*%
X139300000Y-107525000D03*
X139300000Y-109175000D03*
%TD*%
D18*
%TO.C,C37*%
X131525000Y-101250000D03*
X133075000Y-101250000D03*
%TD*%
D29*
%TO.C,C25*%
X133075000Y-105950000D03*
X131525000Y-105950000D03*
%TD*%
D21*
%TO.C,R29*%
X227100000Y-105100000D03*
X228750000Y-105100000D03*
%TD*%
D44*
%TO.C,D3*%
X139371300Y-94119400D03*
X139371300Y-96219400D03*
%TD*%
D45*
%TO.C,C10*%
X106450000Y-108900000D03*
X110050000Y-108900000D03*
%TD*%
D21*
%TO.C,R72*%
X134675000Y-100050000D03*
X136325000Y-100050000D03*
%TD*%
D46*
%TO.C,C34*%
X228000000Y-119700000D03*
X228000000Y-118150000D03*
%TD*%
D16*
%TO.C,FB8*%
X175500000Y-64400000D03*
X173850000Y-64400000D03*
%TD*%
%TO.C,FB1*%
X210775000Y-83850000D03*
X209125000Y-83850000D03*
%TD*%
D47*
%TO.C,U11*%
X230200000Y-137475000D03*
D48*
X230200000Y-140015000D03*
X230200000Y-142555000D03*
X237820000Y-142555000D03*
X237820000Y-140015000D03*
X237820000Y-137475000D03*
%TD*%
D23*
%TO.C,J6*%
X204751100Y-59703600D03*
X204751100Y-72303600D03*
X204751100Y-66003600D03*
X221251100Y-59703600D03*
X221251100Y-72303600D03*
X221251100Y-66003600D03*
%TD*%
D16*
%TO.C,R28*%
X228625000Y-95000000D03*
X226975000Y-95000000D03*
%TD*%
%TO.C,R10*%
X133396300Y-94269400D03*
X131746300Y-94269400D03*
%TD*%
D19*
%TO.C,R53*%
X63000000Y-122650000D03*
X63000000Y-121000000D03*
%TD*%
D12*
%TO.C,R69*%
X130800000Y-102725000D03*
X130800000Y-104375000D03*
%TD*%
D19*
%TO.C,R65*%
X132144700Y-73989800D03*
X132144700Y-72339800D03*
%TD*%
D49*
%TO.C,FSW_1*%
X171250000Y-145000000D03*
X168750000Y-145000000D03*
%TD*%
D50*
%TO.C,C36*%
X58700000Y-103000000D03*
X53300000Y-103000000D03*
%TD*%
D21*
%TO.C,R27*%
X110875000Y-99600000D03*
X112525000Y-99600000D03*
%TD*%
D19*
%TO.C,R76*%
X118700000Y-123375000D03*
X118700000Y-121725000D03*
%TD*%
D33*
%TO.C,C14*%
X171300000Y-79300000D03*
X171300000Y-84700000D03*
%TD*%
D17*
%TO.C,Q5*%
X109812500Y-94650000D03*
X109812500Y-96550000D03*
X111687500Y-95600000D03*
%TD*%
D12*
%TO.C,R20*%
X115750000Y-107175000D03*
X115750000Y-108825000D03*
%TD*%
D22*
%TO.C,H2*%
X55000000Y-150000000D03*
%TD*%
D51*
%TO.C,U14*%
X62812600Y-82300000D03*
X62812600Y-83250000D03*
X62812600Y-84200000D03*
X65087600Y-84200000D03*
X65087600Y-83250000D03*
X65087600Y-82300000D03*
%TD*%
D26*
%TO.C,VR6*%
X203500000Y-132000000D03*
D27*
X206000000Y-132000000D03*
X208500000Y-132000000D03*
D28*
X201500000Y-125000000D03*
X210500000Y-125000000D03*
%TD*%
D46*
%TO.C,C22*%
X180700000Y-68375000D03*
X180700000Y-66825000D03*
%TD*%
D12*
%TO.C,FB9*%
X180700000Y-73275000D03*
X180700000Y-74925000D03*
%TD*%
D19*
%TO.C,R16*%
X118500000Y-104425000D03*
X118500000Y-102775000D03*
%TD*%
D23*
%TO.C,J3*%
X86751100Y-59703600D03*
X86751100Y-72303600D03*
X86751100Y-66003600D03*
X103251100Y-59703600D03*
X103251100Y-72303600D03*
X103251100Y-66003600D03*
%TD*%
D52*
%TO.C,C15*%
X195750000Y-85300000D03*
X195750000Y-87200000D03*
%TD*%
D21*
%TO.C,FB10*%
X177075000Y-61000000D03*
X178725000Y-61000000D03*
%TD*%
D30*
%TO.C,SW1*%
X77460000Y-145000000D03*
X80000000Y-145000000D03*
X82540000Y-145000000D03*
%TD*%
D19*
%TO.C,R3*%
X240250000Y-143075000D03*
X240250000Y-141425000D03*
%TD*%
D53*
%TO.C,C18*%
X207450000Y-86350000D03*
X207450000Y-89950000D03*
%TD*%
D19*
%TO.C,R59*%
X227200000Y-81825000D03*
X227200000Y-80175000D03*
%TD*%
D15*
%TO.C,C32*%
X132400000Y-102775000D03*
X132400000Y-104325000D03*
%TD*%
D16*
%TO.C,R24*%
X108062500Y-94700000D03*
X106412500Y-94700000D03*
%TD*%
D49*
%TO.C,FSW_2*%
X189250000Y-145000000D03*
X186750000Y-145000000D03*
%TD*%
D33*
%TO.C,C21*%
X175600000Y-67500000D03*
X175600000Y-72900000D03*
%TD*%
D36*
%TO.C,LED2*%
X80000000Y-132000000D03*
D37*
X80000000Y-134159000D03*
X80000000Y-136318000D03*
X80000000Y-138477000D03*
%TD*%
D18*
%TO.C,C38*%
X117175000Y-120900000D03*
X115625000Y-120900000D03*
%TD*%
D29*
%TO.C,C4*%
X108275000Y-105500000D03*
X106725000Y-105500000D03*
%TD*%
D22*
%TO.C,H3*%
X242000000Y-60000000D03*
%TD*%
D54*
%TO.C,L2*%
X65400000Y-96400000D03*
X65400000Y-101600000D03*
%TD*%
D46*
%TO.C,C16*%
X191750000Y-80525000D03*
X191750000Y-78975000D03*
%TD*%
D30*
%TO.C,SW6*%
X113460000Y-145000000D03*
X116000000Y-145000000D03*
X118540000Y-145000000D03*
%TD*%
D16*
%TO.C,R55*%
X167725000Y-77800000D03*
X166075000Y-77800000D03*
%TD*%
D21*
%TO.C,R23*%
X106412500Y-96400000D03*
X108062500Y-96400000D03*
%TD*%
D12*
%TO.C,R40*%
X75750000Y-131925000D03*
X75750000Y-133575000D03*
%TD*%
D43*
%TO.C,C42*%
X125000000Y-123350000D03*
X121400000Y-123350000D03*
%TD*%
D55*
%TO.C,U7*%
X54744400Y-131696200D03*
X54744400Y-139671800D03*
D56*
X65448800Y-138929800D03*
X65448800Y-137829800D03*
X65448800Y-136729800D03*
X65448800Y-135629800D03*
X65448800Y-134529800D03*
X65448800Y-133429800D03*
X65448800Y-132329800D03*
X65448800Y-131229800D03*
X65448800Y-130129800D03*
D57*
X64675000Y-128711400D03*
D58*
X54975000Y-128711400D03*
X54975000Y-144536200D03*
D59*
X64675000Y-143761200D03*
%TD*%
D33*
%TO.C,C13*%
X180000000Y-79300000D03*
X180000000Y-84700000D03*
%TD*%
D60*
%TO.C,J8*%
X166500000Y-69100000D03*
D61*
X166500000Y-63300000D03*
D62*
X161700000Y-66100000D03*
%TD*%
D63*
%TO.C,U4*%
X56480200Y-80350100D03*
X56480200Y-86140000D03*
D64*
X56980100Y-78929900D03*
X56980100Y-87570000D03*
D65*
X52800000Y-87570000D03*
X52800000Y-78929900D03*
D66*
X57600100Y-80050100D03*
X57600100Y-80849900D03*
D67*
X57600100Y-82000000D03*
X57600100Y-83000000D03*
X57600100Y-83499900D03*
X57600100Y-84499900D03*
D66*
X57600100Y-86449900D03*
X57600100Y-85650000D03*
D67*
X57600100Y-85000000D03*
X57600100Y-84000000D03*
X57600100Y-82499900D03*
X57600100Y-81499900D03*
%TD*%
D34*
%TO.C,C7*%
X120700000Y-100100000D03*
X120700000Y-96500000D03*
%TD*%
D53*
%TO.C,C19*%
X212550000Y-86350000D03*
X212550000Y-89950000D03*
%TD*%
D16*
%TO.C,FB3*%
X175500000Y-61000000D03*
X173850000Y-61000000D03*
%TD*%
%TO.C,FB4*%
X178725000Y-62700000D03*
X177075000Y-62700000D03*
%TD*%
%TO.C,R74*%
X117225000Y-119300000D03*
X115575000Y-119300000D03*
%TD*%
D12*
%TO.C,R25*%
X72250000Y-131925000D03*
X72250000Y-133575000D03*
%TD*%
D21*
%TO.C,FB7*%
X173850000Y-62700000D03*
X175500000Y-62700000D03*
%TD*%
D12*
%TO.C,R63*%
X65900000Y-91475000D03*
X65900000Y-93125000D03*
%TD*%
D50*
%TO.C,C41*%
X58700000Y-95600000D03*
X53300000Y-95600000D03*
%TD*%
D33*
%TO.C,C23*%
X162600000Y-79300000D03*
X162600000Y-84700000D03*
%TD*%
D24*
%TO.C,J1*%
X245000000Y-102500000D03*
X245000000Y-97500000D03*
D25*
X240000000Y-107500000D03*
X240000000Y-92500000D03*
D24*
X235000000Y-92500000D03*
X235000000Y-100000000D03*
X235000000Y-107500000D03*
X232510000Y-95000000D03*
X232510000Y-105000000D03*
%TD*%
D23*
%TO.C,J4*%
X111751100Y-59703600D03*
X111751100Y-72303600D03*
X111751100Y-66003600D03*
X128251100Y-59703600D03*
X128251100Y-72303600D03*
X128251100Y-66003600D03*
%TD*%
D13*
%TO.C,FD2*%
X52001100Y-66003600D03*
%TD*%
D18*
%TO.C,C28*%
X144225000Y-106250000D03*
X145775000Y-106250000D03*
%TD*%
D24*
%TO.C,J10*%
X245000000Y-125000000D03*
X245000000Y-120000000D03*
D25*
X240000000Y-130000000D03*
X240000000Y-115000000D03*
D24*
X235000000Y-115000000D03*
X235000000Y-122500000D03*
X235000000Y-130000000D03*
X232510000Y-117500000D03*
X232510000Y-127500000D03*
%TD*%
D21*
%TO.C,R4*%
X229925000Y-135000000D03*
X231575000Y-135000000D03*
%TD*%
D18*
%TO.C,C8*%
X118475000Y-105900000D03*
X120025000Y-105900000D03*
%TD*%
D19*
%TO.C,R68*%
X221600000Y-81825000D03*
X221600000Y-80175000D03*
%TD*%
%TO.C,R70*%
X134000000Y-102725000D03*
X134000000Y-104375000D03*
%TD*%
D26*
%TO.C,VR2*%
X185500000Y-108000000D03*
D27*
X188000000Y-108000000D03*
X190500000Y-108000000D03*
D28*
X183500000Y-101000000D03*
X192500000Y-101000000D03*
%TD*%
D22*
%TO.C,H4*%
X242000000Y-150000000D03*
%TD*%
D45*
%TO.C,C35*%
X129600000Y-109250000D03*
X133200000Y-109250000D03*
%TD*%
D46*
%TO.C,C17*%
X118800000Y-128125000D03*
X118800000Y-126575000D03*
%TD*%
%TO.C,C1*%
X240250000Y-139680000D03*
X240250000Y-138130000D03*
%TD*%
D19*
%TO.C,R64*%
X157101100Y-74028600D03*
X157101100Y-72378600D03*
%TD*%
D44*
%TO.C,D4*%
X113850000Y-94550000D03*
X113850000Y-96650000D03*
%TD*%
D43*
%TO.C,C6*%
X125100000Y-131150000D03*
X121500000Y-131150000D03*
%TD*%
%TO.C,C3*%
X110300000Y-130850000D03*
X106700000Y-130850000D03*
%TD*%
D40*
%TO.C,U5*%
X144367700Y-90300000D03*
X144367700Y-87100100D03*
X144367700Y-84899900D03*
X144367700Y-82700000D03*
X137132300Y-82700000D03*
X137132300Y-84899900D03*
X137132300Y-87100100D03*
X137132300Y-90300000D03*
%TD*%
D46*
%TO.C,C46*%
X81750000Y-104225000D03*
X81750000Y-102675000D03*
%TD*%
D19*
%TO.C,R17*%
X83500000Y-101175000D03*
X83500000Y-99525000D03*
%TD*%
D21*
%TO.C,R5*%
X91175000Y-105550000D03*
X92825000Y-105550000D03*
%TD*%
D18*
%TO.C,C2*%
X85475000Y-105550000D03*
X87025000Y-105550000D03*
%TD*%
D46*
%TO.C,C55*%
X95000000Y-100825000D03*
X95000000Y-99275000D03*
%TD*%
D19*
%TO.C,R56*%
X95000000Y-103975000D03*
X95000000Y-102325000D03*
%TD*%
D46*
%TO.C,C33*%
X93250000Y-100825000D03*
X93250000Y-99275000D03*
%TD*%
D16*
%TO.C,R18*%
X87325000Y-97950000D03*
X85675000Y-97950000D03*
%TD*%
D12*
%TO.C,R19*%
X93250000Y-102325000D03*
X93250000Y-103975000D03*
%TD*%
D68*
%TO.C,C39*%
X90050000Y-94750000D03*
X95450000Y-94750000D03*
%TD*%
D11*
%TO.C,U1*%
X90925000Y-103655000D03*
X90925000Y-102385000D03*
X90925000Y-101115000D03*
X90925000Y-99845000D03*
X85975000Y-99845000D03*
X85975000Y-101115000D03*
X85975000Y-102385000D03*
X85975000Y-103655000D03*
%TD*%
D12*
%TO.C,R60*%
X83500000Y-102625000D03*
X83500000Y-104275000D03*
%TD*%
M02*
