%TF.GenerationSoftware,KiCad,Pcbnew,8.0.8*%
%TF.CreationDate,2025-01-24T10:22:37-08:00*%
%TF.ProjectId,ES-Seed3-DevKit-Pedal-Rev1,45532d53-6565-4643-932d-4465764b6974,rev?*%
%TF.SameCoordinates,Original*%
%TF.FileFunction,Drillmap*%
%TF.FilePolarity,Positive*%
%FSLAX45Y45*%
G04 Gerber Fmt 4.5, Leading zero omitted, Abs format (unit mm)*
G04 Created by KiCad (PCBNEW 8.0.8) date 2025-01-24 10:22:37*
%MOMM*%
%LPD*%
G01*
G04 APERTURE LIST*
%ADD10C,0.050000*%
%ADD11C,0.200000*%
%ADD12C,0.100000*%
G04 APERTURE END LIST*
D10*
X5000000Y-5750000D02*
G75*
G02*
X5250000Y-5500000I250000J0D01*
G01*
X5250000Y-15500000D02*
G75*
G02*
X5000000Y-15250000I0J250000D01*
G01*
X5000000Y-15250000D02*
X5000000Y-5750000D01*
X5250000Y-15500000D02*
X24450000Y-15500000D01*
X5250000Y-5500000D02*
X24450000Y-5500000D01*
X24700000Y-15250000D02*
X24700000Y-5750000D01*
X24450000Y-5500000D02*
G75*
G02*
X24700000Y-5750000I0J-250000D01*
G01*
X24700000Y-15250000D02*
G75*
G02*
X24450000Y-15500000I-250000J0D01*
G01*
D11*
D12*
X5615520Y-8002510D02*
X5680520Y-8067510D01*
X5680520Y-8002510D02*
X5615520Y-8067510D01*
X5615520Y-8581500D02*
X5680520Y-8646500D01*
X5680520Y-8581500D02*
X5615520Y-8646500D01*
X5524440Y-13169620D02*
G75*
G02*
X5424440Y-13169620I-50000J0D01*
G01*
X5424440Y-13169620D02*
G75*
G02*
X5524440Y-13169620I50000J0D01*
G01*
X5524440Y-13967180D02*
G75*
G02*
X5424440Y-13967180I-50000J0D01*
G01*
X5424440Y-13967180D02*
G75*
G02*
X5524440Y-13967180I50000J0D01*
G01*
D11*
X5258277Y-15813984D02*
X5258277Y-15613984D01*
X5258277Y-15613984D02*
X5305896Y-15613984D01*
X5305896Y-15613984D02*
X5334467Y-15623508D01*
X5334467Y-15623508D02*
X5353515Y-15642555D01*
X5353515Y-15642555D02*
X5363039Y-15661603D01*
X5363039Y-15661603D02*
X5372563Y-15699698D01*
X5372563Y-15699698D02*
X5372563Y-15728269D01*
X5372563Y-15728269D02*
X5363039Y-15766365D01*
X5363039Y-15766365D02*
X5353515Y-15785412D01*
X5353515Y-15785412D02*
X5334467Y-15804460D01*
X5334467Y-15804460D02*
X5305896Y-15813984D01*
X5305896Y-15813984D02*
X5258277Y-15813984D01*
X5458277Y-15813984D02*
X5458277Y-15680650D01*
X5458277Y-15718746D02*
X5467801Y-15699698D01*
X5467801Y-15699698D02*
X5477324Y-15690174D01*
X5477324Y-15690174D02*
X5496372Y-15680650D01*
X5496372Y-15680650D02*
X5515420Y-15680650D01*
X5582086Y-15813984D02*
X5582086Y-15680650D01*
X5582086Y-15613984D02*
X5572563Y-15623508D01*
X5572563Y-15623508D02*
X5582086Y-15633031D01*
X5582086Y-15633031D02*
X5591610Y-15623508D01*
X5591610Y-15623508D02*
X5582086Y-15613984D01*
X5582086Y-15613984D02*
X5582086Y-15633031D01*
X5705896Y-15813984D02*
X5686848Y-15804460D01*
X5686848Y-15804460D02*
X5677324Y-15785412D01*
X5677324Y-15785412D02*
X5677324Y-15613984D01*
X5810658Y-15813984D02*
X5791610Y-15804460D01*
X5791610Y-15804460D02*
X5782086Y-15785412D01*
X5782086Y-15785412D02*
X5782086Y-15613984D01*
X6039229Y-15813984D02*
X6039229Y-15613984D01*
X6039229Y-15613984D02*
X6105896Y-15756841D01*
X6105896Y-15756841D02*
X6172562Y-15613984D01*
X6172562Y-15613984D02*
X6172562Y-15813984D01*
X6353515Y-15813984D02*
X6353515Y-15709222D01*
X6353515Y-15709222D02*
X6343991Y-15690174D01*
X6343991Y-15690174D02*
X6324943Y-15680650D01*
X6324943Y-15680650D02*
X6286848Y-15680650D01*
X6286848Y-15680650D02*
X6267801Y-15690174D01*
X6353515Y-15804460D02*
X6334467Y-15813984D01*
X6334467Y-15813984D02*
X6286848Y-15813984D01*
X6286848Y-15813984D02*
X6267801Y-15804460D01*
X6267801Y-15804460D02*
X6258277Y-15785412D01*
X6258277Y-15785412D02*
X6258277Y-15766365D01*
X6258277Y-15766365D02*
X6267801Y-15747317D01*
X6267801Y-15747317D02*
X6286848Y-15737793D01*
X6286848Y-15737793D02*
X6334467Y-15737793D01*
X6334467Y-15737793D02*
X6353515Y-15728269D01*
X6448753Y-15680650D02*
X6448753Y-15880650D01*
X6448753Y-15690174D02*
X6467801Y-15680650D01*
X6467801Y-15680650D02*
X6505896Y-15680650D01*
X6505896Y-15680650D02*
X6524943Y-15690174D01*
X6524943Y-15690174D02*
X6534467Y-15699698D01*
X6534467Y-15699698D02*
X6543991Y-15718746D01*
X6543991Y-15718746D02*
X6543991Y-15775888D01*
X6543991Y-15775888D02*
X6534467Y-15794936D01*
X6534467Y-15794936D02*
X6524943Y-15804460D01*
X6524943Y-15804460D02*
X6505896Y-15813984D01*
X6505896Y-15813984D02*
X6467801Y-15813984D01*
X6467801Y-15813984D02*
X6448753Y-15804460D01*
X6629705Y-15794936D02*
X6639229Y-15804460D01*
X6639229Y-15804460D02*
X6629705Y-15813984D01*
X6629705Y-15813984D02*
X6620182Y-15804460D01*
X6620182Y-15804460D02*
X6629705Y-15794936D01*
X6629705Y-15794936D02*
X6629705Y-15813984D01*
X6629705Y-15690174D02*
X6639229Y-15699698D01*
X6639229Y-15699698D02*
X6629705Y-15709222D01*
X6629705Y-15709222D02*
X6620182Y-15699698D01*
X6620182Y-15699698D02*
X6629705Y-15690174D01*
X6629705Y-15690174D02*
X6629705Y-15709222D01*
D12*
X4932500Y-16110000D02*
X4997500Y-16175000D01*
X4997500Y-16110000D02*
X4932500Y-16175000D01*
D11*
X5296372Y-16033984D02*
X5315420Y-16033984D01*
X5315420Y-16033984D02*
X5334467Y-16043508D01*
X5334467Y-16043508D02*
X5343991Y-16053031D01*
X5343991Y-16053031D02*
X5353515Y-16072079D01*
X5353515Y-16072079D02*
X5363039Y-16110174D01*
X5363039Y-16110174D02*
X5363039Y-16157793D01*
X5363039Y-16157793D02*
X5353515Y-16195888D01*
X5353515Y-16195888D02*
X5343991Y-16214936D01*
X5343991Y-16214936D02*
X5334467Y-16224460D01*
X5334467Y-16224460D02*
X5315420Y-16233984D01*
X5315420Y-16233984D02*
X5296372Y-16233984D01*
X5296372Y-16233984D02*
X5277324Y-16224460D01*
X5277324Y-16224460D02*
X5267801Y-16214936D01*
X5267801Y-16214936D02*
X5258277Y-16195888D01*
X5258277Y-16195888D02*
X5248753Y-16157793D01*
X5248753Y-16157793D02*
X5248753Y-16110174D01*
X5248753Y-16110174D02*
X5258277Y-16072079D01*
X5258277Y-16072079D02*
X5267801Y-16053031D01*
X5267801Y-16053031D02*
X5277324Y-16043508D01*
X5277324Y-16043508D02*
X5296372Y-16033984D01*
X5448753Y-16214936D02*
X5458277Y-16224460D01*
X5458277Y-16224460D02*
X5448753Y-16233984D01*
X5448753Y-16233984D02*
X5439229Y-16224460D01*
X5439229Y-16224460D02*
X5448753Y-16214936D01*
X5448753Y-16214936D02*
X5448753Y-16233984D01*
X5629705Y-16033984D02*
X5591610Y-16033984D01*
X5591610Y-16033984D02*
X5572563Y-16043508D01*
X5572563Y-16043508D02*
X5563039Y-16053031D01*
X5563039Y-16053031D02*
X5543991Y-16081603D01*
X5543991Y-16081603D02*
X5534467Y-16119698D01*
X5534467Y-16119698D02*
X5534467Y-16195888D01*
X5534467Y-16195888D02*
X5543991Y-16214936D01*
X5543991Y-16214936D02*
X5553515Y-16224460D01*
X5553515Y-16224460D02*
X5572563Y-16233984D01*
X5572563Y-16233984D02*
X5610658Y-16233984D01*
X5610658Y-16233984D02*
X5629705Y-16224460D01*
X5629705Y-16224460D02*
X5639229Y-16214936D01*
X5639229Y-16214936D02*
X5648753Y-16195888D01*
X5648753Y-16195888D02*
X5648753Y-16148269D01*
X5648753Y-16148269D02*
X5639229Y-16129222D01*
X5639229Y-16129222D02*
X5629705Y-16119698D01*
X5629705Y-16119698D02*
X5610658Y-16110174D01*
X5610658Y-16110174D02*
X5572563Y-16110174D01*
X5572563Y-16110174D02*
X5553515Y-16119698D01*
X5553515Y-16119698D02*
X5543991Y-16129222D01*
X5543991Y-16129222D02*
X5534467Y-16148269D01*
X5829705Y-16033984D02*
X5734467Y-16033984D01*
X5734467Y-16033984D02*
X5724943Y-16129222D01*
X5724943Y-16129222D02*
X5734467Y-16119698D01*
X5734467Y-16119698D02*
X5753515Y-16110174D01*
X5753515Y-16110174D02*
X5801134Y-16110174D01*
X5801134Y-16110174D02*
X5820182Y-16119698D01*
X5820182Y-16119698D02*
X5829705Y-16129222D01*
X5829705Y-16129222D02*
X5839229Y-16148269D01*
X5839229Y-16148269D02*
X5839229Y-16195888D01*
X5839229Y-16195888D02*
X5829705Y-16214936D01*
X5829705Y-16214936D02*
X5820182Y-16224460D01*
X5820182Y-16224460D02*
X5801134Y-16233984D01*
X5801134Y-16233984D02*
X5753515Y-16233984D01*
X5753515Y-16233984D02*
X5734467Y-16224460D01*
X5734467Y-16224460D02*
X5724943Y-16214936D01*
X5963039Y-16033984D02*
X5982086Y-16033984D01*
X5982086Y-16033984D02*
X6001134Y-16043508D01*
X6001134Y-16043508D02*
X6010658Y-16053031D01*
X6010658Y-16053031D02*
X6020182Y-16072079D01*
X6020182Y-16072079D02*
X6029705Y-16110174D01*
X6029705Y-16110174D02*
X6029705Y-16157793D01*
X6029705Y-16157793D02*
X6020182Y-16195888D01*
X6020182Y-16195888D02*
X6010658Y-16214936D01*
X6010658Y-16214936D02*
X6001134Y-16224460D01*
X6001134Y-16224460D02*
X5982086Y-16233984D01*
X5982086Y-16233984D02*
X5963039Y-16233984D01*
X5963039Y-16233984D02*
X5943991Y-16224460D01*
X5943991Y-16224460D02*
X5934467Y-16214936D01*
X5934467Y-16214936D02*
X5924943Y-16195888D01*
X5924943Y-16195888D02*
X5915420Y-16157793D01*
X5915420Y-16157793D02*
X5915420Y-16110174D01*
X5915420Y-16110174D02*
X5924943Y-16072079D01*
X5924943Y-16072079D02*
X5934467Y-16053031D01*
X5934467Y-16053031D02*
X5943991Y-16043508D01*
X5943991Y-16043508D02*
X5963039Y-16033984D01*
X6115420Y-16233984D02*
X6115420Y-16100650D01*
X6115420Y-16119698D02*
X6124943Y-16110174D01*
X6124943Y-16110174D02*
X6143991Y-16100650D01*
X6143991Y-16100650D02*
X6172563Y-16100650D01*
X6172563Y-16100650D02*
X6191610Y-16110174D01*
X6191610Y-16110174D02*
X6201134Y-16129222D01*
X6201134Y-16129222D02*
X6201134Y-16233984D01*
X6201134Y-16129222D02*
X6210658Y-16110174D01*
X6210658Y-16110174D02*
X6229705Y-16100650D01*
X6229705Y-16100650D02*
X6258277Y-16100650D01*
X6258277Y-16100650D02*
X6277324Y-16110174D01*
X6277324Y-16110174D02*
X6286848Y-16129222D01*
X6286848Y-16129222D02*
X6286848Y-16233984D01*
X6382086Y-16233984D02*
X6382086Y-16100650D01*
X6382086Y-16119698D02*
X6391610Y-16110174D01*
X6391610Y-16110174D02*
X6410658Y-16100650D01*
X6410658Y-16100650D02*
X6439229Y-16100650D01*
X6439229Y-16100650D02*
X6458277Y-16110174D01*
X6458277Y-16110174D02*
X6467801Y-16129222D01*
X6467801Y-16129222D02*
X6467801Y-16233984D01*
X6467801Y-16129222D02*
X6477324Y-16110174D01*
X6477324Y-16110174D02*
X6496372Y-16100650D01*
X6496372Y-16100650D02*
X6524943Y-16100650D01*
X6524943Y-16100650D02*
X6543991Y-16110174D01*
X6543991Y-16110174D02*
X6553515Y-16129222D01*
X6553515Y-16129222D02*
X6553515Y-16233984D01*
X6943991Y-16024460D02*
X6772563Y-16281603D01*
X7201134Y-16033984D02*
X7220182Y-16033984D01*
X7220182Y-16033984D02*
X7239229Y-16043508D01*
X7239229Y-16043508D02*
X7248753Y-16053031D01*
X7248753Y-16053031D02*
X7258277Y-16072079D01*
X7258277Y-16072079D02*
X7267801Y-16110174D01*
X7267801Y-16110174D02*
X7267801Y-16157793D01*
X7267801Y-16157793D02*
X7258277Y-16195888D01*
X7258277Y-16195888D02*
X7248753Y-16214936D01*
X7248753Y-16214936D02*
X7239229Y-16224460D01*
X7239229Y-16224460D02*
X7220182Y-16233984D01*
X7220182Y-16233984D02*
X7201134Y-16233984D01*
X7201134Y-16233984D02*
X7182086Y-16224460D01*
X7182086Y-16224460D02*
X7172563Y-16214936D01*
X7172563Y-16214936D02*
X7163039Y-16195888D01*
X7163039Y-16195888D02*
X7153515Y-16157793D01*
X7153515Y-16157793D02*
X7153515Y-16110174D01*
X7153515Y-16110174D02*
X7163039Y-16072079D01*
X7163039Y-16072079D02*
X7172563Y-16053031D01*
X7172563Y-16053031D02*
X7182086Y-16043508D01*
X7182086Y-16043508D02*
X7201134Y-16033984D01*
X7353515Y-16214936D02*
X7363039Y-16224460D01*
X7363039Y-16224460D02*
X7353515Y-16233984D01*
X7353515Y-16233984D02*
X7343991Y-16224460D01*
X7343991Y-16224460D02*
X7353515Y-16214936D01*
X7353515Y-16214936D02*
X7353515Y-16233984D01*
X7486848Y-16033984D02*
X7505896Y-16033984D01*
X7505896Y-16033984D02*
X7524944Y-16043508D01*
X7524944Y-16043508D02*
X7534467Y-16053031D01*
X7534467Y-16053031D02*
X7543991Y-16072079D01*
X7543991Y-16072079D02*
X7553515Y-16110174D01*
X7553515Y-16110174D02*
X7553515Y-16157793D01*
X7553515Y-16157793D02*
X7543991Y-16195888D01*
X7543991Y-16195888D02*
X7534467Y-16214936D01*
X7534467Y-16214936D02*
X7524944Y-16224460D01*
X7524944Y-16224460D02*
X7505896Y-16233984D01*
X7505896Y-16233984D02*
X7486848Y-16233984D01*
X7486848Y-16233984D02*
X7467801Y-16224460D01*
X7467801Y-16224460D02*
X7458277Y-16214936D01*
X7458277Y-16214936D02*
X7448753Y-16195888D01*
X7448753Y-16195888D02*
X7439229Y-16157793D01*
X7439229Y-16157793D02*
X7439229Y-16110174D01*
X7439229Y-16110174D02*
X7448753Y-16072079D01*
X7448753Y-16072079D02*
X7458277Y-16053031D01*
X7458277Y-16053031D02*
X7467801Y-16043508D01*
X7467801Y-16043508D02*
X7486848Y-16033984D01*
X7629706Y-16053031D02*
X7639229Y-16043508D01*
X7639229Y-16043508D02*
X7658277Y-16033984D01*
X7658277Y-16033984D02*
X7705896Y-16033984D01*
X7705896Y-16033984D02*
X7724944Y-16043508D01*
X7724944Y-16043508D02*
X7734467Y-16053031D01*
X7734467Y-16053031D02*
X7743991Y-16072079D01*
X7743991Y-16072079D02*
X7743991Y-16091127D01*
X7743991Y-16091127D02*
X7734467Y-16119698D01*
X7734467Y-16119698D02*
X7620182Y-16233984D01*
X7620182Y-16233984D02*
X7743991Y-16233984D01*
X7924944Y-16033984D02*
X7829706Y-16033984D01*
X7829706Y-16033984D02*
X7820182Y-16129222D01*
X7820182Y-16129222D02*
X7829706Y-16119698D01*
X7829706Y-16119698D02*
X7848753Y-16110174D01*
X7848753Y-16110174D02*
X7896372Y-16110174D01*
X7896372Y-16110174D02*
X7915420Y-16119698D01*
X7915420Y-16119698D02*
X7924944Y-16129222D01*
X7924944Y-16129222D02*
X7934467Y-16148269D01*
X7934467Y-16148269D02*
X7934467Y-16195888D01*
X7934467Y-16195888D02*
X7924944Y-16214936D01*
X7924944Y-16214936D02*
X7915420Y-16224460D01*
X7915420Y-16224460D02*
X7896372Y-16233984D01*
X7896372Y-16233984D02*
X7848753Y-16233984D01*
X7848753Y-16233984D02*
X7829706Y-16224460D01*
X7829706Y-16224460D02*
X7820182Y-16214936D01*
X8105896Y-16033984D02*
X8067801Y-16033984D01*
X8067801Y-16033984D02*
X8048753Y-16043508D01*
X8048753Y-16043508D02*
X8039229Y-16053031D01*
X8039229Y-16053031D02*
X8020182Y-16081603D01*
X8020182Y-16081603D02*
X8010658Y-16119698D01*
X8010658Y-16119698D02*
X8010658Y-16195888D01*
X8010658Y-16195888D02*
X8020182Y-16214936D01*
X8020182Y-16214936D02*
X8029706Y-16224460D01*
X8029706Y-16224460D02*
X8048753Y-16233984D01*
X8048753Y-16233984D02*
X8086848Y-16233984D01*
X8086848Y-16233984D02*
X8105896Y-16224460D01*
X8105896Y-16224460D02*
X8115420Y-16214936D01*
X8115420Y-16214936D02*
X8124944Y-16195888D01*
X8124944Y-16195888D02*
X8124944Y-16148269D01*
X8124944Y-16148269D02*
X8115420Y-16129222D01*
X8115420Y-16129222D02*
X8105896Y-16119698D01*
X8105896Y-16119698D02*
X8086848Y-16110174D01*
X8086848Y-16110174D02*
X8048753Y-16110174D01*
X8048753Y-16110174D02*
X8029706Y-16119698D01*
X8029706Y-16119698D02*
X8020182Y-16129222D01*
X8020182Y-16129222D02*
X8010658Y-16148269D01*
X8201134Y-16033984D02*
X8201134Y-16072079D01*
X8277325Y-16033984D02*
X8277325Y-16072079D01*
X8572563Y-16310174D02*
X8563039Y-16300650D01*
X8563039Y-16300650D02*
X8543991Y-16272079D01*
X8543991Y-16272079D02*
X8534468Y-16253031D01*
X8534468Y-16253031D02*
X8524944Y-16224460D01*
X8524944Y-16224460D02*
X8515420Y-16176841D01*
X8515420Y-16176841D02*
X8515420Y-16138746D01*
X8515420Y-16138746D02*
X8524944Y-16091127D01*
X8524944Y-16091127D02*
X8534468Y-16062555D01*
X8534468Y-16062555D02*
X8543991Y-16043508D01*
X8543991Y-16043508D02*
X8563039Y-16014936D01*
X8563039Y-16014936D02*
X8572563Y-16005412D01*
X8639230Y-16053031D02*
X8648753Y-16043508D01*
X8648753Y-16043508D02*
X8667801Y-16033984D01*
X8667801Y-16033984D02*
X8715420Y-16033984D01*
X8715420Y-16033984D02*
X8734468Y-16043508D01*
X8734468Y-16043508D02*
X8743991Y-16053031D01*
X8743991Y-16053031D02*
X8753515Y-16072079D01*
X8753515Y-16072079D02*
X8753515Y-16091127D01*
X8753515Y-16091127D02*
X8743991Y-16119698D01*
X8743991Y-16119698D02*
X8629706Y-16233984D01*
X8629706Y-16233984D02*
X8753515Y-16233984D01*
X8991611Y-16233984D02*
X8991611Y-16033984D01*
X9077325Y-16233984D02*
X9077325Y-16129222D01*
X9077325Y-16129222D02*
X9067801Y-16110174D01*
X9067801Y-16110174D02*
X9048753Y-16100650D01*
X9048753Y-16100650D02*
X9020182Y-16100650D01*
X9020182Y-16100650D02*
X9001134Y-16110174D01*
X9001134Y-16110174D02*
X8991611Y-16119698D01*
X9201134Y-16233984D02*
X9182087Y-16224460D01*
X9182087Y-16224460D02*
X9172563Y-16214936D01*
X9172563Y-16214936D02*
X9163039Y-16195888D01*
X9163039Y-16195888D02*
X9163039Y-16138746D01*
X9163039Y-16138746D02*
X9172563Y-16119698D01*
X9172563Y-16119698D02*
X9182087Y-16110174D01*
X9182087Y-16110174D02*
X9201134Y-16100650D01*
X9201134Y-16100650D02*
X9229706Y-16100650D01*
X9229706Y-16100650D02*
X9248753Y-16110174D01*
X9248753Y-16110174D02*
X9258277Y-16119698D01*
X9258277Y-16119698D02*
X9267801Y-16138746D01*
X9267801Y-16138746D02*
X9267801Y-16195888D01*
X9267801Y-16195888D02*
X9258277Y-16214936D01*
X9258277Y-16214936D02*
X9248753Y-16224460D01*
X9248753Y-16224460D02*
X9229706Y-16233984D01*
X9229706Y-16233984D02*
X9201134Y-16233984D01*
X9382087Y-16233984D02*
X9363039Y-16224460D01*
X9363039Y-16224460D02*
X9353515Y-16205412D01*
X9353515Y-16205412D02*
X9353515Y-16033984D01*
X9534468Y-16224460D02*
X9515420Y-16233984D01*
X9515420Y-16233984D02*
X9477325Y-16233984D01*
X9477325Y-16233984D02*
X9458277Y-16224460D01*
X9458277Y-16224460D02*
X9448753Y-16205412D01*
X9448753Y-16205412D02*
X9448753Y-16129222D01*
X9448753Y-16129222D02*
X9458277Y-16110174D01*
X9458277Y-16110174D02*
X9477325Y-16100650D01*
X9477325Y-16100650D02*
X9515420Y-16100650D01*
X9515420Y-16100650D02*
X9534468Y-16110174D01*
X9534468Y-16110174D02*
X9543992Y-16129222D01*
X9543992Y-16129222D02*
X9543992Y-16148269D01*
X9543992Y-16148269D02*
X9448753Y-16167317D01*
X9620182Y-16224460D02*
X9639230Y-16233984D01*
X9639230Y-16233984D02*
X9677325Y-16233984D01*
X9677325Y-16233984D02*
X9696373Y-16224460D01*
X9696373Y-16224460D02*
X9705896Y-16205412D01*
X9705896Y-16205412D02*
X9705896Y-16195888D01*
X9705896Y-16195888D02*
X9696373Y-16176841D01*
X9696373Y-16176841D02*
X9677325Y-16167317D01*
X9677325Y-16167317D02*
X9648753Y-16167317D01*
X9648753Y-16167317D02*
X9629706Y-16157793D01*
X9629706Y-16157793D02*
X9620182Y-16138746D01*
X9620182Y-16138746D02*
X9620182Y-16129222D01*
X9620182Y-16129222D02*
X9629706Y-16110174D01*
X9629706Y-16110174D02*
X9648753Y-16100650D01*
X9648753Y-16100650D02*
X9677325Y-16100650D01*
X9677325Y-16100650D02*
X9696373Y-16110174D01*
X9772563Y-16310174D02*
X9782087Y-16300650D01*
X9782087Y-16300650D02*
X9801134Y-16272079D01*
X9801134Y-16272079D02*
X9810658Y-16253031D01*
X9810658Y-16253031D02*
X9820182Y-16224460D01*
X9820182Y-16224460D02*
X9829706Y-16176841D01*
X9829706Y-16176841D02*
X9829706Y-16138746D01*
X9829706Y-16138746D02*
X9820182Y-16091127D01*
X9820182Y-16091127D02*
X9810658Y-16062555D01*
X9810658Y-16062555D02*
X9801134Y-16043508D01*
X9801134Y-16043508D02*
X9782087Y-16014936D01*
X9782087Y-16014936D02*
X9772563Y-16005412D01*
X10134468Y-16310174D02*
X10124944Y-16300650D01*
X10124944Y-16300650D02*
X10105896Y-16272079D01*
X10105896Y-16272079D02*
X10096373Y-16253031D01*
X10096373Y-16253031D02*
X10086849Y-16224460D01*
X10086849Y-16224460D02*
X10077325Y-16176841D01*
X10077325Y-16176841D02*
X10077325Y-16138746D01*
X10077325Y-16138746D02*
X10086849Y-16091127D01*
X10086849Y-16091127D02*
X10096373Y-16062555D01*
X10096373Y-16062555D02*
X10105896Y-16043508D01*
X10105896Y-16043508D02*
X10124944Y-16014936D01*
X10124944Y-16014936D02*
X10134468Y-16005412D01*
X10210658Y-16100650D02*
X10210658Y-16233984D01*
X10210658Y-16119698D02*
X10220182Y-16110174D01*
X10220182Y-16110174D02*
X10239230Y-16100650D01*
X10239230Y-16100650D02*
X10267801Y-16100650D01*
X10267801Y-16100650D02*
X10286849Y-16110174D01*
X10286849Y-16110174D02*
X10296373Y-16129222D01*
X10296373Y-16129222D02*
X10296373Y-16233984D01*
X10420182Y-16233984D02*
X10401134Y-16224460D01*
X10401134Y-16224460D02*
X10391611Y-16214936D01*
X10391611Y-16214936D02*
X10382087Y-16195888D01*
X10382087Y-16195888D02*
X10382087Y-16138746D01*
X10382087Y-16138746D02*
X10391611Y-16119698D01*
X10391611Y-16119698D02*
X10401134Y-16110174D01*
X10401134Y-16110174D02*
X10420182Y-16100650D01*
X10420182Y-16100650D02*
X10448754Y-16100650D01*
X10448754Y-16100650D02*
X10467801Y-16110174D01*
X10467801Y-16110174D02*
X10477325Y-16119698D01*
X10477325Y-16119698D02*
X10486849Y-16138746D01*
X10486849Y-16138746D02*
X10486849Y-16195888D01*
X10486849Y-16195888D02*
X10477325Y-16214936D01*
X10477325Y-16214936D02*
X10467801Y-16224460D01*
X10467801Y-16224460D02*
X10448754Y-16233984D01*
X10448754Y-16233984D02*
X10420182Y-16233984D01*
X10543992Y-16100650D02*
X10620182Y-16100650D01*
X10572563Y-16033984D02*
X10572563Y-16205412D01*
X10572563Y-16205412D02*
X10582087Y-16224460D01*
X10582087Y-16224460D02*
X10601134Y-16233984D01*
X10601134Y-16233984D02*
X10620182Y-16233984D01*
X10839230Y-16100650D02*
X10839230Y-16300650D01*
X10839230Y-16110174D02*
X10858277Y-16100650D01*
X10858277Y-16100650D02*
X10896373Y-16100650D01*
X10896373Y-16100650D02*
X10915420Y-16110174D01*
X10915420Y-16110174D02*
X10924944Y-16119698D01*
X10924944Y-16119698D02*
X10934468Y-16138746D01*
X10934468Y-16138746D02*
X10934468Y-16195888D01*
X10934468Y-16195888D02*
X10924944Y-16214936D01*
X10924944Y-16214936D02*
X10915420Y-16224460D01*
X10915420Y-16224460D02*
X10896373Y-16233984D01*
X10896373Y-16233984D02*
X10858277Y-16233984D01*
X10858277Y-16233984D02*
X10839230Y-16224460D01*
X11048754Y-16233984D02*
X11029706Y-16224460D01*
X11029706Y-16224460D02*
X11020182Y-16205412D01*
X11020182Y-16205412D02*
X11020182Y-16033984D01*
X11210658Y-16233984D02*
X11210658Y-16129222D01*
X11210658Y-16129222D02*
X11201134Y-16110174D01*
X11201134Y-16110174D02*
X11182087Y-16100650D01*
X11182087Y-16100650D02*
X11143992Y-16100650D01*
X11143992Y-16100650D02*
X11124944Y-16110174D01*
X11210658Y-16224460D02*
X11191611Y-16233984D01*
X11191611Y-16233984D02*
X11143992Y-16233984D01*
X11143992Y-16233984D02*
X11124944Y-16224460D01*
X11124944Y-16224460D02*
X11115420Y-16205412D01*
X11115420Y-16205412D02*
X11115420Y-16186365D01*
X11115420Y-16186365D02*
X11124944Y-16167317D01*
X11124944Y-16167317D02*
X11143992Y-16157793D01*
X11143992Y-16157793D02*
X11191611Y-16157793D01*
X11191611Y-16157793D02*
X11210658Y-16148269D01*
X11277325Y-16100650D02*
X11353515Y-16100650D01*
X11305896Y-16033984D02*
X11305896Y-16205412D01*
X11305896Y-16205412D02*
X11315420Y-16224460D01*
X11315420Y-16224460D02*
X11334468Y-16233984D01*
X11334468Y-16233984D02*
X11353515Y-16233984D01*
X11496373Y-16224460D02*
X11477325Y-16233984D01*
X11477325Y-16233984D02*
X11439230Y-16233984D01*
X11439230Y-16233984D02*
X11420182Y-16224460D01*
X11420182Y-16224460D02*
X11410658Y-16205412D01*
X11410658Y-16205412D02*
X11410658Y-16129222D01*
X11410658Y-16129222D02*
X11420182Y-16110174D01*
X11420182Y-16110174D02*
X11439230Y-16100650D01*
X11439230Y-16100650D02*
X11477325Y-16100650D01*
X11477325Y-16100650D02*
X11496373Y-16110174D01*
X11496373Y-16110174D02*
X11505896Y-16129222D01*
X11505896Y-16129222D02*
X11505896Y-16148269D01*
X11505896Y-16148269D02*
X11410658Y-16167317D01*
X11677325Y-16233984D02*
X11677325Y-16033984D01*
X11677325Y-16224460D02*
X11658277Y-16233984D01*
X11658277Y-16233984D02*
X11620182Y-16233984D01*
X11620182Y-16233984D02*
X11601134Y-16224460D01*
X11601134Y-16224460D02*
X11591611Y-16214936D01*
X11591611Y-16214936D02*
X11582087Y-16195888D01*
X11582087Y-16195888D02*
X11582087Y-16138746D01*
X11582087Y-16138746D02*
X11591611Y-16119698D01*
X11591611Y-16119698D02*
X11601134Y-16110174D01*
X11601134Y-16110174D02*
X11620182Y-16100650D01*
X11620182Y-16100650D02*
X11658277Y-16100650D01*
X11658277Y-16100650D02*
X11677325Y-16110174D01*
X11753515Y-16310174D02*
X11763039Y-16300650D01*
X11763039Y-16300650D02*
X11782087Y-16272079D01*
X11782087Y-16272079D02*
X11791611Y-16253031D01*
X11791611Y-16253031D02*
X11801134Y-16224460D01*
X11801134Y-16224460D02*
X11810658Y-16176841D01*
X11810658Y-16176841D02*
X11810658Y-16138746D01*
X11810658Y-16138746D02*
X11801134Y-16091127D01*
X11801134Y-16091127D02*
X11791611Y-16062555D01*
X11791611Y-16062555D02*
X11782087Y-16043508D01*
X11782087Y-16043508D02*
X11763039Y-16014936D01*
X11763039Y-16014936D02*
X11753515Y-16005412D01*
D12*
X4997500Y-16406500D02*
G75*
G02*
X4897500Y-16406500I-50000J0D01*
G01*
X4897500Y-16406500D02*
G75*
G02*
X4997500Y-16406500I50000J0D01*
G01*
D11*
X5363039Y-16497984D02*
X5248753Y-16497984D01*
X5305896Y-16497984D02*
X5305896Y-16297984D01*
X5305896Y-16297984D02*
X5286848Y-16326555D01*
X5286848Y-16326555D02*
X5267801Y-16345603D01*
X5267801Y-16345603D02*
X5248753Y-16355127D01*
X5448753Y-16478936D02*
X5458277Y-16488460D01*
X5458277Y-16488460D02*
X5448753Y-16497984D01*
X5448753Y-16497984D02*
X5439229Y-16488460D01*
X5439229Y-16488460D02*
X5448753Y-16478936D01*
X5448753Y-16478936D02*
X5448753Y-16497984D01*
X5582086Y-16297984D02*
X5601134Y-16297984D01*
X5601134Y-16297984D02*
X5620182Y-16307508D01*
X5620182Y-16307508D02*
X5629705Y-16317031D01*
X5629705Y-16317031D02*
X5639229Y-16336079D01*
X5639229Y-16336079D02*
X5648753Y-16374174D01*
X5648753Y-16374174D02*
X5648753Y-16421793D01*
X5648753Y-16421793D02*
X5639229Y-16459888D01*
X5639229Y-16459888D02*
X5629705Y-16478936D01*
X5629705Y-16478936D02*
X5620182Y-16488460D01*
X5620182Y-16488460D02*
X5601134Y-16497984D01*
X5601134Y-16497984D02*
X5582086Y-16497984D01*
X5582086Y-16497984D02*
X5563039Y-16488460D01*
X5563039Y-16488460D02*
X5553515Y-16478936D01*
X5553515Y-16478936D02*
X5543991Y-16459888D01*
X5543991Y-16459888D02*
X5534467Y-16421793D01*
X5534467Y-16421793D02*
X5534467Y-16374174D01*
X5534467Y-16374174D02*
X5543991Y-16336079D01*
X5543991Y-16336079D02*
X5553515Y-16317031D01*
X5553515Y-16317031D02*
X5563039Y-16307508D01*
X5563039Y-16307508D02*
X5582086Y-16297984D01*
X5772562Y-16297984D02*
X5791610Y-16297984D01*
X5791610Y-16297984D02*
X5810658Y-16307508D01*
X5810658Y-16307508D02*
X5820182Y-16317031D01*
X5820182Y-16317031D02*
X5829705Y-16336079D01*
X5829705Y-16336079D02*
X5839229Y-16374174D01*
X5839229Y-16374174D02*
X5839229Y-16421793D01*
X5839229Y-16421793D02*
X5829705Y-16459888D01*
X5829705Y-16459888D02*
X5820182Y-16478936D01*
X5820182Y-16478936D02*
X5810658Y-16488460D01*
X5810658Y-16488460D02*
X5791610Y-16497984D01*
X5791610Y-16497984D02*
X5772562Y-16497984D01*
X5772562Y-16497984D02*
X5753515Y-16488460D01*
X5753515Y-16488460D02*
X5743991Y-16478936D01*
X5743991Y-16478936D02*
X5734467Y-16459888D01*
X5734467Y-16459888D02*
X5724943Y-16421793D01*
X5724943Y-16421793D02*
X5724943Y-16374174D01*
X5724943Y-16374174D02*
X5734467Y-16336079D01*
X5734467Y-16336079D02*
X5743991Y-16317031D01*
X5743991Y-16317031D02*
X5753515Y-16307508D01*
X5753515Y-16307508D02*
X5772562Y-16297984D01*
X5963039Y-16297984D02*
X5982086Y-16297984D01*
X5982086Y-16297984D02*
X6001134Y-16307508D01*
X6001134Y-16307508D02*
X6010658Y-16317031D01*
X6010658Y-16317031D02*
X6020182Y-16336079D01*
X6020182Y-16336079D02*
X6029705Y-16374174D01*
X6029705Y-16374174D02*
X6029705Y-16421793D01*
X6029705Y-16421793D02*
X6020182Y-16459888D01*
X6020182Y-16459888D02*
X6010658Y-16478936D01*
X6010658Y-16478936D02*
X6001134Y-16488460D01*
X6001134Y-16488460D02*
X5982086Y-16497984D01*
X5982086Y-16497984D02*
X5963039Y-16497984D01*
X5963039Y-16497984D02*
X5943991Y-16488460D01*
X5943991Y-16488460D02*
X5934467Y-16478936D01*
X5934467Y-16478936D02*
X5924943Y-16459888D01*
X5924943Y-16459888D02*
X5915420Y-16421793D01*
X5915420Y-16421793D02*
X5915420Y-16374174D01*
X5915420Y-16374174D02*
X5924943Y-16336079D01*
X5924943Y-16336079D02*
X5934467Y-16317031D01*
X5934467Y-16317031D02*
X5943991Y-16307508D01*
X5943991Y-16307508D02*
X5963039Y-16297984D01*
X6115420Y-16497984D02*
X6115420Y-16364650D01*
X6115420Y-16383698D02*
X6124943Y-16374174D01*
X6124943Y-16374174D02*
X6143991Y-16364650D01*
X6143991Y-16364650D02*
X6172563Y-16364650D01*
X6172563Y-16364650D02*
X6191610Y-16374174D01*
X6191610Y-16374174D02*
X6201134Y-16393222D01*
X6201134Y-16393222D02*
X6201134Y-16497984D01*
X6201134Y-16393222D02*
X6210658Y-16374174D01*
X6210658Y-16374174D02*
X6229705Y-16364650D01*
X6229705Y-16364650D02*
X6258277Y-16364650D01*
X6258277Y-16364650D02*
X6277324Y-16374174D01*
X6277324Y-16374174D02*
X6286848Y-16393222D01*
X6286848Y-16393222D02*
X6286848Y-16497984D01*
X6382086Y-16497984D02*
X6382086Y-16364650D01*
X6382086Y-16383698D02*
X6391610Y-16374174D01*
X6391610Y-16374174D02*
X6410658Y-16364650D01*
X6410658Y-16364650D02*
X6439229Y-16364650D01*
X6439229Y-16364650D02*
X6458277Y-16374174D01*
X6458277Y-16374174D02*
X6467801Y-16393222D01*
X6467801Y-16393222D02*
X6467801Y-16497984D01*
X6467801Y-16393222D02*
X6477324Y-16374174D01*
X6477324Y-16374174D02*
X6496372Y-16364650D01*
X6496372Y-16364650D02*
X6524943Y-16364650D01*
X6524943Y-16364650D02*
X6543991Y-16374174D01*
X6543991Y-16374174D02*
X6553515Y-16393222D01*
X6553515Y-16393222D02*
X6553515Y-16497984D01*
X6943991Y-16288460D02*
X6772563Y-16545603D01*
X7201134Y-16297984D02*
X7220182Y-16297984D01*
X7220182Y-16297984D02*
X7239229Y-16307508D01*
X7239229Y-16307508D02*
X7248753Y-16317031D01*
X7248753Y-16317031D02*
X7258277Y-16336079D01*
X7258277Y-16336079D02*
X7267801Y-16374174D01*
X7267801Y-16374174D02*
X7267801Y-16421793D01*
X7267801Y-16421793D02*
X7258277Y-16459888D01*
X7258277Y-16459888D02*
X7248753Y-16478936D01*
X7248753Y-16478936D02*
X7239229Y-16488460D01*
X7239229Y-16488460D02*
X7220182Y-16497984D01*
X7220182Y-16497984D02*
X7201134Y-16497984D01*
X7201134Y-16497984D02*
X7182086Y-16488460D01*
X7182086Y-16488460D02*
X7172563Y-16478936D01*
X7172563Y-16478936D02*
X7163039Y-16459888D01*
X7163039Y-16459888D02*
X7153515Y-16421793D01*
X7153515Y-16421793D02*
X7153515Y-16374174D01*
X7153515Y-16374174D02*
X7163039Y-16336079D01*
X7163039Y-16336079D02*
X7172563Y-16317031D01*
X7172563Y-16317031D02*
X7182086Y-16307508D01*
X7182086Y-16307508D02*
X7201134Y-16297984D01*
X7353515Y-16478936D02*
X7363039Y-16488460D01*
X7363039Y-16488460D02*
X7353515Y-16497984D01*
X7353515Y-16497984D02*
X7343991Y-16488460D01*
X7343991Y-16488460D02*
X7353515Y-16478936D01*
X7353515Y-16478936D02*
X7353515Y-16497984D01*
X7486848Y-16297984D02*
X7505896Y-16297984D01*
X7505896Y-16297984D02*
X7524944Y-16307508D01*
X7524944Y-16307508D02*
X7534467Y-16317031D01*
X7534467Y-16317031D02*
X7543991Y-16336079D01*
X7543991Y-16336079D02*
X7553515Y-16374174D01*
X7553515Y-16374174D02*
X7553515Y-16421793D01*
X7553515Y-16421793D02*
X7543991Y-16459888D01*
X7543991Y-16459888D02*
X7534467Y-16478936D01*
X7534467Y-16478936D02*
X7524944Y-16488460D01*
X7524944Y-16488460D02*
X7505896Y-16497984D01*
X7505896Y-16497984D02*
X7486848Y-16497984D01*
X7486848Y-16497984D02*
X7467801Y-16488460D01*
X7467801Y-16488460D02*
X7458277Y-16478936D01*
X7458277Y-16478936D02*
X7448753Y-16459888D01*
X7448753Y-16459888D02*
X7439229Y-16421793D01*
X7439229Y-16421793D02*
X7439229Y-16374174D01*
X7439229Y-16374174D02*
X7448753Y-16336079D01*
X7448753Y-16336079D02*
X7458277Y-16317031D01*
X7458277Y-16317031D02*
X7467801Y-16307508D01*
X7467801Y-16307508D02*
X7486848Y-16297984D01*
X7620182Y-16297984D02*
X7743991Y-16297984D01*
X7743991Y-16297984D02*
X7677325Y-16374174D01*
X7677325Y-16374174D02*
X7705896Y-16374174D01*
X7705896Y-16374174D02*
X7724944Y-16383698D01*
X7724944Y-16383698D02*
X7734467Y-16393222D01*
X7734467Y-16393222D02*
X7743991Y-16412269D01*
X7743991Y-16412269D02*
X7743991Y-16459888D01*
X7743991Y-16459888D02*
X7734467Y-16478936D01*
X7734467Y-16478936D02*
X7724944Y-16488460D01*
X7724944Y-16488460D02*
X7705896Y-16497984D01*
X7705896Y-16497984D02*
X7648753Y-16497984D01*
X7648753Y-16497984D02*
X7629706Y-16488460D01*
X7629706Y-16488460D02*
X7620182Y-16478936D01*
X7839229Y-16497984D02*
X7877325Y-16497984D01*
X7877325Y-16497984D02*
X7896372Y-16488460D01*
X7896372Y-16488460D02*
X7905896Y-16478936D01*
X7905896Y-16478936D02*
X7924944Y-16450365D01*
X7924944Y-16450365D02*
X7934467Y-16412269D01*
X7934467Y-16412269D02*
X7934467Y-16336079D01*
X7934467Y-16336079D02*
X7924944Y-16317031D01*
X7924944Y-16317031D02*
X7915420Y-16307508D01*
X7915420Y-16307508D02*
X7896372Y-16297984D01*
X7896372Y-16297984D02*
X7858277Y-16297984D01*
X7858277Y-16297984D02*
X7839229Y-16307508D01*
X7839229Y-16307508D02*
X7829706Y-16317031D01*
X7829706Y-16317031D02*
X7820182Y-16336079D01*
X7820182Y-16336079D02*
X7820182Y-16383698D01*
X7820182Y-16383698D02*
X7829706Y-16402746D01*
X7829706Y-16402746D02*
X7839229Y-16412269D01*
X7839229Y-16412269D02*
X7858277Y-16421793D01*
X7858277Y-16421793D02*
X7896372Y-16421793D01*
X7896372Y-16421793D02*
X7915420Y-16412269D01*
X7915420Y-16412269D02*
X7924944Y-16402746D01*
X7924944Y-16402746D02*
X7934467Y-16383698D01*
X8105896Y-16364650D02*
X8105896Y-16497984D01*
X8058277Y-16288460D02*
X8010658Y-16431317D01*
X8010658Y-16431317D02*
X8134467Y-16431317D01*
X8201134Y-16297984D02*
X8201134Y-16336079D01*
X8277325Y-16297984D02*
X8277325Y-16336079D01*
X8572563Y-16574174D02*
X8563039Y-16564650D01*
X8563039Y-16564650D02*
X8543991Y-16536079D01*
X8543991Y-16536079D02*
X8534468Y-16517031D01*
X8534468Y-16517031D02*
X8524944Y-16488460D01*
X8524944Y-16488460D02*
X8515420Y-16440841D01*
X8515420Y-16440841D02*
X8515420Y-16402746D01*
X8515420Y-16402746D02*
X8524944Y-16355127D01*
X8524944Y-16355127D02*
X8534468Y-16326555D01*
X8534468Y-16326555D02*
X8543991Y-16307508D01*
X8543991Y-16307508D02*
X8563039Y-16278936D01*
X8563039Y-16278936D02*
X8572563Y-16269412D01*
X8639230Y-16317031D02*
X8648753Y-16307508D01*
X8648753Y-16307508D02*
X8667801Y-16297984D01*
X8667801Y-16297984D02*
X8715420Y-16297984D01*
X8715420Y-16297984D02*
X8734468Y-16307508D01*
X8734468Y-16307508D02*
X8743991Y-16317031D01*
X8743991Y-16317031D02*
X8753515Y-16336079D01*
X8753515Y-16336079D02*
X8753515Y-16355127D01*
X8753515Y-16355127D02*
X8743991Y-16383698D01*
X8743991Y-16383698D02*
X8629706Y-16497984D01*
X8629706Y-16497984D02*
X8753515Y-16497984D01*
X8991611Y-16497984D02*
X8991611Y-16297984D01*
X9077325Y-16497984D02*
X9077325Y-16393222D01*
X9077325Y-16393222D02*
X9067801Y-16374174D01*
X9067801Y-16374174D02*
X9048753Y-16364650D01*
X9048753Y-16364650D02*
X9020182Y-16364650D01*
X9020182Y-16364650D02*
X9001134Y-16374174D01*
X9001134Y-16374174D02*
X8991611Y-16383698D01*
X9201134Y-16497984D02*
X9182087Y-16488460D01*
X9182087Y-16488460D02*
X9172563Y-16478936D01*
X9172563Y-16478936D02*
X9163039Y-16459888D01*
X9163039Y-16459888D02*
X9163039Y-16402746D01*
X9163039Y-16402746D02*
X9172563Y-16383698D01*
X9172563Y-16383698D02*
X9182087Y-16374174D01*
X9182087Y-16374174D02*
X9201134Y-16364650D01*
X9201134Y-16364650D02*
X9229706Y-16364650D01*
X9229706Y-16364650D02*
X9248753Y-16374174D01*
X9248753Y-16374174D02*
X9258277Y-16383698D01*
X9258277Y-16383698D02*
X9267801Y-16402746D01*
X9267801Y-16402746D02*
X9267801Y-16459888D01*
X9267801Y-16459888D02*
X9258277Y-16478936D01*
X9258277Y-16478936D02*
X9248753Y-16488460D01*
X9248753Y-16488460D02*
X9229706Y-16497984D01*
X9229706Y-16497984D02*
X9201134Y-16497984D01*
X9382087Y-16497984D02*
X9363039Y-16488460D01*
X9363039Y-16488460D02*
X9353515Y-16469412D01*
X9353515Y-16469412D02*
X9353515Y-16297984D01*
X9534468Y-16488460D02*
X9515420Y-16497984D01*
X9515420Y-16497984D02*
X9477325Y-16497984D01*
X9477325Y-16497984D02*
X9458277Y-16488460D01*
X9458277Y-16488460D02*
X9448753Y-16469412D01*
X9448753Y-16469412D02*
X9448753Y-16393222D01*
X9448753Y-16393222D02*
X9458277Y-16374174D01*
X9458277Y-16374174D02*
X9477325Y-16364650D01*
X9477325Y-16364650D02*
X9515420Y-16364650D01*
X9515420Y-16364650D02*
X9534468Y-16374174D01*
X9534468Y-16374174D02*
X9543992Y-16393222D01*
X9543992Y-16393222D02*
X9543992Y-16412269D01*
X9543992Y-16412269D02*
X9448753Y-16431317D01*
X9620182Y-16488460D02*
X9639230Y-16497984D01*
X9639230Y-16497984D02*
X9677325Y-16497984D01*
X9677325Y-16497984D02*
X9696373Y-16488460D01*
X9696373Y-16488460D02*
X9705896Y-16469412D01*
X9705896Y-16469412D02*
X9705896Y-16459888D01*
X9705896Y-16459888D02*
X9696373Y-16440841D01*
X9696373Y-16440841D02*
X9677325Y-16431317D01*
X9677325Y-16431317D02*
X9648753Y-16431317D01*
X9648753Y-16431317D02*
X9629706Y-16421793D01*
X9629706Y-16421793D02*
X9620182Y-16402746D01*
X9620182Y-16402746D02*
X9620182Y-16393222D01*
X9620182Y-16393222D02*
X9629706Y-16374174D01*
X9629706Y-16374174D02*
X9648753Y-16364650D01*
X9648753Y-16364650D02*
X9677325Y-16364650D01*
X9677325Y-16364650D02*
X9696373Y-16374174D01*
X9772563Y-16574174D02*
X9782087Y-16564650D01*
X9782087Y-16564650D02*
X9801134Y-16536079D01*
X9801134Y-16536079D02*
X9810658Y-16517031D01*
X9810658Y-16517031D02*
X9820182Y-16488460D01*
X9820182Y-16488460D02*
X9829706Y-16440841D01*
X9829706Y-16440841D02*
X9829706Y-16402746D01*
X9829706Y-16402746D02*
X9820182Y-16355127D01*
X9820182Y-16355127D02*
X9810658Y-16326555D01*
X9810658Y-16326555D02*
X9801134Y-16307508D01*
X9801134Y-16307508D02*
X9782087Y-16278936D01*
X9782087Y-16278936D02*
X9772563Y-16269412D01*
X10134468Y-16574174D02*
X10124944Y-16564650D01*
X10124944Y-16564650D02*
X10105896Y-16536079D01*
X10105896Y-16536079D02*
X10096373Y-16517031D01*
X10096373Y-16517031D02*
X10086849Y-16488460D01*
X10086849Y-16488460D02*
X10077325Y-16440841D01*
X10077325Y-16440841D02*
X10077325Y-16402746D01*
X10077325Y-16402746D02*
X10086849Y-16355127D01*
X10086849Y-16355127D02*
X10096373Y-16326555D01*
X10096373Y-16326555D02*
X10105896Y-16307508D01*
X10105896Y-16307508D02*
X10124944Y-16278936D01*
X10124944Y-16278936D02*
X10134468Y-16269412D01*
X10210658Y-16364650D02*
X10210658Y-16497984D01*
X10210658Y-16383698D02*
X10220182Y-16374174D01*
X10220182Y-16374174D02*
X10239230Y-16364650D01*
X10239230Y-16364650D02*
X10267801Y-16364650D01*
X10267801Y-16364650D02*
X10286849Y-16374174D01*
X10286849Y-16374174D02*
X10296373Y-16393222D01*
X10296373Y-16393222D02*
X10296373Y-16497984D01*
X10420182Y-16497984D02*
X10401134Y-16488460D01*
X10401134Y-16488460D02*
X10391611Y-16478936D01*
X10391611Y-16478936D02*
X10382087Y-16459888D01*
X10382087Y-16459888D02*
X10382087Y-16402746D01*
X10382087Y-16402746D02*
X10391611Y-16383698D01*
X10391611Y-16383698D02*
X10401134Y-16374174D01*
X10401134Y-16374174D02*
X10420182Y-16364650D01*
X10420182Y-16364650D02*
X10448754Y-16364650D01*
X10448754Y-16364650D02*
X10467801Y-16374174D01*
X10467801Y-16374174D02*
X10477325Y-16383698D01*
X10477325Y-16383698D02*
X10486849Y-16402746D01*
X10486849Y-16402746D02*
X10486849Y-16459888D01*
X10486849Y-16459888D02*
X10477325Y-16478936D01*
X10477325Y-16478936D02*
X10467801Y-16488460D01*
X10467801Y-16488460D02*
X10448754Y-16497984D01*
X10448754Y-16497984D02*
X10420182Y-16497984D01*
X10543992Y-16364650D02*
X10620182Y-16364650D01*
X10572563Y-16297984D02*
X10572563Y-16469412D01*
X10572563Y-16469412D02*
X10582087Y-16488460D01*
X10582087Y-16488460D02*
X10601134Y-16497984D01*
X10601134Y-16497984D02*
X10620182Y-16497984D01*
X10839230Y-16364650D02*
X10839230Y-16564650D01*
X10839230Y-16374174D02*
X10858277Y-16364650D01*
X10858277Y-16364650D02*
X10896373Y-16364650D01*
X10896373Y-16364650D02*
X10915420Y-16374174D01*
X10915420Y-16374174D02*
X10924944Y-16383698D01*
X10924944Y-16383698D02*
X10934468Y-16402746D01*
X10934468Y-16402746D02*
X10934468Y-16459888D01*
X10934468Y-16459888D02*
X10924944Y-16478936D01*
X10924944Y-16478936D02*
X10915420Y-16488460D01*
X10915420Y-16488460D02*
X10896373Y-16497984D01*
X10896373Y-16497984D02*
X10858277Y-16497984D01*
X10858277Y-16497984D02*
X10839230Y-16488460D01*
X11048754Y-16497984D02*
X11029706Y-16488460D01*
X11029706Y-16488460D02*
X11020182Y-16469412D01*
X11020182Y-16469412D02*
X11020182Y-16297984D01*
X11210658Y-16497984D02*
X11210658Y-16393222D01*
X11210658Y-16393222D02*
X11201134Y-16374174D01*
X11201134Y-16374174D02*
X11182087Y-16364650D01*
X11182087Y-16364650D02*
X11143992Y-16364650D01*
X11143992Y-16364650D02*
X11124944Y-16374174D01*
X11210658Y-16488460D02*
X11191611Y-16497984D01*
X11191611Y-16497984D02*
X11143992Y-16497984D01*
X11143992Y-16497984D02*
X11124944Y-16488460D01*
X11124944Y-16488460D02*
X11115420Y-16469412D01*
X11115420Y-16469412D02*
X11115420Y-16450365D01*
X11115420Y-16450365D02*
X11124944Y-16431317D01*
X11124944Y-16431317D02*
X11143992Y-16421793D01*
X11143992Y-16421793D02*
X11191611Y-16421793D01*
X11191611Y-16421793D02*
X11210658Y-16412269D01*
X11277325Y-16364650D02*
X11353515Y-16364650D01*
X11305896Y-16297984D02*
X11305896Y-16469412D01*
X11305896Y-16469412D02*
X11315420Y-16488460D01*
X11315420Y-16488460D02*
X11334468Y-16497984D01*
X11334468Y-16497984D02*
X11353515Y-16497984D01*
X11496373Y-16488460D02*
X11477325Y-16497984D01*
X11477325Y-16497984D02*
X11439230Y-16497984D01*
X11439230Y-16497984D02*
X11420182Y-16488460D01*
X11420182Y-16488460D02*
X11410658Y-16469412D01*
X11410658Y-16469412D02*
X11410658Y-16393222D01*
X11410658Y-16393222D02*
X11420182Y-16374174D01*
X11420182Y-16374174D02*
X11439230Y-16364650D01*
X11439230Y-16364650D02*
X11477325Y-16364650D01*
X11477325Y-16364650D02*
X11496373Y-16374174D01*
X11496373Y-16374174D02*
X11505896Y-16393222D01*
X11505896Y-16393222D02*
X11505896Y-16412269D01*
X11505896Y-16412269D02*
X11410658Y-16431317D01*
X11677325Y-16497984D02*
X11677325Y-16297984D01*
X11677325Y-16488460D02*
X11658277Y-16497984D01*
X11658277Y-16497984D02*
X11620182Y-16497984D01*
X11620182Y-16497984D02*
X11601134Y-16488460D01*
X11601134Y-16488460D02*
X11591611Y-16478936D01*
X11591611Y-16478936D02*
X11582087Y-16459888D01*
X11582087Y-16459888D02*
X11582087Y-16402746D01*
X11582087Y-16402746D02*
X11591611Y-16383698D01*
X11591611Y-16383698D02*
X11601134Y-16374174D01*
X11601134Y-16374174D02*
X11620182Y-16364650D01*
X11620182Y-16364650D02*
X11658277Y-16364650D01*
X11658277Y-16364650D02*
X11677325Y-16374174D01*
X11753515Y-16574174D02*
X11763039Y-16564650D01*
X11763039Y-16564650D02*
X11782087Y-16536079D01*
X11782087Y-16536079D02*
X11791611Y-16517031D01*
X11791611Y-16517031D02*
X11801134Y-16488460D01*
X11801134Y-16488460D02*
X11810658Y-16440841D01*
X11810658Y-16440841D02*
X11810658Y-16402746D01*
X11810658Y-16402746D02*
X11801134Y-16355127D01*
X11801134Y-16355127D02*
X11791611Y-16326555D01*
X11791611Y-16326555D02*
X11782087Y-16307508D01*
X11782087Y-16307508D02*
X11763039Y-16278936D01*
X11763039Y-16278936D02*
X11753515Y-16269412D01*
M02*
