%TF.GenerationSoftware,KiCad,Pcbnew,8.0.8*%
%TF.CreationDate,2025-02-03T08:16:10-08:00*%
%TF.ProjectId,ES-Seed3-DevKit-Pedal-Rev1,45532d53-6565-4643-932d-4465764b6974,rev?*%
%TF.SameCoordinates,Original*%
%TF.FileFunction,Legend,Bot*%
%TF.FilePolarity,Positive*%
%FSLAX46Y46*%
G04 Gerber Fmt 4.6, Leading zero omitted, Abs format (unit mm)*
G04 Created by KiCad (PCBNEW 8.0.8) date 2025-02-03 08:16:10*
%MOMM*%
%LPD*%
G01*
G04 APERTURE LIST*
%ADD10C,0.300000*%
%ADD11C,0.101600*%
%ADD12C,0.203200*%
%ADD13C,0.127000*%
%ADD14C,0.152400*%
%ADD15C,0.010000*%
G04 APERTURE END LIST*
D10*
X233538346Y-59400828D02*
X234038346Y-58686542D01*
X234395489Y-59400828D02*
X234395489Y-57900828D01*
X234395489Y-57900828D02*
X233824060Y-57900828D01*
X233824060Y-57900828D02*
X233681203Y-57972257D01*
X233681203Y-57972257D02*
X233609774Y-58043685D01*
X233609774Y-58043685D02*
X233538346Y-58186542D01*
X233538346Y-58186542D02*
X233538346Y-58400828D01*
X233538346Y-58400828D02*
X233609774Y-58543685D01*
X233609774Y-58543685D02*
X233681203Y-58615114D01*
X233681203Y-58615114D02*
X233824060Y-58686542D01*
X233824060Y-58686542D02*
X234395489Y-58686542D01*
X232324060Y-59329400D02*
X232466917Y-59400828D01*
X232466917Y-59400828D02*
X232752632Y-59400828D01*
X232752632Y-59400828D02*
X232895489Y-59329400D01*
X232895489Y-59329400D02*
X232966917Y-59186542D01*
X232966917Y-59186542D02*
X232966917Y-58615114D01*
X232966917Y-58615114D02*
X232895489Y-58472257D01*
X232895489Y-58472257D02*
X232752632Y-58400828D01*
X232752632Y-58400828D02*
X232466917Y-58400828D01*
X232466917Y-58400828D02*
X232324060Y-58472257D01*
X232324060Y-58472257D02*
X232252632Y-58615114D01*
X232252632Y-58615114D02*
X232252632Y-58757971D01*
X232252632Y-58757971D02*
X232966917Y-58900828D01*
X231752632Y-58400828D02*
X231395489Y-59400828D01*
X231395489Y-59400828D02*
X231038346Y-58400828D01*
X229681203Y-59400828D02*
X230538346Y-59400828D01*
X230109775Y-59400828D02*
X230109775Y-57900828D01*
X230109775Y-57900828D02*
X230252632Y-58115114D01*
X230252632Y-58115114D02*
X230395489Y-58257971D01*
X230395489Y-58257971D02*
X230538346Y-58329400D01*
D11*
%TO.C,SW4*%
X150506800Y-142739400D02*
G75*
G02*
X146990800Y-142739400I-1758000J0D01*
G01*
X146990800Y-142739400D02*
G75*
G02*
X150506800Y-142739400I1758000J0D01*
G01*
X150506800Y-147260600D02*
G75*
G02*
X146990800Y-147260600I-1758000J0D01*
G01*
X146990800Y-147260600D02*
G75*
G02*
X150506800Y-147260600I1758000J0D01*
G01*
X157009200Y-142739400D02*
G75*
G02*
X153493200Y-142739400I-1758000J0D01*
G01*
X153493200Y-142739400D02*
G75*
G02*
X157009200Y-142739400I1758000J0D01*
G01*
X157009200Y-147260600D02*
G75*
G02*
X153493200Y-147260600I-1758000J0D01*
G01*
X153493200Y-147260600D02*
G75*
G02*
X157009200Y-147260600I1758000J0D01*
G01*
D12*
%TO.C,J5*%
X63656100Y-59703600D02*
G75*
G02*
X59846100Y-59703600I-1905000J0D01*
G01*
X59846100Y-59703600D02*
G75*
G02*
X63656100Y-59703600I1905000J0D01*
G01*
X63656100Y-66003600D02*
G75*
G02*
X59846100Y-66003600I-1905000J0D01*
G01*
X59846100Y-66003600D02*
G75*
G02*
X63656100Y-66003600I1905000J0D01*
G01*
X63656100Y-72303600D02*
G75*
G02*
X59846100Y-72303600I-1905000J0D01*
G01*
X59846100Y-72303600D02*
G75*
G02*
X63656100Y-72303600I1905000J0D01*
G01*
X80156100Y-59703600D02*
G75*
G02*
X76346100Y-59703600I-1905000J0D01*
G01*
X76346100Y-59703600D02*
G75*
G02*
X80156100Y-59703600I1905000J0D01*
G01*
X80156100Y-66003600D02*
G75*
G02*
X76346100Y-66003600I-1905000J0D01*
G01*
X76346100Y-66003600D02*
G75*
G02*
X80156100Y-66003600I1905000J0D01*
G01*
X80156100Y-72303600D02*
G75*
G02*
X76346100Y-72303600I-1905000J0D01*
G01*
X76346100Y-72303600D02*
G75*
G02*
X80156100Y-72303600I1905000J0D01*
G01*
D13*
%TO.C,J11*%
X233914212Y-72500000D02*
G75*
G02*
X231085788Y-72500000I-1414212J0D01*
G01*
X231085788Y-72500000D02*
G75*
G02*
X233914212Y-72500000I1414212J0D01*
G01*
X233914212Y-82500000D02*
G75*
G02*
X231085788Y-82500000I-1414212J0D01*
G01*
X231085788Y-82500000D02*
G75*
G02*
X233914212Y-82500000I1414212J0D01*
G01*
X236414212Y-70000000D02*
G75*
G02*
X233585788Y-70000000I-1414212J0D01*
G01*
X233585788Y-70000000D02*
G75*
G02*
X236414212Y-70000000I1414212J0D01*
G01*
X236414212Y-77500000D02*
G75*
G02*
X233585788Y-77500000I-1414212J0D01*
G01*
X233585788Y-77500000D02*
G75*
G02*
X236414212Y-77500000I1414212J0D01*
G01*
X236414212Y-85000000D02*
G75*
G02*
X233585788Y-85000000I-1414212J0D01*
G01*
X233585788Y-85000000D02*
G75*
G02*
X236414212Y-85000000I1414212J0D01*
G01*
X242150000Y-70000000D02*
G75*
G02*
X237850000Y-70000000I-2150000J0D01*
G01*
X237850000Y-70000000D02*
G75*
G02*
X242150000Y-70000000I2150000J0D01*
G01*
X242150000Y-85000000D02*
G75*
G02*
X237850000Y-85000000I-2150000J0D01*
G01*
X237850000Y-85000000D02*
G75*
G02*
X242150000Y-85000000I2150000J0D01*
G01*
X246414212Y-75000000D02*
G75*
G02*
X243585788Y-75000000I-1414212J0D01*
G01*
X243585788Y-75000000D02*
G75*
G02*
X246414212Y-75000000I1414212J0D01*
G01*
X246414212Y-80000000D02*
G75*
G02*
X243585788Y-80000000I-1414212J0D01*
G01*
X243585788Y-80000000D02*
G75*
G02*
X246414212Y-80000000I1414212J0D01*
G01*
%TO.C,VR3*%
X203800000Y-101000000D02*
G75*
G02*
X199200000Y-101000000I-2300000J0D01*
G01*
X199200000Y-101000000D02*
G75*
G02*
X203800000Y-101000000I2300000J0D01*
G01*
X205300000Y-108000000D02*
G75*
G02*
X201700000Y-108000000I-1800000J0D01*
G01*
X201700000Y-108000000D02*
G75*
G02*
X205300000Y-108000000I1800000J0D01*
G01*
X207800000Y-108000000D02*
G75*
G02*
X204200000Y-108000000I-1800000J0D01*
G01*
X204200000Y-108000000D02*
G75*
G02*
X207800000Y-108000000I1800000J0D01*
G01*
X210300000Y-108000000D02*
G75*
G02*
X206700000Y-108000000I-1800000J0D01*
G01*
X206700000Y-108000000D02*
G75*
G02*
X210300000Y-108000000I1800000J0D01*
G01*
X212800000Y-101000000D02*
G75*
G02*
X208200000Y-101000000I-2300000J0D01*
G01*
X208200000Y-101000000D02*
G75*
G02*
X212800000Y-101000000I2300000J0D01*
G01*
%TO.C,VR5*%
X185800000Y-125000000D02*
G75*
G02*
X181200000Y-125000000I-2300000J0D01*
G01*
X181200000Y-125000000D02*
G75*
G02*
X185800000Y-125000000I2300000J0D01*
G01*
X187300000Y-132000000D02*
G75*
G02*
X183700000Y-132000000I-1800000J0D01*
G01*
X183700000Y-132000000D02*
G75*
G02*
X187300000Y-132000000I1800000J0D01*
G01*
X189800000Y-132000000D02*
G75*
G02*
X186200000Y-132000000I-1800000J0D01*
G01*
X186200000Y-132000000D02*
G75*
G02*
X189800000Y-132000000I1800000J0D01*
G01*
X192300000Y-132000000D02*
G75*
G02*
X188700000Y-132000000I-1800000J0D01*
G01*
X188700000Y-132000000D02*
G75*
G02*
X192300000Y-132000000I1800000J0D01*
G01*
X194800000Y-125000000D02*
G75*
G02*
X190200000Y-125000000I-2300000J0D01*
G01*
X190200000Y-125000000D02*
G75*
G02*
X194800000Y-125000000I2300000J0D01*
G01*
D12*
%TO.C,J2*%
X138656100Y-59703600D02*
G75*
G02*
X134846100Y-59703600I-1905000J0D01*
G01*
X134846100Y-59703600D02*
G75*
G02*
X138656100Y-59703600I1905000J0D01*
G01*
X138656100Y-66003600D02*
G75*
G02*
X134846100Y-66003600I-1905000J0D01*
G01*
X134846100Y-66003600D02*
G75*
G02*
X138656100Y-66003600I1905000J0D01*
G01*
X138656100Y-72303600D02*
G75*
G02*
X134846100Y-72303600I-1905000J0D01*
G01*
X134846100Y-72303600D02*
G75*
G02*
X138656100Y-72303600I1905000J0D01*
G01*
X155156100Y-59703600D02*
G75*
G02*
X151346100Y-59703600I-1905000J0D01*
G01*
X151346100Y-59703600D02*
G75*
G02*
X155156100Y-59703600I1905000J0D01*
G01*
X155156100Y-66003600D02*
G75*
G02*
X151346100Y-66003600I-1905000J0D01*
G01*
X151346100Y-66003600D02*
G75*
G02*
X155156100Y-66003600I1905000J0D01*
G01*
X155156100Y-72303600D02*
G75*
G02*
X151346100Y-72303600I-1905000J0D01*
G01*
X151346100Y-72303600D02*
G75*
G02*
X155156100Y-72303600I1905000J0D01*
G01*
D11*
%TO.C,SW2*%
X98000000Y-145000000D02*
G75*
G02*
X92920000Y-145000000I-2540000J0D01*
G01*
X92920000Y-145000000D02*
G75*
G02*
X98000000Y-145000000I2540000J0D01*
G01*
X100540000Y-145000000D02*
G75*
G02*
X95460000Y-145000000I-2540000J0D01*
G01*
X95460000Y-145000000D02*
G75*
G02*
X100540000Y-145000000I2540000J0D01*
G01*
X103080000Y-145000000D02*
G75*
G02*
X98000000Y-145000000I-2540000J0D01*
G01*
X98000000Y-145000000D02*
G75*
G02*
X103080000Y-145000000I2540000J0D01*
G01*
%TO.C,SW3*%
X132506800Y-142739400D02*
G75*
G02*
X128990800Y-142739400I-1758000J0D01*
G01*
X128990800Y-142739400D02*
G75*
G02*
X132506800Y-142739400I1758000J0D01*
G01*
X132506800Y-147260600D02*
G75*
G02*
X128990800Y-147260600I-1758000J0D01*
G01*
X128990800Y-147260600D02*
G75*
G02*
X132506800Y-147260600I1758000J0D01*
G01*
X139009200Y-142739400D02*
G75*
G02*
X135493200Y-142739400I-1758000J0D01*
G01*
X135493200Y-142739400D02*
G75*
G02*
X139009200Y-142739400I1758000J0D01*
G01*
X139009200Y-147260600D02*
G75*
G02*
X135493200Y-147260600I-1758000J0D01*
G01*
X135493200Y-147260600D02*
G75*
G02*
X139009200Y-147260600I1758000J0D01*
G01*
D13*
%TO.C,VR1*%
X167800000Y-101000000D02*
G75*
G02*
X163200000Y-101000000I-2300000J0D01*
G01*
X163200000Y-101000000D02*
G75*
G02*
X167800000Y-101000000I2300000J0D01*
G01*
X169300000Y-108000000D02*
G75*
G02*
X165700000Y-108000000I-1800000J0D01*
G01*
X165700000Y-108000000D02*
G75*
G02*
X169300000Y-108000000I1800000J0D01*
G01*
X171800000Y-108000000D02*
G75*
G02*
X168200000Y-108000000I-1800000J0D01*
G01*
X168200000Y-108000000D02*
G75*
G02*
X171800000Y-108000000I1800000J0D01*
G01*
X174300000Y-108000000D02*
G75*
G02*
X170700000Y-108000000I-1800000J0D01*
G01*
X170700000Y-108000000D02*
G75*
G02*
X174300000Y-108000000I1800000J0D01*
G01*
X176800000Y-101000000D02*
G75*
G02*
X172200000Y-101000000I-2300000J0D01*
G01*
X172200000Y-101000000D02*
G75*
G02*
X176800000Y-101000000I2300000J0D01*
G01*
%TO.C,VR4*%
X167800000Y-125000000D02*
G75*
G02*
X163200000Y-125000000I-2300000J0D01*
G01*
X163200000Y-125000000D02*
G75*
G02*
X167800000Y-125000000I2300000J0D01*
G01*
X169300000Y-132000000D02*
G75*
G02*
X165700000Y-132000000I-1800000J0D01*
G01*
X165700000Y-132000000D02*
G75*
G02*
X169300000Y-132000000I1800000J0D01*
G01*
X171800000Y-132000000D02*
G75*
G02*
X168200000Y-132000000I-1800000J0D01*
G01*
X168200000Y-132000000D02*
G75*
G02*
X171800000Y-132000000I1800000J0D01*
G01*
X174300000Y-132000000D02*
G75*
G02*
X170700000Y-132000000I-1800000J0D01*
G01*
X170700000Y-132000000D02*
G75*
G02*
X174300000Y-132000000I1800000J0D01*
G01*
X176800000Y-125000000D02*
G75*
G02*
X172200000Y-125000000I-2300000J0D01*
G01*
X172200000Y-125000000D02*
G75*
G02*
X176800000Y-125000000I2300000J0D01*
G01*
D12*
%TO.C,J6*%
X206656100Y-59703600D02*
G75*
G02*
X202846100Y-59703600I-1905000J0D01*
G01*
X202846100Y-59703600D02*
G75*
G02*
X206656100Y-59703600I1905000J0D01*
G01*
X206656100Y-66003600D02*
G75*
G02*
X202846100Y-66003600I-1905000J0D01*
G01*
X202846100Y-66003600D02*
G75*
G02*
X206656100Y-66003600I1905000J0D01*
G01*
X206656100Y-72303600D02*
G75*
G02*
X202846100Y-72303600I-1905000J0D01*
G01*
X202846100Y-72303600D02*
G75*
G02*
X206656100Y-72303600I1905000J0D01*
G01*
X223156100Y-59703600D02*
G75*
G02*
X219346100Y-59703600I-1905000J0D01*
G01*
X219346100Y-59703600D02*
G75*
G02*
X223156100Y-59703600I1905000J0D01*
G01*
X223156100Y-66003600D02*
G75*
G02*
X219346100Y-66003600I-1905000J0D01*
G01*
X219346100Y-66003600D02*
G75*
G02*
X223156100Y-66003600I1905000J0D01*
G01*
X223156100Y-72303600D02*
G75*
G02*
X219346100Y-72303600I-1905000J0D01*
G01*
X219346100Y-72303600D02*
G75*
G02*
X223156100Y-72303600I1905000J0D01*
G01*
D14*
%TO.C,FSW_1*%
X167618750Y-144179013D02*
X167618750Y-145820987D01*
X169841250Y-145881150D02*
X169841250Y-144233488D01*
X170158750Y-144179013D02*
X170158750Y-145820987D01*
X172381250Y-145881150D02*
X172381250Y-144233488D01*
X167618750Y-144179013D02*
G75*
G02*
X168702763Y-143095000I1084013J0D01*
G01*
X168702762Y-143095000D02*
G75*
G02*
X169841250Y-144233488I1J-1138487D01*
G01*
X168702763Y-146905000D02*
G75*
G02*
X167618750Y-145820987I0J1084013D01*
G01*
X169841251Y-145881149D02*
G75*
G02*
X168817400Y-146905000I-1023851J0D01*
G01*
X170158749Y-144179013D02*
G75*
G02*
X171242762Y-143095000I1084013J0D01*
G01*
X171242762Y-143095000D02*
G75*
G02*
X172381250Y-144233488I-2J-1138490D01*
G01*
X171242762Y-146904999D02*
G75*
G02*
X170158751Y-145820987I-2J1084009D01*
G01*
X172381250Y-145881148D02*
G75*
G02*
X171357400Y-146905000I-1023850J-2D01*
G01*
D13*
%TO.C,VR6*%
X203800000Y-125000000D02*
G75*
G02*
X199200000Y-125000000I-2300000J0D01*
G01*
X199200000Y-125000000D02*
G75*
G02*
X203800000Y-125000000I2300000J0D01*
G01*
X205300000Y-132000000D02*
G75*
G02*
X201700000Y-132000000I-1800000J0D01*
G01*
X201700000Y-132000000D02*
G75*
G02*
X205300000Y-132000000I1800000J0D01*
G01*
X207800000Y-132000000D02*
G75*
G02*
X204200000Y-132000000I-1800000J0D01*
G01*
X204200000Y-132000000D02*
G75*
G02*
X207800000Y-132000000I1800000J0D01*
G01*
X210300000Y-132000000D02*
G75*
G02*
X206700000Y-132000000I-1800000J0D01*
G01*
X206700000Y-132000000D02*
G75*
G02*
X210300000Y-132000000I1800000J0D01*
G01*
X212800000Y-125000000D02*
G75*
G02*
X208200000Y-125000000I-2300000J0D01*
G01*
X208200000Y-125000000D02*
G75*
G02*
X212800000Y-125000000I2300000J0D01*
G01*
D12*
%TO.C,J3*%
X88656100Y-59703600D02*
G75*
G02*
X84846100Y-59703600I-1905000J0D01*
G01*
X84846100Y-59703600D02*
G75*
G02*
X88656100Y-59703600I1905000J0D01*
G01*
X88656100Y-66003600D02*
G75*
G02*
X84846100Y-66003600I-1905000J0D01*
G01*
X84846100Y-66003600D02*
G75*
G02*
X88656100Y-66003600I1905000J0D01*
G01*
X88656100Y-72303600D02*
G75*
G02*
X84846100Y-72303600I-1905000J0D01*
G01*
X84846100Y-72303600D02*
G75*
G02*
X88656100Y-72303600I1905000J0D01*
G01*
X105156100Y-59703600D02*
G75*
G02*
X101346100Y-59703600I-1905000J0D01*
G01*
X101346100Y-59703600D02*
G75*
G02*
X105156100Y-59703600I1905000J0D01*
G01*
X105156100Y-66003600D02*
G75*
G02*
X101346100Y-66003600I-1905000J0D01*
G01*
X101346100Y-66003600D02*
G75*
G02*
X105156100Y-66003600I1905000J0D01*
G01*
X105156100Y-72303600D02*
G75*
G02*
X101346100Y-72303600I-1905000J0D01*
G01*
X101346100Y-72303600D02*
G75*
G02*
X105156100Y-72303600I1905000J0D01*
G01*
D11*
%TO.C,SW1*%
X80000000Y-145000000D02*
G75*
G02*
X74920000Y-145000000I-2540000J0D01*
G01*
X74920000Y-145000000D02*
G75*
G02*
X80000000Y-145000000I2540000J0D01*
G01*
X82540000Y-145000000D02*
G75*
G02*
X77460000Y-145000000I-2540000J0D01*
G01*
X77460000Y-145000000D02*
G75*
G02*
X82540000Y-145000000I2540000J0D01*
G01*
X85080000Y-145000000D02*
G75*
G02*
X80000000Y-145000000I-2540000J0D01*
G01*
X80000000Y-145000000D02*
G75*
G02*
X85080000Y-145000000I2540000J0D01*
G01*
D14*
%TO.C,FSW_2*%
X185618750Y-144179013D02*
X185618750Y-145820987D01*
X187841250Y-145881150D02*
X187841250Y-144233488D01*
X188158750Y-144179013D02*
X188158750Y-145820987D01*
X190381250Y-145881150D02*
X190381250Y-144233488D01*
X185618750Y-144179013D02*
G75*
G02*
X186702763Y-143095000I1084013J0D01*
G01*
X186702762Y-143095000D02*
G75*
G02*
X187841250Y-144233488I1J-1138487D01*
G01*
X186702763Y-146905000D02*
G75*
G02*
X185618750Y-145820987I0J1084013D01*
G01*
X187841251Y-145881149D02*
G75*
G02*
X186817400Y-146905000I-1023851J0D01*
G01*
X188158749Y-144179013D02*
G75*
G02*
X189242762Y-143095000I1084013J0D01*
G01*
X189242762Y-143095000D02*
G75*
G02*
X190381250Y-144233488I-2J-1138490D01*
G01*
X189242762Y-146904999D02*
G75*
G02*
X188158751Y-145820987I-2J1084009D01*
G01*
X190381250Y-145881148D02*
G75*
G02*
X189357400Y-146905000I-1023850J-2D01*
G01*
D11*
%TO.C,SW6*%
X116000000Y-145000000D02*
G75*
G02*
X110920000Y-145000000I-2540000J0D01*
G01*
X110920000Y-145000000D02*
G75*
G02*
X116000000Y-145000000I2540000J0D01*
G01*
X118540000Y-145000000D02*
G75*
G02*
X113460000Y-145000000I-2540000J0D01*
G01*
X113460000Y-145000000D02*
G75*
G02*
X118540000Y-145000000I2540000J0D01*
G01*
X121080000Y-145000000D02*
G75*
G02*
X116000000Y-145000000I-2540000J0D01*
G01*
X116000000Y-145000000D02*
G75*
G02*
X121080000Y-145000000I2540000J0D01*
G01*
D13*
%TO.C,J1*%
X233914212Y-95000000D02*
G75*
G02*
X231085788Y-95000000I-1414212J0D01*
G01*
X231085788Y-95000000D02*
G75*
G02*
X233914212Y-95000000I1414212J0D01*
G01*
X233914212Y-105000000D02*
G75*
G02*
X231085788Y-105000000I-1414212J0D01*
G01*
X231085788Y-105000000D02*
G75*
G02*
X233914212Y-105000000I1414212J0D01*
G01*
X236414212Y-92500000D02*
G75*
G02*
X233585788Y-92500000I-1414212J0D01*
G01*
X233585788Y-92500000D02*
G75*
G02*
X236414212Y-92500000I1414212J0D01*
G01*
X236414212Y-100000000D02*
G75*
G02*
X233585788Y-100000000I-1414212J0D01*
G01*
X233585788Y-100000000D02*
G75*
G02*
X236414212Y-100000000I1414212J0D01*
G01*
X236414212Y-107500000D02*
G75*
G02*
X233585788Y-107500000I-1414212J0D01*
G01*
X233585788Y-107500000D02*
G75*
G02*
X236414212Y-107500000I1414212J0D01*
G01*
X242150000Y-92500000D02*
G75*
G02*
X237850000Y-92500000I-2150000J0D01*
G01*
X237850000Y-92500000D02*
G75*
G02*
X242150000Y-92500000I2150000J0D01*
G01*
X242150000Y-107500000D02*
G75*
G02*
X237850000Y-107500000I-2150000J0D01*
G01*
X237850000Y-107500000D02*
G75*
G02*
X242150000Y-107500000I2150000J0D01*
G01*
X246414212Y-97500000D02*
G75*
G02*
X243585788Y-97500000I-1414212J0D01*
G01*
X243585788Y-97500000D02*
G75*
G02*
X246414212Y-97500000I1414212J0D01*
G01*
X246414212Y-102500000D02*
G75*
G02*
X243585788Y-102500000I-1414212J0D01*
G01*
X243585788Y-102500000D02*
G75*
G02*
X246414212Y-102500000I1414212J0D01*
G01*
D12*
%TO.C,J4*%
X113656100Y-59703600D02*
G75*
G02*
X109846100Y-59703600I-1905000J0D01*
G01*
X109846100Y-59703600D02*
G75*
G02*
X113656100Y-59703600I1905000J0D01*
G01*
X113656100Y-66003600D02*
G75*
G02*
X109846100Y-66003600I-1905000J0D01*
G01*
X109846100Y-66003600D02*
G75*
G02*
X113656100Y-66003600I1905000J0D01*
G01*
X113656100Y-72303600D02*
G75*
G02*
X109846100Y-72303600I-1905000J0D01*
G01*
X109846100Y-72303600D02*
G75*
G02*
X113656100Y-72303600I1905000J0D01*
G01*
X130156100Y-59703600D02*
G75*
G02*
X126346100Y-59703600I-1905000J0D01*
G01*
X126346100Y-59703600D02*
G75*
G02*
X130156100Y-59703600I1905000J0D01*
G01*
X130156100Y-66003600D02*
G75*
G02*
X126346100Y-66003600I-1905000J0D01*
G01*
X126346100Y-66003600D02*
G75*
G02*
X130156100Y-66003600I1905000J0D01*
G01*
X130156100Y-72303600D02*
G75*
G02*
X126346100Y-72303600I-1905000J0D01*
G01*
X126346100Y-72303600D02*
G75*
G02*
X130156100Y-72303600I1905000J0D01*
G01*
D13*
%TO.C,J10*%
X233914212Y-117500000D02*
G75*
G02*
X231085788Y-117500000I-1414212J0D01*
G01*
X231085788Y-117500000D02*
G75*
G02*
X233914212Y-117500000I1414212J0D01*
G01*
X233914212Y-127500000D02*
G75*
G02*
X231085788Y-127500000I-1414212J0D01*
G01*
X231085788Y-127500000D02*
G75*
G02*
X233914212Y-127500000I1414212J0D01*
G01*
X236414212Y-115000000D02*
G75*
G02*
X233585788Y-115000000I-1414212J0D01*
G01*
X233585788Y-115000000D02*
G75*
G02*
X236414212Y-115000000I1414212J0D01*
G01*
X236414212Y-122500000D02*
G75*
G02*
X233585788Y-122500000I-1414212J0D01*
G01*
X233585788Y-122500000D02*
G75*
G02*
X236414212Y-122500000I1414212J0D01*
G01*
X236414212Y-130000000D02*
G75*
G02*
X233585788Y-130000000I-1414212J0D01*
G01*
X233585788Y-130000000D02*
G75*
G02*
X236414212Y-130000000I1414212J0D01*
G01*
X242150000Y-115000000D02*
G75*
G02*
X237850000Y-115000000I-2150000J0D01*
G01*
X237850000Y-115000000D02*
G75*
G02*
X242150000Y-115000000I2150000J0D01*
G01*
X242150000Y-130000000D02*
G75*
G02*
X237850000Y-130000000I-2150000J0D01*
G01*
X237850000Y-130000000D02*
G75*
G02*
X242150000Y-130000000I2150000J0D01*
G01*
X246414212Y-120000000D02*
G75*
G02*
X243585788Y-120000000I-1414212J0D01*
G01*
X243585788Y-120000000D02*
G75*
G02*
X246414212Y-120000000I1414212J0D01*
G01*
X246414212Y-125000000D02*
G75*
G02*
X243585788Y-125000000I-1414212J0D01*
G01*
X243585788Y-125000000D02*
G75*
G02*
X246414212Y-125000000I1414212J0D01*
G01*
%TO.C,VR2*%
X185800000Y-101000000D02*
G75*
G02*
X181200000Y-101000000I-2300000J0D01*
G01*
X181200000Y-101000000D02*
G75*
G02*
X185800000Y-101000000I2300000J0D01*
G01*
X187300000Y-108000000D02*
G75*
G02*
X183700000Y-108000000I-1800000J0D01*
G01*
X183700000Y-108000000D02*
G75*
G02*
X187300000Y-108000000I1800000J0D01*
G01*
X189800000Y-108000000D02*
G75*
G02*
X186200000Y-108000000I-1800000J0D01*
G01*
X186200000Y-108000000D02*
G75*
G02*
X189800000Y-108000000I1800000J0D01*
G01*
X192300000Y-108000000D02*
G75*
G02*
X188700000Y-108000000I-1800000J0D01*
G01*
X188700000Y-108000000D02*
G75*
G02*
X192300000Y-108000000I1800000J0D01*
G01*
X194800000Y-101000000D02*
G75*
G02*
X190200000Y-101000000I-2300000J0D01*
G01*
X190200000Y-101000000D02*
G75*
G02*
X194800000Y-101000000I2300000J0D01*
G01*
D15*
%TO.C,REF\u002A\u002A*%
X215472971Y-143517822D02*
X211952178Y-143517822D01*
X211952178Y-142650198D01*
X215472971Y-142650198D01*
X215472971Y-143517822D01*
G36*
X215472971Y-143517822D02*
G01*
X211952178Y-143517822D01*
X211952178Y-142650198D01*
X215472971Y-142650198D01*
X215472971Y-143517822D01*
G37*
X214441894Y-137975718D02*
X214442388Y-137988668D01*
X214448819Y-138010411D01*
X214467123Y-138028851D01*
X214502830Y-138050801D01*
X214534174Y-138070854D01*
X214581893Y-138109356D01*
X214625138Y-138152579D01*
X214658219Y-138194627D01*
X214675442Y-138229604D01*
X214679662Y-138243081D01*
X214687480Y-138252334D01*
X214690116Y-138255454D01*
X214711662Y-138260696D01*
X214751314Y-138261782D01*
X214819109Y-138261782D01*
X214819109Y-138374951D01*
X214659577Y-138374951D01*
X214644682Y-138552732D01*
X214642682Y-138577037D01*
X214638023Y-138637880D01*
X214634731Y-138687389D01*
X214633092Y-138720992D01*
X214633390Y-138734116D01*
X214637724Y-138730343D01*
X214657496Y-138710676D01*
X214691679Y-138675818D01*
X214738541Y-138627576D01*
X214796354Y-138567757D01*
X214863387Y-138498167D01*
X214937912Y-138420615D01*
X215018197Y-138336907D01*
X215102513Y-138248849D01*
X215189130Y-138158250D01*
X215276319Y-138066915D01*
X215362349Y-137976653D01*
X215445492Y-137889269D01*
X215524016Y-137806572D01*
X215596192Y-137730368D01*
X215660291Y-137662463D01*
X215714583Y-137604666D01*
X215811592Y-137501040D01*
X215812034Y-137589315D01*
X215812475Y-137677589D01*
X215211938Y-138309158D01*
X214611401Y-138940726D01*
X214599396Y-139084674D01*
X214551365Y-139660635D01*
X214542876Y-139762791D01*
X214532343Y-139890612D01*
X214522621Y-140009767D01*
X214513898Y-140117914D01*
X214506358Y-140212713D01*
X214500187Y-140291819D01*
X214495573Y-140352892D01*
X214492700Y-140393590D01*
X214491754Y-140411570D01*
X214494251Y-140419808D01*
X214505471Y-140437599D01*
X214526751Y-140464411D01*
X214537021Y-140476129D01*
X214559225Y-140501466D01*
X214604023Y-140549986D01*
X214662281Y-140611192D01*
X214735129Y-140686307D01*
X214823703Y-140776550D01*
X214929134Y-140883145D01*
X214998492Y-140953093D01*
X215095179Y-141050658D01*
X215191526Y-141147941D01*
X215284638Y-141242014D01*
X215371618Y-141329950D01*
X215449569Y-141408820D01*
X215515596Y-141475699D01*
X215566802Y-141527658D01*
X215767514Y-141731620D01*
X215731058Y-141769671D01*
X215722460Y-141778245D01*
X215697095Y-141799297D01*
X215679695Y-141807723D01*
X215666071Y-141800530D01*
X215640743Y-141778944D01*
X215610379Y-141747995D01*
X215591896Y-141728448D01*
X215557427Y-141692752D01*
X215508712Y-141642684D01*
X215447469Y-141580001D01*
X215375420Y-141506457D01*
X215294285Y-141423810D01*
X215205784Y-141333815D01*
X215111637Y-141238228D01*
X215013565Y-141138805D01*
X214471161Y-140589343D01*
X214449066Y-140874746D01*
X214444250Y-140935662D01*
X214437216Y-141017548D01*
X214430872Y-141079569D01*
X214424748Y-141124987D01*
X214418373Y-141157062D01*
X214411277Y-141179052D01*
X214402991Y-141194219D01*
X214391393Y-141215416D01*
X214381850Y-141254386D01*
X214379010Y-141310531D01*
X214379010Y-141392773D01*
X214152674Y-141392773D01*
X214152674Y-141216733D01*
X213307082Y-141216733D01*
X213258203Y-141272262D01*
X213244836Y-141286722D01*
X213172388Y-141344813D01*
X213090532Y-141380576D01*
X213001900Y-141392773D01*
X212923692Y-141386306D01*
X212835233Y-141359047D01*
X212759507Y-141310328D01*
X212744748Y-141296403D01*
X212707864Y-141251328D01*
X212675503Y-141198819D01*
X212652297Y-141147061D01*
X212642879Y-141104239D01*
X212642697Y-141098023D01*
X212641342Y-141075246D01*
X212637800Y-141059513D01*
X212630390Y-141052068D01*
X212617431Y-141054156D01*
X212597243Y-141067020D01*
X212568145Y-141091905D01*
X212528456Y-141130053D01*
X212476496Y-141182710D01*
X212410584Y-141251119D01*
X212329040Y-141336524D01*
X212285604Y-141382112D01*
X212213000Y-141458441D01*
X212144309Y-141530808D01*
X212082223Y-141596366D01*
X212029434Y-141652274D01*
X211988634Y-141695686D01*
X211962515Y-141723758D01*
X211891119Y-141801436D01*
X211802863Y-141713416D01*
X212348690Y-141141287D01*
X212383105Y-141105188D01*
X212505546Y-140976272D01*
X212610651Y-140864754D01*
X212698736Y-140770288D01*
X212770116Y-140692529D01*
X212820588Y-140636174D01*
X213027247Y-140636174D01*
X213028872Y-140649434D01*
X213029156Y-140650819D01*
X213042698Y-140682228D01*
X213069748Y-140696863D01*
X213153129Y-140728063D01*
X213227418Y-140780038D01*
X213285846Y-140848791D01*
X213325890Y-140931315D01*
X213345026Y-141024606D01*
X213351364Y-141103565D01*
X214300838Y-141103565D01*
X214307458Y-141075273D01*
X214308629Y-141068329D01*
X214312268Y-141037281D01*
X214317234Y-140987081D01*
X214323157Y-140921727D01*
X214329669Y-140845219D01*
X214336401Y-140761555D01*
X214358724Y-140476129D01*
X214057826Y-140170565D01*
X214002636Y-140114704D01*
X213935109Y-140046888D01*
X213874529Y-139986643D01*
X213823021Y-139936052D01*
X213782710Y-139897200D01*
X213755722Y-139872170D01*
X213744182Y-139863046D01*
X213736444Y-139867405D01*
X213713395Y-139887241D01*
X213678709Y-139920375D01*
X213635487Y-139963820D01*
X213586832Y-140014587D01*
X213574140Y-140028051D01*
X213517229Y-140088275D01*
X213449414Y-140159864D01*
X213375800Y-140237437D01*
X213301493Y-140315611D01*
X213231599Y-140389005D01*
X213227401Y-140393409D01*
X213162420Y-140461785D01*
X213112836Y-140514732D01*
X213076688Y-140554767D01*
X213052016Y-140584411D01*
X213036858Y-140606181D01*
X213029256Y-140622595D01*
X213027247Y-140636174D01*
X212820588Y-140636174D01*
X212825105Y-140631131D01*
X212864019Y-140585748D01*
X212887173Y-140556035D01*
X212894882Y-140541644D01*
X212894883Y-140541559D01*
X212893825Y-140523624D01*
X212890737Y-140483421D01*
X212885858Y-140423687D01*
X212879432Y-140347158D01*
X212871700Y-140256569D01*
X212862905Y-140154657D01*
X212853287Y-140044159D01*
X212843091Y-139927811D01*
X212832556Y-139808348D01*
X212821926Y-139688507D01*
X212811442Y-139571025D01*
X212801346Y-139458637D01*
X212791881Y-139354081D01*
X212783288Y-139260091D01*
X212775809Y-139179405D01*
X212769687Y-139114759D01*
X212765162Y-139068888D01*
X212762478Y-139044530D01*
X212757067Y-139003732D01*
X212886253Y-139003732D01*
X212887908Y-139034653D01*
X212891549Y-139086653D01*
X212896995Y-139157487D01*
X212904063Y-139244911D01*
X212912570Y-139346681D01*
X212922335Y-139460552D01*
X212933174Y-139584279D01*
X212944907Y-139715618D01*
X212954079Y-139816908D01*
X212965566Y-139942526D01*
X212976322Y-140058762D01*
X212986131Y-140163380D01*
X212994781Y-140254140D01*
X213002057Y-140328804D01*
X213007746Y-140385134D01*
X213011634Y-140420891D01*
X213013506Y-140433837D01*
X213019188Y-140429826D01*
X213040020Y-140410138D01*
X213073872Y-140376322D01*
X213118412Y-140330837D01*
X213171310Y-140276146D01*
X213230236Y-140214710D01*
X213292858Y-140148990D01*
X213356848Y-140081449D01*
X213419874Y-140014547D01*
X213479606Y-139950746D01*
X213533713Y-139892507D01*
X213579865Y-139842292D01*
X213615733Y-139802563D01*
X213638984Y-139775780D01*
X213645778Y-139766477D01*
X213827601Y-139766477D01*
X214103305Y-140041968D01*
X214170726Y-140109224D01*
X214234267Y-140172162D01*
X214283490Y-140220100D01*
X214320196Y-140254594D01*
X214346190Y-140277199D01*
X214363276Y-140289471D01*
X214373256Y-140292966D01*
X214377935Y-140289238D01*
X214379116Y-140279844D01*
X214379873Y-140264749D01*
X214382601Y-140225883D01*
X214387108Y-140166895D01*
X214393179Y-140090473D01*
X214400596Y-139999305D01*
X214409142Y-139896080D01*
X214418602Y-139783483D01*
X214428758Y-139664205D01*
X214437723Y-139559077D01*
X214447066Y-139448351D01*
X214455443Y-139347814D01*
X214462653Y-139259943D01*
X214468496Y-139187215D01*
X214472769Y-139132110D01*
X214475273Y-139097104D01*
X214475805Y-139084674D01*
X214475384Y-139084908D01*
X214463509Y-139096350D01*
X214437130Y-139123198D01*
X214398570Y-139163018D01*
X214350153Y-139213372D01*
X214294203Y-139271828D01*
X214233042Y-139335948D01*
X214168995Y-139403298D01*
X214104385Y-139471443D01*
X214041535Y-139537948D01*
X213982768Y-139600377D01*
X213930409Y-139656295D01*
X213829533Y-139764406D01*
X213827601Y-139766477D01*
X213645778Y-139766477D01*
X213647290Y-139764406D01*
X213639148Y-139753383D01*
X213615478Y-139726999D01*
X213578478Y-139687527D01*
X213530350Y-139637191D01*
X213473296Y-139578217D01*
X213409520Y-139512830D01*
X213341222Y-139443255D01*
X213270605Y-139371716D01*
X213199871Y-139300438D01*
X213131222Y-139231647D01*
X213066861Y-139167566D01*
X213008989Y-139110422D01*
X212959810Y-139062439D01*
X212921524Y-139025841D01*
X212896334Y-139002854D01*
X212886442Y-138995703D01*
X212886253Y-139003732D01*
X212757067Y-139003732D01*
X212755390Y-138991089D01*
X212480297Y-138991089D01*
X212479968Y-138780471D01*
X212479797Y-138671172D01*
X212580891Y-138671172D01*
X212580891Y-138890495D01*
X212662624Y-138890495D01*
X212669895Y-138890489D01*
X212710950Y-138889613D01*
X212733277Y-138885867D01*
X212742529Y-138877270D01*
X212744357Y-138861840D01*
X212736306Y-138839159D01*
X212708730Y-138801428D01*
X212662624Y-138752179D01*
X212580891Y-138671172D01*
X212479797Y-138671172D01*
X212479639Y-138569852D01*
X212027914Y-138110891D01*
X211576189Y-137651931D01*
X211575570Y-137564848D01*
X211574951Y-137477767D01*
X212116769Y-138026952D01*
X212169137Y-138079998D01*
X212277803Y-138189772D01*
X212370709Y-138283114D01*
X212449055Y-138361173D01*
X212514043Y-138425097D01*
X212566872Y-138476035D01*
X212608743Y-138515135D01*
X212640855Y-138543548D01*
X212664410Y-138562420D01*
X212680608Y-138572901D01*
X212690649Y-138576139D01*
X212707579Y-138575158D01*
X212717084Y-138567996D01*
X212718723Y-138548401D01*
X212714782Y-138510124D01*
X212712065Y-138486025D01*
X212708284Y-138445744D01*
X212706760Y-138418961D01*
X212706015Y-138409728D01*
X212698746Y-138399839D01*
X212678668Y-138396562D01*
X212639689Y-138397992D01*
X212629737Y-138398553D01*
X212589898Y-138397921D01*
X212561560Y-138389167D01*
X212541586Y-138374951D01*
X212824852Y-138374951D01*
X212829013Y-138422104D01*
X212830935Y-138443498D01*
X212836924Y-138501909D01*
X212842826Y-138540381D01*
X212849727Y-138562912D01*
X212858712Y-138573498D01*
X212870870Y-138576139D01*
X212881801Y-138577937D01*
X212889050Y-138586530D01*
X212893100Y-138606505D01*
X212894863Y-138642450D01*
X212895248Y-138698952D01*
X212895248Y-138821766D01*
X212935447Y-138861840D01*
X213033565Y-138959654D01*
X213171881Y-139097542D01*
X213171881Y-138991089D01*
X213926337Y-138991089D01*
X213926337Y-139230000D01*
X213307831Y-139230000D01*
X213517592Y-139446906D01*
X213557770Y-139488334D01*
X213613328Y-139545200D01*
X213661570Y-139594082D01*
X213699971Y-139632441D01*
X213726003Y-139657741D01*
X213737140Y-139667442D01*
X213741373Y-139664767D01*
X213761224Y-139646782D01*
X213795451Y-139613481D01*
X213842227Y-139566712D01*
X213899724Y-139508325D01*
X213966112Y-139440169D01*
X214039564Y-139364094D01*
X214118251Y-139281950D01*
X214197341Y-139198943D01*
X214274871Y-139117136D01*
X214337746Y-139050083D01*
X214387502Y-138996007D01*
X214425678Y-138953129D01*
X214453811Y-138919673D01*
X214473440Y-138893861D01*
X214486101Y-138873914D01*
X214493334Y-138858056D01*
X214496675Y-138844509D01*
X214497561Y-138837910D01*
X214501488Y-138801548D01*
X214506459Y-138748018D01*
X214511927Y-138683421D01*
X214517344Y-138613862D01*
X214519181Y-138589635D01*
X214524488Y-138524178D01*
X214529548Y-138467717D01*
X214533863Y-138425618D01*
X214536934Y-138403243D01*
X214542955Y-138374951D01*
X212824852Y-138374951D01*
X212541586Y-138374951D01*
X212533630Y-138369289D01*
X212528820Y-138365104D01*
X212489482Y-138314427D01*
X212473903Y-138261782D01*
X212814698Y-138261782D01*
X214229221Y-138261782D01*
X214227172Y-138211485D01*
X214441881Y-138211485D01*
X214441881Y-138261782D01*
X214498908Y-138261782D01*
X214515993Y-138261662D01*
X214541308Y-138259462D01*
X214548616Y-138252334D01*
X214542943Y-138237508D01*
X214541267Y-138234682D01*
X214522448Y-138212944D01*
X214495183Y-138188820D01*
X214467987Y-138169254D01*
X214449371Y-138161188D01*
X214447697Y-138162463D01*
X214443544Y-138179976D01*
X214441881Y-138211485D01*
X214227172Y-138211485D01*
X214225526Y-138171095D01*
X214221832Y-138080407D01*
X214146386Y-138065252D01*
X214108551Y-138058379D01*
X214045368Y-138048756D01*
X213986065Y-138041496D01*
X213901188Y-138032893D01*
X213901188Y-138136040D01*
X213322773Y-138136040D01*
X213322773Y-138045122D01*
X213250471Y-138053753D01*
X213139998Y-138072249D01*
X213028816Y-138105691D01*
X212936850Y-138152324D01*
X212862542Y-138212786D01*
X212814698Y-138261782D01*
X212473903Y-138261782D01*
X212472172Y-138255934D01*
X212477474Y-138194575D01*
X212505975Y-138135297D01*
X212508733Y-138131606D01*
X212546822Y-138099851D01*
X212596476Y-138081067D01*
X212650002Y-138076071D01*
X212699707Y-138085678D01*
X212737900Y-138110704D01*
X212750831Y-138123480D01*
X212763428Y-138126576D01*
X212781467Y-138116998D01*
X212811928Y-138093082D01*
X212821274Y-138085731D01*
X212893430Y-138039339D01*
X212978915Y-137998084D01*
X213048830Y-137972575D01*
X213423367Y-137972575D01*
X213423367Y-138035446D01*
X213800594Y-138035446D01*
X213800594Y-137972575D01*
X213423367Y-137972575D01*
X213048830Y-137972575D01*
X213069767Y-137964936D01*
X213158027Y-137942868D01*
X213235736Y-137934852D01*
X213243991Y-137934788D01*
X213289879Y-137930321D01*
X213315079Y-137917795D01*
X213322773Y-137895784D01*
X213323676Y-137888849D01*
X213328615Y-137882885D01*
X213340611Y-137878519D01*
X213362680Y-137875503D01*
X213397836Y-137873590D01*
X213449094Y-137872530D01*
X213519471Y-137872077D01*
X213611980Y-137871980D01*
X213698660Y-137872150D01*
X213772332Y-137872834D01*
X213826265Y-137874215D01*
X213863288Y-137876470D01*
X213886230Y-137879778D01*
X213897920Y-137884320D01*
X213901188Y-137890272D01*
X213911937Y-137904888D01*
X213942055Y-137914215D01*
X213953582Y-137915847D01*
X213992886Y-137921591D01*
X214045188Y-137929378D01*
X214102376Y-137938003D01*
X214133916Y-137942393D01*
X214180074Y-137947148D01*
X214212641Y-137948295D01*
X214226023Y-137945495D01*
X214228308Y-137943671D01*
X214249405Y-137939165D01*
X214287355Y-137936029D01*
X214336048Y-137934852D01*
X214441881Y-137934852D01*
X214441894Y-137972575D01*
X214441894Y-137975718D01*
G36*
X214441894Y-137975718D02*
G01*
X214442388Y-137988668D01*
X214448819Y-138010411D01*
X214467123Y-138028851D01*
X214502830Y-138050801D01*
X214534174Y-138070854D01*
X214581893Y-138109356D01*
X214625138Y-138152579D01*
X214658219Y-138194627D01*
X214675442Y-138229604D01*
X214679662Y-138243081D01*
X214687480Y-138252334D01*
X214690116Y-138255454D01*
X214711662Y-138260696D01*
X214751314Y-138261782D01*
X214819109Y-138261782D01*
X214819109Y-138374951D01*
X214659577Y-138374951D01*
X214644682Y-138552732D01*
X214642682Y-138577037D01*
X214638023Y-138637880D01*
X214634731Y-138687389D01*
X214633092Y-138720992D01*
X214633390Y-138734116D01*
X214637724Y-138730343D01*
X214657496Y-138710676D01*
X214691679Y-138675818D01*
X214738541Y-138627576D01*
X214796354Y-138567757D01*
X214863387Y-138498167D01*
X214937912Y-138420615D01*
X215018197Y-138336907D01*
X215102513Y-138248849D01*
X215189130Y-138158250D01*
X215276319Y-138066915D01*
X215362349Y-137976653D01*
X215445492Y-137889269D01*
X215524016Y-137806572D01*
X215596192Y-137730368D01*
X215660291Y-137662463D01*
X215714583Y-137604666D01*
X215811592Y-137501040D01*
X215812034Y-137589315D01*
X215812475Y-137677589D01*
X215211938Y-138309158D01*
X214611401Y-138940726D01*
X214599396Y-139084674D01*
X214551365Y-139660635D01*
X214542876Y-139762791D01*
X214532343Y-139890612D01*
X214522621Y-140009767D01*
X214513898Y-140117914D01*
X214506358Y-140212713D01*
X214500187Y-140291819D01*
X214495573Y-140352892D01*
X214492700Y-140393590D01*
X214491754Y-140411570D01*
X214494251Y-140419808D01*
X214505471Y-140437599D01*
X214526751Y-140464411D01*
X214537021Y-140476129D01*
X214559225Y-140501466D01*
X214604023Y-140549986D01*
X214662281Y-140611192D01*
X214735129Y-140686307D01*
X214823703Y-140776550D01*
X214929134Y-140883145D01*
X214998492Y-140953093D01*
X215095179Y-141050658D01*
X215191526Y-141147941D01*
X215284638Y-141242014D01*
X215371618Y-141329950D01*
X215449569Y-141408820D01*
X215515596Y-141475699D01*
X215566802Y-141527658D01*
X215767514Y-141731620D01*
X215731058Y-141769671D01*
X215722460Y-141778245D01*
X215697095Y-141799297D01*
X215679695Y-141807723D01*
X215666071Y-141800530D01*
X215640743Y-141778944D01*
X215610379Y-141747995D01*
X215591896Y-141728448D01*
X215557427Y-141692752D01*
X215508712Y-141642684D01*
X215447469Y-141580001D01*
X215375420Y-141506457D01*
X215294285Y-141423810D01*
X215205784Y-141333815D01*
X215111637Y-141238228D01*
X215013565Y-141138805D01*
X214471161Y-140589343D01*
X214449066Y-140874746D01*
X214444250Y-140935662D01*
X214437216Y-141017548D01*
X214430872Y-141079569D01*
X214424748Y-141124987D01*
X214418373Y-141157062D01*
X214411277Y-141179052D01*
X214402991Y-141194219D01*
X214391393Y-141215416D01*
X214381850Y-141254386D01*
X214379010Y-141310531D01*
X214379010Y-141392773D01*
X214152674Y-141392773D01*
X214152674Y-141216733D01*
X213307082Y-141216733D01*
X213258203Y-141272262D01*
X213244836Y-141286722D01*
X213172388Y-141344813D01*
X213090532Y-141380576D01*
X213001900Y-141392773D01*
X212923692Y-141386306D01*
X212835233Y-141359047D01*
X212759507Y-141310328D01*
X212744748Y-141296403D01*
X212707864Y-141251328D01*
X212675503Y-141198819D01*
X212652297Y-141147061D01*
X212642879Y-141104239D01*
X212642697Y-141098023D01*
X212641342Y-141075246D01*
X212637800Y-141059513D01*
X212630390Y-141052068D01*
X212617431Y-141054156D01*
X212597243Y-141067020D01*
X212568145Y-141091905D01*
X212528456Y-141130053D01*
X212476496Y-141182710D01*
X212410584Y-141251119D01*
X212329040Y-141336524D01*
X212285604Y-141382112D01*
X212213000Y-141458441D01*
X212144309Y-141530808D01*
X212082223Y-141596366D01*
X212029434Y-141652274D01*
X211988634Y-141695686D01*
X211962515Y-141723758D01*
X211891119Y-141801436D01*
X211802863Y-141713416D01*
X212348690Y-141141287D01*
X212383105Y-141105188D01*
X212505546Y-140976272D01*
X212610651Y-140864754D01*
X212698736Y-140770288D01*
X212770116Y-140692529D01*
X212820588Y-140636174D01*
X213027247Y-140636174D01*
X213028872Y-140649434D01*
X213029156Y-140650819D01*
X213042698Y-140682228D01*
X213069748Y-140696863D01*
X213153129Y-140728063D01*
X213227418Y-140780038D01*
X213285846Y-140848791D01*
X213325890Y-140931315D01*
X213345026Y-141024606D01*
X213351364Y-141103565D01*
X214300838Y-141103565D01*
X214307458Y-141075273D01*
X214308629Y-141068329D01*
X214312268Y-141037281D01*
X214317234Y-140987081D01*
X214323157Y-140921727D01*
X214329669Y-140845219D01*
X214336401Y-140761555D01*
X214358724Y-140476129D01*
X214057826Y-140170565D01*
X214002636Y-140114704D01*
X213935109Y-140046888D01*
X213874529Y-139986643D01*
X213823021Y-139936052D01*
X213782710Y-139897200D01*
X213755722Y-139872170D01*
X213744182Y-139863046D01*
X213736444Y-139867405D01*
X213713395Y-139887241D01*
X213678709Y-139920375D01*
X213635487Y-139963820D01*
X213586832Y-140014587D01*
X213574140Y-140028051D01*
X213517229Y-140088275D01*
X213449414Y-140159864D01*
X213375800Y-140237437D01*
X213301493Y-140315611D01*
X213231599Y-140389005D01*
X213227401Y-140393409D01*
X213162420Y-140461785D01*
X213112836Y-140514732D01*
X213076688Y-140554767D01*
X213052016Y-140584411D01*
X213036858Y-140606181D01*
X213029256Y-140622595D01*
X213027247Y-140636174D01*
X212820588Y-140636174D01*
X212825105Y-140631131D01*
X212864019Y-140585748D01*
X212887173Y-140556035D01*
X212894882Y-140541644D01*
X212894883Y-140541559D01*
X212893825Y-140523624D01*
X212890737Y-140483421D01*
X212885858Y-140423687D01*
X212879432Y-140347158D01*
X212871700Y-140256569D01*
X212862905Y-140154657D01*
X212853287Y-140044159D01*
X212843091Y-139927811D01*
X212832556Y-139808348D01*
X212821926Y-139688507D01*
X212811442Y-139571025D01*
X212801346Y-139458637D01*
X212791881Y-139354081D01*
X212783288Y-139260091D01*
X212775809Y-139179405D01*
X212769687Y-139114759D01*
X212765162Y-139068888D01*
X212762478Y-139044530D01*
X212757067Y-139003732D01*
X212886253Y-139003732D01*
X212887908Y-139034653D01*
X212891549Y-139086653D01*
X212896995Y-139157487D01*
X212904063Y-139244911D01*
X212912570Y-139346681D01*
X212922335Y-139460552D01*
X212933174Y-139584279D01*
X212944907Y-139715618D01*
X212954079Y-139816908D01*
X212965566Y-139942526D01*
X212976322Y-140058762D01*
X212986131Y-140163380D01*
X212994781Y-140254140D01*
X213002057Y-140328804D01*
X213007746Y-140385134D01*
X213011634Y-140420891D01*
X213013506Y-140433837D01*
X213019188Y-140429826D01*
X213040020Y-140410138D01*
X213073872Y-140376322D01*
X213118412Y-140330837D01*
X213171310Y-140276146D01*
X213230236Y-140214710D01*
X213292858Y-140148990D01*
X213356848Y-140081449D01*
X213419874Y-140014547D01*
X213479606Y-139950746D01*
X213533713Y-139892507D01*
X213579865Y-139842292D01*
X213615733Y-139802563D01*
X213638984Y-139775780D01*
X213645778Y-139766477D01*
X213827601Y-139766477D01*
X214103305Y-140041968D01*
X214170726Y-140109224D01*
X214234267Y-140172162D01*
X214283490Y-140220100D01*
X214320196Y-140254594D01*
X214346190Y-140277199D01*
X214363276Y-140289471D01*
X214373256Y-140292966D01*
X214377935Y-140289238D01*
X214379116Y-140279844D01*
X214379873Y-140264749D01*
X214382601Y-140225883D01*
X214387108Y-140166895D01*
X214393179Y-140090473D01*
X214400596Y-139999305D01*
X214409142Y-139896080D01*
X214418602Y-139783483D01*
X214428758Y-139664205D01*
X214437723Y-139559077D01*
X214447066Y-139448351D01*
X214455443Y-139347814D01*
X214462653Y-139259943D01*
X214468496Y-139187215D01*
X214472769Y-139132110D01*
X214475273Y-139097104D01*
X214475805Y-139084674D01*
X214475384Y-139084908D01*
X214463509Y-139096350D01*
X214437130Y-139123198D01*
X214398570Y-139163018D01*
X214350153Y-139213372D01*
X214294203Y-139271828D01*
X214233042Y-139335948D01*
X214168995Y-139403298D01*
X214104385Y-139471443D01*
X214041535Y-139537948D01*
X213982768Y-139600377D01*
X213930409Y-139656295D01*
X213829533Y-139764406D01*
X213827601Y-139766477D01*
X213645778Y-139766477D01*
X213647290Y-139764406D01*
X213639148Y-139753383D01*
X213615478Y-139726999D01*
X213578478Y-139687527D01*
X213530350Y-139637191D01*
X213473296Y-139578217D01*
X213409520Y-139512830D01*
X213341222Y-139443255D01*
X213270605Y-139371716D01*
X213199871Y-139300438D01*
X213131222Y-139231647D01*
X213066861Y-139167566D01*
X213008989Y-139110422D01*
X212959810Y-139062439D01*
X212921524Y-139025841D01*
X212896334Y-139002854D01*
X212886442Y-138995703D01*
X212886253Y-139003732D01*
X212757067Y-139003732D01*
X212755390Y-138991089D01*
X212480297Y-138991089D01*
X212479968Y-138780471D01*
X212479797Y-138671172D01*
X212580891Y-138671172D01*
X212580891Y-138890495D01*
X212662624Y-138890495D01*
X212669895Y-138890489D01*
X212710950Y-138889613D01*
X212733277Y-138885867D01*
X212742529Y-138877270D01*
X212744357Y-138861840D01*
X212736306Y-138839159D01*
X212708730Y-138801428D01*
X212662624Y-138752179D01*
X212580891Y-138671172D01*
X212479797Y-138671172D01*
X212479639Y-138569852D01*
X212027914Y-138110891D01*
X211576189Y-137651931D01*
X211575570Y-137564848D01*
X211574951Y-137477767D01*
X212116769Y-138026952D01*
X212169137Y-138079998D01*
X212277803Y-138189772D01*
X212370709Y-138283114D01*
X212449055Y-138361173D01*
X212514043Y-138425097D01*
X212566872Y-138476035D01*
X212608743Y-138515135D01*
X212640855Y-138543548D01*
X212664410Y-138562420D01*
X212680608Y-138572901D01*
X212690649Y-138576139D01*
X212707579Y-138575158D01*
X212717084Y-138567996D01*
X212718723Y-138548401D01*
X212714782Y-138510124D01*
X212712065Y-138486025D01*
X212708284Y-138445744D01*
X212706760Y-138418961D01*
X212706015Y-138409728D01*
X212698746Y-138399839D01*
X212678668Y-138396562D01*
X212639689Y-138397992D01*
X212629737Y-138398553D01*
X212589898Y-138397921D01*
X212561560Y-138389167D01*
X212541586Y-138374951D01*
X212824852Y-138374951D01*
X212829013Y-138422104D01*
X212830935Y-138443498D01*
X212836924Y-138501909D01*
X212842826Y-138540381D01*
X212849727Y-138562912D01*
X212858712Y-138573498D01*
X212870870Y-138576139D01*
X212881801Y-138577937D01*
X212889050Y-138586530D01*
X212893100Y-138606505D01*
X212894863Y-138642450D01*
X212895248Y-138698952D01*
X212895248Y-138821766D01*
X212935447Y-138861840D01*
X213033565Y-138959654D01*
X213171881Y-139097542D01*
X213171881Y-138991089D01*
X213926337Y-138991089D01*
X213926337Y-139230000D01*
X213307831Y-139230000D01*
X213517592Y-139446906D01*
X213557770Y-139488334D01*
X213613328Y-139545200D01*
X213661570Y-139594082D01*
X213699971Y-139632441D01*
X213726003Y-139657741D01*
X213737140Y-139667442D01*
X213741373Y-139664767D01*
X213761224Y-139646782D01*
X213795451Y-139613481D01*
X213842227Y-139566712D01*
X213899724Y-139508325D01*
X213966112Y-139440169D01*
X214039564Y-139364094D01*
X214118251Y-139281950D01*
X214197341Y-139198943D01*
X214274871Y-139117136D01*
X214337746Y-139050083D01*
X214387502Y-138996007D01*
X214425678Y-138953129D01*
X214453811Y-138919673D01*
X214473440Y-138893861D01*
X214486101Y-138873914D01*
X214493334Y-138858056D01*
X214496675Y-138844509D01*
X214497561Y-138837910D01*
X214501488Y-138801548D01*
X214506459Y-138748018D01*
X214511927Y-138683421D01*
X214517344Y-138613862D01*
X214519181Y-138589635D01*
X214524488Y-138524178D01*
X214529548Y-138467717D01*
X214533863Y-138425618D01*
X214536934Y-138403243D01*
X214542955Y-138374951D01*
X212824852Y-138374951D01*
X212541586Y-138374951D01*
X212533630Y-138369289D01*
X212528820Y-138365104D01*
X212489482Y-138314427D01*
X212473903Y-138261782D01*
X212814698Y-138261782D01*
X214229221Y-138261782D01*
X214227172Y-138211485D01*
X214441881Y-138211485D01*
X214441881Y-138261782D01*
X214498908Y-138261782D01*
X214515993Y-138261662D01*
X214541308Y-138259462D01*
X214548616Y-138252334D01*
X214542943Y-138237508D01*
X214541267Y-138234682D01*
X214522448Y-138212944D01*
X214495183Y-138188820D01*
X214467987Y-138169254D01*
X214449371Y-138161188D01*
X214447697Y-138162463D01*
X214443544Y-138179976D01*
X214441881Y-138211485D01*
X214227172Y-138211485D01*
X214225526Y-138171095D01*
X214221832Y-138080407D01*
X214146386Y-138065252D01*
X214108551Y-138058379D01*
X214045368Y-138048756D01*
X213986065Y-138041496D01*
X213901188Y-138032893D01*
X213901188Y-138136040D01*
X213322773Y-138136040D01*
X213322773Y-138045122D01*
X213250471Y-138053753D01*
X213139998Y-138072249D01*
X213028816Y-138105691D01*
X212936850Y-138152324D01*
X212862542Y-138212786D01*
X212814698Y-138261782D01*
X212473903Y-138261782D01*
X212472172Y-138255934D01*
X212477474Y-138194575D01*
X212505975Y-138135297D01*
X212508733Y-138131606D01*
X212546822Y-138099851D01*
X212596476Y-138081067D01*
X212650002Y-138076071D01*
X212699707Y-138085678D01*
X212737900Y-138110704D01*
X212750831Y-138123480D01*
X212763428Y-138126576D01*
X212781467Y-138116998D01*
X212811928Y-138093082D01*
X212821274Y-138085731D01*
X212893430Y-138039339D01*
X212978915Y-137998084D01*
X213048830Y-137972575D01*
X213423367Y-137972575D01*
X213423367Y-138035446D01*
X213800594Y-138035446D01*
X213800594Y-137972575D01*
X213423367Y-137972575D01*
X213048830Y-137972575D01*
X213069767Y-137964936D01*
X213158027Y-137942868D01*
X213235736Y-137934852D01*
X213243991Y-137934788D01*
X213289879Y-137930321D01*
X213315079Y-137917795D01*
X213322773Y-137895784D01*
X213323676Y-137888849D01*
X213328615Y-137882885D01*
X213340611Y-137878519D01*
X213362680Y-137875503D01*
X213397836Y-137873590D01*
X213449094Y-137872530D01*
X213519471Y-137872077D01*
X213611980Y-137871980D01*
X213698660Y-137872150D01*
X213772332Y-137872834D01*
X213826265Y-137874215D01*
X213863288Y-137876470D01*
X213886230Y-137879778D01*
X213897920Y-137884320D01*
X213901188Y-137890272D01*
X213911937Y-137904888D01*
X213942055Y-137914215D01*
X213953582Y-137915847D01*
X213992886Y-137921591D01*
X214045188Y-137929378D01*
X214102376Y-137938003D01*
X214133916Y-137942393D01*
X214180074Y-137947148D01*
X214212641Y-137948295D01*
X214226023Y-137945495D01*
X214228308Y-137943671D01*
X214249405Y-137939165D01*
X214287355Y-137936029D01*
X214336048Y-137934852D01*
X214441881Y-137934852D01*
X214441894Y-137972575D01*
X214441894Y-137975718D01*
G37*
X218126072Y-147387679D02*
X220371250Y-147387679D01*
X220371250Y-145119821D01*
X221550536Y-145119821D01*
X221550536Y-150880179D01*
X220371635Y-150880179D01*
X220365773Y-149627187D01*
X220359911Y-148374196D01*
X219242992Y-148368313D01*
X218126072Y-148362430D01*
X218126072Y-150880179D01*
X216946786Y-150880179D01*
X216946786Y-145119821D01*
X218126072Y-145119821D01*
X218126072Y-147387679D01*
G36*
X218126072Y-147387679D02*
G01*
X220371250Y-147387679D01*
X220371250Y-145119821D01*
X221550536Y-145119821D01*
X221550536Y-150880179D01*
X220371635Y-150880179D01*
X220365773Y-149627187D01*
X220359911Y-148374196D01*
X219242992Y-148368313D01*
X218126072Y-148362430D01*
X218126072Y-150880179D01*
X216946786Y-150880179D01*
X216946786Y-145119821D01*
X218126072Y-145119821D01*
X218126072Y-147387679D01*
G37*
X226718669Y-148801926D02*
X226696110Y-149145268D01*
X226682203Y-149243440D01*
X226614481Y-149544424D01*
X226512694Y-149822762D01*
X226378561Y-150075038D01*
X226213802Y-150297838D01*
X226020137Y-150487747D01*
X225968647Y-150528419D01*
X225774996Y-150654685D01*
X225552483Y-150766426D01*
X225313177Y-150858784D01*
X225069147Y-150926899D01*
X224832462Y-150965912D01*
X224704753Y-150973438D01*
X224542822Y-150973310D01*
X224371249Y-150965339D01*
X224203738Y-150950474D01*
X224053995Y-150929662D01*
X223935724Y-150903854D01*
X223746531Y-150840986D01*
X223490889Y-150721647D01*
X223256295Y-150566500D01*
X223034956Y-150370937D01*
X223005004Y-150340472D01*
X222809819Y-150110189D01*
X222654774Y-149863849D01*
X222539026Y-149599125D01*
X222461734Y-149313691D01*
X222422054Y-149005223D01*
X222420790Y-148860304D01*
X223558812Y-148860304D01*
X223577588Y-149074143D01*
X223617553Y-149278326D01*
X223676705Y-149461827D01*
X223753045Y-149613617D01*
X223796385Y-149675136D01*
X223910281Y-149801219D01*
X224042011Y-149910974D01*
X224176305Y-149990793D01*
X224187495Y-149995903D01*
X224258495Y-150023986D01*
X224329679Y-150041662D01*
X224416089Y-150051720D01*
X224532768Y-150056954D01*
X224621871Y-150057998D01*
X224751801Y-150050725D01*
X224859603Y-150028883D01*
X224959493Y-149989022D01*
X225065689Y-149927695D01*
X225193384Y-149832135D01*
X225331718Y-149683638D01*
X225437779Y-149507234D01*
X225512314Y-149301240D01*
X225556071Y-149063973D01*
X225569799Y-148793750D01*
X225569694Y-148776980D01*
X225555450Y-148525694D01*
X225516363Y-148308039D01*
X225450672Y-148118858D01*
X225356616Y-147952991D01*
X225232435Y-147805282D01*
X225151073Y-147732300D01*
X224983965Y-147625358D01*
X224803009Y-147557520D01*
X224614166Y-147528788D01*
X224423394Y-147539164D01*
X224236653Y-147588650D01*
X224059903Y-147677246D01*
X223899103Y-147804955D01*
X223842709Y-147864446D01*
X223739812Y-148006456D01*
X223661592Y-148171242D01*
X223605330Y-148365291D01*
X223568312Y-148595092D01*
X223563223Y-148647838D01*
X223558812Y-148860304D01*
X222420790Y-148860304D01*
X222419143Y-148671394D01*
X222436252Y-148445596D01*
X222473332Y-148217963D01*
X222531969Y-148008601D01*
X222615064Y-147804678D01*
X222758029Y-147548253D01*
X222939905Y-147310467D01*
X223153326Y-147103213D01*
X223395309Y-146928979D01*
X223662869Y-146790250D01*
X223953023Y-146689516D01*
X223967008Y-146685772D01*
X224050896Y-146664847D01*
X224127062Y-146649951D01*
X224206119Y-146640060D01*
X224298683Y-146634145D01*
X224415368Y-146631181D01*
X224566786Y-146630139D01*
X224638229Y-146630053D01*
X224770132Y-146630947D01*
X224871918Y-146634189D01*
X224954117Y-146640815D01*
X225027258Y-146651863D01*
X225101869Y-146668368D01*
X225188479Y-146691370D01*
X225318293Y-146731595D01*
X225590274Y-146845890D01*
X225838311Y-146992640D01*
X226055358Y-147167967D01*
X226234197Y-147359073D01*
X226408969Y-147605704D01*
X226545329Y-147874933D01*
X226642751Y-148165131D01*
X226700706Y-148474671D01*
X226718221Y-148793750D01*
X226718669Y-148801926D01*
G36*
X226718669Y-148801926D02*
G01*
X226696110Y-149145268D01*
X226682203Y-149243440D01*
X226614481Y-149544424D01*
X226512694Y-149822762D01*
X226378561Y-150075038D01*
X226213802Y-150297838D01*
X226020137Y-150487747D01*
X225968647Y-150528419D01*
X225774996Y-150654685D01*
X225552483Y-150766426D01*
X225313177Y-150858784D01*
X225069147Y-150926899D01*
X224832462Y-150965912D01*
X224704753Y-150973438D01*
X224542822Y-150973310D01*
X224371249Y-150965339D01*
X224203738Y-150950474D01*
X224053995Y-150929662D01*
X223935724Y-150903854D01*
X223746531Y-150840986D01*
X223490889Y-150721647D01*
X223256295Y-150566500D01*
X223034956Y-150370937D01*
X223005004Y-150340472D01*
X222809819Y-150110189D01*
X222654774Y-149863849D01*
X222539026Y-149599125D01*
X222461734Y-149313691D01*
X222422054Y-149005223D01*
X222420790Y-148860304D01*
X223558812Y-148860304D01*
X223577588Y-149074143D01*
X223617553Y-149278326D01*
X223676705Y-149461827D01*
X223753045Y-149613617D01*
X223796385Y-149675136D01*
X223910281Y-149801219D01*
X224042011Y-149910974D01*
X224176305Y-149990793D01*
X224187495Y-149995903D01*
X224258495Y-150023986D01*
X224329679Y-150041662D01*
X224416089Y-150051720D01*
X224532768Y-150056954D01*
X224621871Y-150057998D01*
X224751801Y-150050725D01*
X224859603Y-150028883D01*
X224959493Y-149989022D01*
X225065689Y-149927695D01*
X225193384Y-149832135D01*
X225331718Y-149683638D01*
X225437779Y-149507234D01*
X225512314Y-149301240D01*
X225556071Y-149063973D01*
X225569799Y-148793750D01*
X225569694Y-148776980D01*
X225555450Y-148525694D01*
X225516363Y-148308039D01*
X225450672Y-148118858D01*
X225356616Y-147952991D01*
X225232435Y-147805282D01*
X225151073Y-147732300D01*
X224983965Y-147625358D01*
X224803009Y-147557520D01*
X224614166Y-147528788D01*
X224423394Y-147539164D01*
X224236653Y-147588650D01*
X224059903Y-147677246D01*
X223899103Y-147804955D01*
X223842709Y-147864446D01*
X223739812Y-148006456D01*
X223661592Y-148171242D01*
X223605330Y-148365291D01*
X223568312Y-148595092D01*
X223563223Y-148647838D01*
X223558812Y-148860304D01*
X222420790Y-148860304D01*
X222419143Y-148671394D01*
X222436252Y-148445596D01*
X222473332Y-148217963D01*
X222531969Y-148008601D01*
X222615064Y-147804678D01*
X222758029Y-147548253D01*
X222939905Y-147310467D01*
X223153326Y-147103213D01*
X223395309Y-146928979D01*
X223662869Y-146790250D01*
X223953023Y-146689516D01*
X223967008Y-146685772D01*
X224050896Y-146664847D01*
X224127062Y-146649951D01*
X224206119Y-146640060D01*
X224298683Y-146634145D01*
X224415368Y-146631181D01*
X224566786Y-146630139D01*
X224638229Y-146630053D01*
X224770132Y-146630947D01*
X224871918Y-146634189D01*
X224954117Y-146640815D01*
X225027258Y-146651863D01*
X225101869Y-146668368D01*
X225188479Y-146691370D01*
X225318293Y-146731595D01*
X225590274Y-146845890D01*
X225838311Y-146992640D01*
X226055358Y-147167967D01*
X226234197Y-147359073D01*
X226408969Y-147605704D01*
X226545329Y-147874933D01*
X226642751Y-148165131D01*
X226700706Y-148474671D01*
X226718221Y-148793750D01*
X226718669Y-148801926D01*
G37*
X232254822Y-150880179D02*
X231075937Y-150880179D01*
X231064197Y-148487589D01*
X230779396Y-148490833D01*
X230638742Y-148495000D01*
X230451261Y-148512969D01*
X230293996Y-148548317D01*
X230158570Y-148604885D01*
X230036606Y-148686516D01*
X229919728Y-148797055D01*
X229799559Y-148940342D01*
X229771718Y-148977469D01*
X229710965Y-149061902D01*
X229630901Y-149175840D01*
X229534972Y-149314272D01*
X229426628Y-149472186D01*
X229309316Y-149644574D01*
X229186485Y-149826423D01*
X229061583Y-150012723D01*
X228482268Y-150880179D01*
X227783188Y-150880179D01*
X227703662Y-150880110D01*
X227537140Y-150879494D01*
X227388631Y-150878308D01*
X227263605Y-150876635D01*
X227167530Y-150874560D01*
X227105875Y-150872164D01*
X227084108Y-150869531D01*
X227084166Y-150869101D01*
X227097497Y-150843431D01*
X227132125Y-150784663D01*
X227185057Y-150697542D01*
X227253297Y-150586814D01*
X227333851Y-150457224D01*
X227423725Y-150313517D01*
X227519923Y-150160440D01*
X227619452Y-150002738D01*
X227719316Y-149845156D01*
X227816522Y-149692441D01*
X227908073Y-149549336D01*
X227990977Y-149420589D01*
X228062238Y-149310945D01*
X228118862Y-149225149D01*
X228157854Y-149167946D01*
X228180705Y-149136076D01*
X228335086Y-148941314D01*
X228505000Y-148757436D01*
X228680055Y-148595003D01*
X228849858Y-148464581D01*
X229016769Y-148351518D01*
X228940572Y-148331866D01*
X228804739Y-148295590D01*
X228613190Y-148237928D01*
X228453806Y-148179170D01*
X228318579Y-148115341D01*
X228199505Y-148042462D01*
X228088577Y-147956558D01*
X227977789Y-147853652D01*
X227895221Y-147766513D01*
X227763644Y-147595679D01*
X227666225Y-147415104D01*
X227600139Y-147217428D01*
X227562560Y-146995293D01*
X227554462Y-146822452D01*
X228756080Y-146822452D01*
X228774813Y-147007632D01*
X228830162Y-147167636D01*
X228923031Y-147305147D01*
X228936588Y-147320017D01*
X229027140Y-147396377D01*
X229139586Y-147453701D01*
X229281380Y-147495016D01*
X229459973Y-147523352D01*
X229476939Y-147525066D01*
X229562052Y-147530691D01*
X229682647Y-147535736D01*
X229831074Y-147540006D01*
X229999682Y-147543309D01*
X230180818Y-147545453D01*
X230366831Y-147546242D01*
X231075536Y-147546429D01*
X231075536Y-146117679D01*
X230217867Y-146117679D01*
X230081282Y-146117763D01*
X229876324Y-146118388D01*
X229709292Y-146119768D01*
X229575465Y-146122077D01*
X229470123Y-146125487D01*
X229388547Y-146130172D01*
X229326016Y-146136305D01*
X229277810Y-146144059D01*
X229239209Y-146153608D01*
X229209381Y-146162974D01*
X229047199Y-146236518D01*
X228920889Y-146337785D01*
X228830341Y-146466920D01*
X228775450Y-146624068D01*
X228756109Y-146809375D01*
X228756080Y-146822452D01*
X227554462Y-146822452D01*
X227550662Y-146741339D01*
X227550700Y-146721265D01*
X227555921Y-146542856D01*
X227572223Y-146392648D01*
X227602871Y-146255619D01*
X227651130Y-146116744D01*
X227720266Y-145961002D01*
X227723081Y-145955117D01*
X227775450Y-145854807D01*
X227831593Y-145769383D01*
X227902109Y-145684505D01*
X227997601Y-145585833D01*
X228022832Y-145561200D01*
X228141796Y-145455868D01*
X228261035Y-145371632D01*
X228389567Y-145304363D01*
X228536407Y-145249936D01*
X228710570Y-145204224D01*
X228921072Y-145163099D01*
X228931893Y-145161511D01*
X229000976Y-145155760D01*
X229114129Y-145150380D01*
X229270337Y-145145391D01*
X229468584Y-145140814D01*
X229707855Y-145136670D01*
X229987134Y-145132980D01*
X230305405Y-145129765D01*
X230661652Y-145127046D01*
X232254822Y-145116576D01*
X232254822Y-146117679D01*
X232254822Y-150880179D01*
G36*
X232254822Y-150880179D02*
G01*
X231075937Y-150880179D01*
X231064197Y-148487589D01*
X230779396Y-148490833D01*
X230638742Y-148495000D01*
X230451261Y-148512969D01*
X230293996Y-148548317D01*
X230158570Y-148604885D01*
X230036606Y-148686516D01*
X229919728Y-148797055D01*
X229799559Y-148940342D01*
X229771718Y-148977469D01*
X229710965Y-149061902D01*
X229630901Y-149175840D01*
X229534972Y-149314272D01*
X229426628Y-149472186D01*
X229309316Y-149644574D01*
X229186485Y-149826423D01*
X229061583Y-150012723D01*
X228482268Y-150880179D01*
X227783188Y-150880179D01*
X227703662Y-150880110D01*
X227537140Y-150879494D01*
X227388631Y-150878308D01*
X227263605Y-150876635D01*
X227167530Y-150874560D01*
X227105875Y-150872164D01*
X227084108Y-150869531D01*
X227084166Y-150869101D01*
X227097497Y-150843431D01*
X227132125Y-150784663D01*
X227185057Y-150697542D01*
X227253297Y-150586814D01*
X227333851Y-150457224D01*
X227423725Y-150313517D01*
X227519923Y-150160440D01*
X227619452Y-150002738D01*
X227719316Y-149845156D01*
X227816522Y-149692441D01*
X227908073Y-149549336D01*
X227990977Y-149420589D01*
X228062238Y-149310945D01*
X228118862Y-149225149D01*
X228157854Y-149167946D01*
X228180705Y-149136076D01*
X228335086Y-148941314D01*
X228505000Y-148757436D01*
X228680055Y-148595003D01*
X228849858Y-148464581D01*
X229016769Y-148351518D01*
X228940572Y-148331866D01*
X228804739Y-148295590D01*
X228613190Y-148237928D01*
X228453806Y-148179170D01*
X228318579Y-148115341D01*
X228199505Y-148042462D01*
X228088577Y-147956558D01*
X227977789Y-147853652D01*
X227895221Y-147766513D01*
X227763644Y-147595679D01*
X227666225Y-147415104D01*
X227600139Y-147217428D01*
X227562560Y-146995293D01*
X227554462Y-146822452D01*
X228756080Y-146822452D01*
X228774813Y-147007632D01*
X228830162Y-147167636D01*
X228923031Y-147305147D01*
X228936588Y-147320017D01*
X229027140Y-147396377D01*
X229139586Y-147453701D01*
X229281380Y-147495016D01*
X229459973Y-147523352D01*
X229476939Y-147525066D01*
X229562052Y-147530691D01*
X229682647Y-147535736D01*
X229831074Y-147540006D01*
X229999682Y-147543309D01*
X230180818Y-147545453D01*
X230366831Y-147546242D01*
X231075536Y-147546429D01*
X231075536Y-146117679D01*
X230217867Y-146117679D01*
X230081282Y-146117763D01*
X229876324Y-146118388D01*
X229709292Y-146119768D01*
X229575465Y-146122077D01*
X229470123Y-146125487D01*
X229388547Y-146130172D01*
X229326016Y-146136305D01*
X229277810Y-146144059D01*
X229239209Y-146153608D01*
X229209381Y-146162974D01*
X229047199Y-146236518D01*
X228920889Y-146337785D01*
X228830341Y-146466920D01*
X228775450Y-146624068D01*
X228756109Y-146809375D01*
X228756080Y-146822452D01*
X227554462Y-146822452D01*
X227550662Y-146741339D01*
X227550700Y-146721265D01*
X227555921Y-146542856D01*
X227572223Y-146392648D01*
X227602871Y-146255619D01*
X227651130Y-146116744D01*
X227720266Y-145961002D01*
X227723081Y-145955117D01*
X227775450Y-145854807D01*
X227831593Y-145769383D01*
X227902109Y-145684505D01*
X227997601Y-145585833D01*
X228022832Y-145561200D01*
X228141796Y-145455868D01*
X228261035Y-145371632D01*
X228389567Y-145304363D01*
X228536407Y-145249936D01*
X228710570Y-145204224D01*
X228921072Y-145163099D01*
X228931893Y-145161511D01*
X229000976Y-145155760D01*
X229114129Y-145150380D01*
X229270337Y-145145391D01*
X229468584Y-145140814D01*
X229707855Y-145136670D01*
X229987134Y-145132980D01*
X230305405Y-145129765D01*
X230661652Y-145127046D01*
X232254822Y-145116576D01*
X232254822Y-146117679D01*
X232254822Y-150880179D01*
G37*
X213862209Y-145035134D02*
X213968097Y-145038826D01*
X214179311Y-145052400D01*
X214362149Y-145074980D01*
X214528098Y-145108682D01*
X214688646Y-145155619D01*
X214855279Y-145217905D01*
X214963070Y-145267145D01*
X215167341Y-145390164D01*
X215354471Y-145541503D01*
X215515116Y-145713077D01*
X215639930Y-145896799D01*
X215718206Y-146059616D01*
X215794927Y-146301518D01*
X215830654Y-146548677D01*
X215826416Y-146796017D01*
X215783243Y-147038465D01*
X215702167Y-147270946D01*
X215584216Y-147488385D01*
X215430422Y-147685709D01*
X215241813Y-147857843D01*
X215095941Y-147956745D01*
X214873885Y-148074386D01*
X214607895Y-148185409D01*
X214298527Y-148289589D01*
X213946333Y-148386699D01*
X213775535Y-148429856D01*
X213540944Y-148491026D01*
X213343931Y-148545477D01*
X213180331Y-148594785D01*
X213045981Y-148640527D01*
X212936716Y-148684280D01*
X212848371Y-148727619D01*
X212776781Y-148772122D01*
X212717783Y-148819365D01*
X212667211Y-148870925D01*
X212586822Y-148989904D01*
X212540618Y-149129380D01*
X212534985Y-149276086D01*
X212569341Y-149424532D01*
X212643104Y-149569232D01*
X212755691Y-149704697D01*
X212812132Y-149755440D01*
X212973151Y-149861266D01*
X213162672Y-149935989D01*
X213382819Y-149980309D01*
X213635715Y-149994927D01*
X213760211Y-149991205D01*
X214005069Y-149958616D01*
X214221213Y-149892873D01*
X214407584Y-149794475D01*
X214563119Y-149663918D01*
X214686757Y-149501702D01*
X214708146Y-149463769D01*
X214762504Y-149350014D01*
X214816167Y-149217631D01*
X214862098Y-149084752D01*
X214893262Y-148969509D01*
X214894003Y-148965932D01*
X214898334Y-148944676D01*
X214905229Y-148928728D01*
X214920014Y-148917934D01*
X214948015Y-148912139D01*
X214994558Y-148911190D01*
X215064970Y-148914932D01*
X215164576Y-148923213D01*
X215298704Y-148935879D01*
X215472679Y-148952775D01*
X215502807Y-148955683D01*
X215644467Y-148969066D01*
X215771897Y-148980644D01*
X215877371Y-148989746D01*
X215953163Y-148995702D01*
X215991546Y-148997840D01*
X215993072Y-148997842D01*
X216022374Y-149000666D01*
X216036244Y-149016161D01*
X216037909Y-149055101D01*
X216030594Y-149128259D01*
X216023577Y-149182601D01*
X215970625Y-149437725D01*
X215887371Y-149691292D01*
X215778431Y-149932745D01*
X215648421Y-150151526D01*
X215501960Y-150337078D01*
X215442171Y-150398942D01*
X215247396Y-150566698D01*
X215030539Y-150704486D01*
X214787119Y-150814451D01*
X214512659Y-150898740D01*
X214202679Y-150959498D01*
X214118384Y-150970055D01*
X213946591Y-150983046D01*
X213752388Y-150989504D01*
X213549978Y-150989306D01*
X213353568Y-150982327D01*
X213177363Y-150968445D01*
X212963864Y-150938424D01*
X212658439Y-150867654D01*
X212382406Y-150767908D01*
X212137869Y-150640166D01*
X211926931Y-150485408D01*
X211751697Y-150304613D01*
X211685367Y-150216207D01*
X211570890Y-150030214D01*
X211476921Y-149832721D01*
X211412500Y-149641401D01*
X211402161Y-149595314D01*
X211381431Y-149451429D01*
X211369737Y-149284673D01*
X211367452Y-149110686D01*
X211374948Y-148945109D01*
X211392595Y-148803585D01*
X211404603Y-148746074D01*
X211467480Y-148542798D01*
X211557493Y-148345468D01*
X211666353Y-148173166D01*
X211761969Y-148056868D01*
X211878172Y-147941167D01*
X212009904Y-147836375D01*
X212161399Y-147740357D01*
X212336893Y-147650977D01*
X212540622Y-147566098D01*
X212776822Y-147483583D01*
X213049726Y-147401297D01*
X213363572Y-147317103D01*
X213550343Y-147268799D01*
X213772695Y-147209192D01*
X213958382Y-147156213D01*
X214111870Y-147108248D01*
X214237623Y-147063682D01*
X214340107Y-147020901D01*
X214423786Y-146978289D01*
X214493127Y-146934232D01*
X214552593Y-146887116D01*
X214579638Y-146861327D01*
X214635033Y-146796107D01*
X214670968Y-146736752D01*
X214670996Y-146736685D01*
X214693310Y-146650256D01*
X214700469Y-146547458D01*
X214692546Y-146448025D01*
X214669614Y-146371686D01*
X214651654Y-146341252D01*
X214563745Y-146243180D01*
X214439669Y-146156861D01*
X214286166Y-146086343D01*
X214109975Y-146035673D01*
X214101176Y-146033866D01*
X213980091Y-146017626D01*
X213834471Y-146009994D01*
X213678193Y-146010596D01*
X213525136Y-146019055D01*
X213389178Y-146034995D01*
X213284197Y-146058041D01*
X213196796Y-146090559D01*
X213037130Y-146184046D01*
X212906259Y-146311979D01*
X212805413Y-146472995D01*
X212735818Y-146665734D01*
X212694554Y-146826101D01*
X212172947Y-146807628D01*
X212095986Y-146804914D01*
X211947888Y-146799758D01*
X211815421Y-146795232D01*
X211706009Y-146791586D01*
X211627078Y-146789067D01*
X211586050Y-146787926D01*
X211520759Y-146786696D01*
X211534333Y-146610670D01*
X211549305Y-146498596D01*
X211578002Y-146363355D01*
X211614673Y-146235363D01*
X211701395Y-146020254D01*
X211835669Y-145789436D01*
X212002626Y-145589953D01*
X212202692Y-145421313D01*
X212436294Y-145283023D01*
X212479443Y-145262226D01*
X212675167Y-145179711D01*
X212874005Y-145116937D01*
X213084044Y-145072497D01*
X213313368Y-145044987D01*
X213570061Y-145033001D01*
X213862209Y-145035134D01*
G36*
X213862209Y-145035134D02*
G01*
X213968097Y-145038826D01*
X214179311Y-145052400D01*
X214362149Y-145074980D01*
X214528098Y-145108682D01*
X214688646Y-145155619D01*
X214855279Y-145217905D01*
X214963070Y-145267145D01*
X215167341Y-145390164D01*
X215354471Y-145541503D01*
X215515116Y-145713077D01*
X215639930Y-145896799D01*
X215718206Y-146059616D01*
X215794927Y-146301518D01*
X215830654Y-146548677D01*
X215826416Y-146796017D01*
X215783243Y-147038465D01*
X215702167Y-147270946D01*
X215584216Y-147488385D01*
X215430422Y-147685709D01*
X215241813Y-147857843D01*
X215095941Y-147956745D01*
X214873885Y-148074386D01*
X214607895Y-148185409D01*
X214298527Y-148289589D01*
X213946333Y-148386699D01*
X213775535Y-148429856D01*
X213540944Y-148491026D01*
X213343931Y-148545477D01*
X213180331Y-148594785D01*
X213045981Y-148640527D01*
X212936716Y-148684280D01*
X212848371Y-148727619D01*
X212776781Y-148772122D01*
X212717783Y-148819365D01*
X212667211Y-148870925D01*
X212586822Y-148989904D01*
X212540618Y-149129380D01*
X212534985Y-149276086D01*
X212569341Y-149424532D01*
X212643104Y-149569232D01*
X212755691Y-149704697D01*
X212812132Y-149755440D01*
X212973151Y-149861266D01*
X213162672Y-149935989D01*
X213382819Y-149980309D01*
X213635715Y-149994927D01*
X213760211Y-149991205D01*
X214005069Y-149958616D01*
X214221213Y-149892873D01*
X214407584Y-149794475D01*
X214563119Y-149663918D01*
X214686757Y-149501702D01*
X214708146Y-149463769D01*
X214762504Y-149350014D01*
X214816167Y-149217631D01*
X214862098Y-149084752D01*
X214893262Y-148969509D01*
X214894003Y-148965932D01*
X214898334Y-148944676D01*
X214905229Y-148928728D01*
X214920014Y-148917934D01*
X214948015Y-148912139D01*
X214994558Y-148911190D01*
X215064970Y-148914932D01*
X215164576Y-148923213D01*
X215298704Y-148935879D01*
X215472679Y-148952775D01*
X215502807Y-148955683D01*
X215644467Y-148969066D01*
X215771897Y-148980644D01*
X215877371Y-148989746D01*
X215953163Y-148995702D01*
X215991546Y-148997840D01*
X215993072Y-148997842D01*
X216022374Y-149000666D01*
X216036244Y-149016161D01*
X216037909Y-149055101D01*
X216030594Y-149128259D01*
X216023577Y-149182601D01*
X215970625Y-149437725D01*
X215887371Y-149691292D01*
X215778431Y-149932745D01*
X215648421Y-150151526D01*
X215501960Y-150337078D01*
X215442171Y-150398942D01*
X215247396Y-150566698D01*
X215030539Y-150704486D01*
X214787119Y-150814451D01*
X214512659Y-150898740D01*
X214202679Y-150959498D01*
X214118384Y-150970055D01*
X213946591Y-150983046D01*
X213752388Y-150989504D01*
X213549978Y-150989306D01*
X213353568Y-150982327D01*
X213177363Y-150968445D01*
X212963864Y-150938424D01*
X212658439Y-150867654D01*
X212382406Y-150767908D01*
X212137869Y-150640166D01*
X211926931Y-150485408D01*
X211751697Y-150304613D01*
X211685367Y-150216207D01*
X211570890Y-150030214D01*
X211476921Y-149832721D01*
X211412500Y-149641401D01*
X211402161Y-149595314D01*
X211381431Y-149451429D01*
X211369737Y-149284673D01*
X211367452Y-149110686D01*
X211374948Y-148945109D01*
X211392595Y-148803585D01*
X211404603Y-148746074D01*
X211467480Y-148542798D01*
X211557493Y-148345468D01*
X211666353Y-148173166D01*
X211761969Y-148056868D01*
X211878172Y-147941167D01*
X212009904Y-147836375D01*
X212161399Y-147740357D01*
X212336893Y-147650977D01*
X212540622Y-147566098D01*
X212776822Y-147483583D01*
X213049726Y-147401297D01*
X213363572Y-147317103D01*
X213550343Y-147268799D01*
X213772695Y-147209192D01*
X213958382Y-147156213D01*
X214111870Y-147108248D01*
X214237623Y-147063682D01*
X214340107Y-147020901D01*
X214423786Y-146978289D01*
X214493127Y-146934232D01*
X214552593Y-146887116D01*
X214579638Y-146861327D01*
X214635033Y-146796107D01*
X214670968Y-146736752D01*
X214670996Y-146736685D01*
X214693310Y-146650256D01*
X214700469Y-146547458D01*
X214692546Y-146448025D01*
X214669614Y-146371686D01*
X214651654Y-146341252D01*
X214563745Y-146243180D01*
X214439669Y-146156861D01*
X214286166Y-146086343D01*
X214109975Y-146035673D01*
X214101176Y-146033866D01*
X213980091Y-146017626D01*
X213834471Y-146009994D01*
X213678193Y-146010596D01*
X213525136Y-146019055D01*
X213389178Y-146034995D01*
X213284197Y-146058041D01*
X213196796Y-146090559D01*
X213037130Y-146184046D01*
X212906259Y-146311979D01*
X212805413Y-146472995D01*
X212735818Y-146665734D01*
X212694554Y-146826101D01*
X212172947Y-146807628D01*
X212095986Y-146804914D01*
X211947888Y-146799758D01*
X211815421Y-146795232D01*
X211706009Y-146791586D01*
X211627078Y-146789067D01*
X211586050Y-146787926D01*
X211520759Y-146786696D01*
X211534333Y-146610670D01*
X211549305Y-146498596D01*
X211578002Y-146363355D01*
X211614673Y-146235363D01*
X211701395Y-146020254D01*
X211835669Y-145789436D01*
X212002626Y-145589953D01*
X212202692Y-145421313D01*
X212436294Y-145283023D01*
X212479443Y-145262226D01*
X212675167Y-145179711D01*
X212874005Y-145116937D01*
X213084044Y-145072497D01*
X213313368Y-145044987D01*
X213570061Y-145033001D01*
X213862209Y-145035134D01*
G37*
%TD*%
M02*
