%TF.GenerationSoftware,KiCad,Pcbnew,9.0.2*%
%TF.CreationDate,2025-07-11T11:40:40-07:00*%
%TF.ProjectId,ES-Seed3-DevKit-Pedal-Rev2,45532d53-6565-4643-932d-4465764b6974,rev?*%
%TF.SameCoordinates,Original*%
%TF.FileFunction,Paste,Top*%
%TF.FilePolarity,Positive*%
%FSLAX45Y45*%
G04 Gerber Fmt 4.5, Leading zero omitted, Abs format (unit mm)*
G04 Created by KiCad (PCBNEW 9.0.2) date 2025-07-11 11:40:40*
%MOMM*%
%LPD*%
G01*
G04 APERTURE LIST*
G04 Aperture macros list*
%AMRoundRect*
0 Rectangle with rounded corners*
0 $1 Rounding radius*
0 $2 $3 $4 $5 $6 $7 $8 $9 X,Y pos of 4 corners*
0 Add a 4 corners polygon primitive as box body*
4,1,4,$2,$3,$4,$5,$6,$7,$8,$9,$2,$3,0*
0 Add four circle primitives for the rounded corners*
1,1,$1+$1,$2,$3*
1,1,$1+$1,$4,$5*
1,1,$1+$1,$6,$7*
1,1,$1+$1,$8,$9*
0 Add four rect primitives between the rounded corners*
20,1,$1+$1,$2,$3,$4,$5,0*
20,1,$1+$1,$4,$5,$6,$7,0*
20,1,$1+$1,$6,$7,$8,$9,0*
20,1,$1+$1,$8,$9,$2,$3,0*%
G04 Aperture macros list end*
%ADD10C,0.000000*%
%ADD11RoundRect,0.200000X-0.275000X0.200000X-0.275000X-0.200000X0.275000X-0.200000X0.275000X0.200000X0*%
%ADD12RoundRect,0.225000X0.250000X-0.225000X0.250000X0.225000X-0.250000X0.225000X-0.250000X-0.225000X0*%
%ADD13RoundRect,0.225000X-0.250000X0.225000X-0.250000X-0.225000X0.250000X-0.225000X0.250000X0.225000X0*%
%ADD14RoundRect,0.200000X0.200000X0.275000X-0.200000X0.275000X-0.200000X-0.275000X0.200000X-0.275000X0*%
%ADD15RoundRect,0.225000X-0.225000X-0.250000X0.225000X-0.250000X0.225000X0.250000X-0.225000X0.250000X0*%
%ADD16RoundRect,0.200000X0.275000X-0.200000X0.275000X0.200000X-0.275000X0.200000X-0.275000X-0.200000X0*%
%ADD17RoundRect,0.250000X0.550000X-1.500000X0.550000X1.500000X-0.550000X1.500000X-0.550000X-1.500000X0*%
%ADD18RoundRect,0.150000X0.825000X0.150000X-0.825000X0.150000X-0.825000X-0.150000X0.825000X-0.150000X0*%
%ADD19RoundRect,0.200000X-0.200000X-0.275000X0.200000X-0.275000X0.200000X0.275000X-0.200000X0.275000X0*%
%ADD20RoundRect,0.250000X-0.625000X0.312500X-0.625000X-0.312500X0.625000X-0.312500X0.625000X0.312500X0*%
%ADD21RoundRect,0.225000X0.225000X0.250000X-0.225000X0.250000X-0.225000X-0.250000X0.225000X-0.250000X0*%
%ADD22RoundRect,0.250000X0.312500X0.625000X-0.312500X0.625000X-0.312500X-0.625000X0.312500X-0.625000X0*%
%ADD23RoundRect,0.250000X-0.550000X1.500000X-0.550000X-1.500000X0.550000X-1.500000X0.550000X1.500000X0*%
%ADD24RoundRect,0.250000X0.550000X-1.050000X0.550000X1.050000X-0.550000X1.050000X-0.550000X-1.050000X0*%
%ADD25RoundRect,0.112500X0.112500X-0.187500X0.112500X0.187500X-0.112500X0.187500X-0.112500X-0.187500X0*%
%ADD26RoundRect,0.250000X0.475000X-0.250000X0.475000X0.250000X-0.475000X0.250000X-0.475000X-0.250000X0*%
%ADD27RoundRect,0.150000X-0.150000X0.825000X-0.150000X-0.825000X0.150000X-0.825000X0.150000X0.825000X0*%
%ADD28RoundRect,0.250000X1.050000X0.550000X-1.050000X0.550000X-1.050000X-0.550000X1.050000X-0.550000X0*%
%ADD29RoundRect,0.250000X-1.050000X-0.550000X1.050000X-0.550000X1.050000X0.550000X-1.050000X0.550000X0*%
%ADD30R,1.150000X0.600000*%
%ADD31R,1.150000X0.300000*%
%ADD32R,2.000000X2.180000*%
%ADD33RoundRect,0.150000X-0.512500X-0.150000X0.512500X-0.150000X0.512500X0.150000X-0.512500X0.150000X0*%
%ADD34RoundRect,0.250000X-0.475000X0.250000X-0.475000X-0.250000X0.475000X-0.250000X0.475000X0.250000X0*%
%ADD35RoundRect,0.250000X-0.550000X1.050000X-0.550000X-1.050000X0.550000X-1.050000X0.550000X1.050000X0*%
%ADD36RoundRect,0.250000X-1.500000X-0.550000X1.500000X-0.550000X1.500000X0.550000X-1.500000X0.550000X0*%
%ADD37R,1.300000X0.700000*%
%ADD38R,1.651000X1.447800*%
%ADD39R,2.438400X1.447800*%
%ADD40R,1.651000X1.854200*%
%ADD41RoundRect,0.150000X-0.150000X0.512500X-0.150000X-0.512500X0.150000X-0.512500X0.150000X0.512500X0*%
%ADD42RoundRect,0.250000X1.500000X0.550000X-1.500000X0.550000X-1.500000X-0.550000X1.500000X-0.550000X0*%
G04 APERTURE END LIST*
D10*
%TO.C,SW2*%
G36*
X4571317Y1132577D02*
G01*
X4586243Y1126395D01*
X4599060Y1116560D01*
X4608895Y1103743D01*
X4615077Y1088817D01*
X4617120Y1073299D01*
X4617120Y926701D01*
X4615077Y911183D01*
X4608895Y896257D01*
X4599060Y883440D01*
X4586243Y873605D01*
X4571317Y867423D01*
X4555799Y865380D01*
X4536201Y865380D01*
X4520683Y867423D01*
X4505758Y873605D01*
X4492940Y883440D01*
X4482793Y896664D01*
X4474880Y926197D01*
X4474880Y1073299D01*
X4476923Y1088817D01*
X4483105Y1103743D01*
X4492940Y1116560D01*
X4506164Y1126707D01*
X4535698Y1134620D01*
X4555799Y1134620D01*
X4571317Y1132577D01*
G37*
G36*
X4825317Y1132577D02*
G01*
X4840243Y1126395D01*
X4853060Y1116560D01*
X4862895Y1103743D01*
X4869077Y1088817D01*
X4871120Y1073299D01*
X4871120Y926701D01*
X4869077Y911183D01*
X4862895Y896257D01*
X4853060Y883440D01*
X4840243Y873605D01*
X4825317Y867423D01*
X4809799Y865380D01*
X4790201Y865380D01*
X4774683Y867423D01*
X4759758Y873605D01*
X4746940Y883440D01*
X4736793Y896664D01*
X4728880Y926197D01*
X4728880Y1073299D01*
X4730923Y1088817D01*
X4737105Y1103743D01*
X4746940Y1116560D01*
X4760164Y1126707D01*
X4789698Y1134620D01*
X4809799Y1134620D01*
X4825317Y1132577D01*
G37*
G36*
X5079317Y1132577D02*
G01*
X5094243Y1126395D01*
X5107060Y1116560D01*
X5116895Y1103743D01*
X5123077Y1088817D01*
X5125120Y1073299D01*
X5125120Y926701D01*
X5123077Y911183D01*
X5116895Y896257D01*
X5107060Y883440D01*
X5094243Y873605D01*
X5079317Y867423D01*
X5063799Y865380D01*
X5044201Y865380D01*
X5028683Y867423D01*
X5013757Y873605D01*
X5000940Y883440D01*
X4990793Y896664D01*
X4982880Y926197D01*
X4982880Y1073299D01*
X4984923Y1088817D01*
X4991105Y1103743D01*
X5000940Y1116560D01*
X5014164Y1126707D01*
X5043697Y1134620D01*
X5063799Y1134620D01*
X5079317Y1132577D01*
G37*
%TO.C,SW1*%
G36*
X2771317Y1132577D02*
G01*
X2786243Y1126395D01*
X2799060Y1116560D01*
X2808895Y1103743D01*
X2815077Y1088817D01*
X2817120Y1073299D01*
X2817120Y926701D01*
X2815077Y911183D01*
X2808895Y896257D01*
X2799060Y883440D01*
X2786243Y873605D01*
X2771317Y867423D01*
X2755799Y865380D01*
X2736201Y865380D01*
X2720683Y867423D01*
X2705758Y873605D01*
X2692940Y883440D01*
X2682793Y896664D01*
X2674880Y926197D01*
X2674880Y1073299D01*
X2676923Y1088817D01*
X2683105Y1103743D01*
X2692940Y1116560D01*
X2706164Y1126707D01*
X2735698Y1134620D01*
X2755799Y1134620D01*
X2771317Y1132577D01*
G37*
G36*
X3025317Y1132577D02*
G01*
X3040242Y1126395D01*
X3053060Y1116560D01*
X3062895Y1103743D01*
X3069077Y1088817D01*
X3071120Y1073299D01*
X3071120Y926701D01*
X3069077Y911183D01*
X3062895Y896257D01*
X3053060Y883440D01*
X3040243Y873605D01*
X3025317Y867423D01*
X3009799Y865380D01*
X2990201Y865380D01*
X2974683Y867423D01*
X2959757Y873605D01*
X2946940Y883440D01*
X2936793Y896664D01*
X2928880Y926197D01*
X2928880Y1073299D01*
X2930923Y1088817D01*
X2937105Y1103743D01*
X2946940Y1116560D01*
X2960164Y1126707D01*
X2989697Y1134620D01*
X3009799Y1134620D01*
X3025317Y1132577D01*
G37*
G36*
X3279317Y1132577D02*
G01*
X3294242Y1126395D01*
X3307060Y1116560D01*
X3316895Y1103743D01*
X3323077Y1088817D01*
X3325120Y1073299D01*
X3325120Y926701D01*
X3323077Y911183D01*
X3316895Y896257D01*
X3307060Y883440D01*
X3294243Y873605D01*
X3279317Y867423D01*
X3263799Y865380D01*
X3244201Y865380D01*
X3228683Y867423D01*
X3213757Y873605D01*
X3200940Y883440D01*
X3190793Y896664D01*
X3182880Y926197D01*
X3182880Y1073299D01*
X3184923Y1088817D01*
X3191105Y1103743D01*
X3200940Y1116560D01*
X3214164Y1126707D01*
X3243697Y1134620D01*
X3263799Y1134620D01*
X3279317Y1132577D01*
G37*
%TO.C,SW6*%
G36*
X6371317Y1132577D02*
G01*
X6386243Y1126395D01*
X6399060Y1116560D01*
X6408895Y1103743D01*
X6415077Y1088817D01*
X6417120Y1073299D01*
X6417120Y926701D01*
X6415077Y911183D01*
X6408895Y896257D01*
X6399060Y883440D01*
X6386243Y873605D01*
X6371317Y867423D01*
X6355799Y865380D01*
X6336201Y865380D01*
X6320683Y867423D01*
X6305757Y873605D01*
X6292940Y883440D01*
X6282793Y896664D01*
X6274880Y926197D01*
X6274880Y1073299D01*
X6276923Y1088817D01*
X6283105Y1103743D01*
X6292940Y1116560D01*
X6306164Y1126707D01*
X6335697Y1134620D01*
X6355799Y1134620D01*
X6371317Y1132577D01*
G37*
G36*
X6625317Y1132577D02*
G01*
X6640242Y1126395D01*
X6653060Y1116560D01*
X6662895Y1103743D01*
X6669077Y1088817D01*
X6671120Y1073299D01*
X6671120Y926701D01*
X6669077Y911183D01*
X6662895Y896257D01*
X6653060Y883440D01*
X6640243Y873605D01*
X6625317Y867423D01*
X6609799Y865380D01*
X6590201Y865380D01*
X6574683Y867423D01*
X6559757Y873605D01*
X6546940Y883440D01*
X6536793Y896664D01*
X6528880Y926197D01*
X6528880Y1073299D01*
X6530923Y1088817D01*
X6537105Y1103743D01*
X6546940Y1116560D01*
X6560164Y1126707D01*
X6589697Y1134620D01*
X6609799Y1134620D01*
X6625317Y1132577D01*
G37*
G36*
X6879317Y1132577D02*
G01*
X6894242Y1126395D01*
X6907060Y1116560D01*
X6916895Y1103743D01*
X6923077Y1088817D01*
X6925120Y1073299D01*
X6925120Y926701D01*
X6923077Y911183D01*
X6916895Y896257D01*
X6907060Y883440D01*
X6894243Y873605D01*
X6879317Y867423D01*
X6863799Y865380D01*
X6844201Y865380D01*
X6828683Y867423D01*
X6813757Y873605D01*
X6800940Y883440D01*
X6790793Y896664D01*
X6782880Y926197D01*
X6782880Y1073299D01*
X6784923Y1088817D01*
X6791105Y1103743D01*
X6800940Y1116560D01*
X6814164Y1126707D01*
X6843697Y1134620D01*
X6863799Y1134620D01*
X6879317Y1132577D01*
G37*
%TD*%
D11*
%TO.C,R46*%
X16870000Y7482500D03*
X16870000Y7317500D03*
%TD*%
D12*
%TO.C,C46*%
X3175000Y5077500D03*
X3175000Y5232500D03*
%TD*%
D11*
%TO.C,R61*%
X17440000Y7482500D03*
X17440000Y7317500D03*
%TD*%
%TO.C,R10*%
X4680000Y5580000D03*
X4680000Y5415000D03*
%TD*%
D13*
%TO.C,C30*%
X8760000Y4742500D03*
X8760000Y4587500D03*
%TD*%
D14*
%TO.C,R77*%
X7322500Y3525000D03*
X7157500Y3525000D03*
%TD*%
D15*
%TO.C,C5*%
X6402500Y2140000D03*
X6557500Y2140000D03*
%TD*%
%TO.C,C31*%
X16227500Y7115000D03*
X16382500Y7115000D03*
%TD*%
D13*
%TO.C,C47*%
X19025000Y2027500D03*
X19025000Y1872500D03*
%TD*%
D16*
%TO.C,R50*%
X775000Y3235000D03*
X775000Y3400000D03*
%TD*%
D17*
%TO.C,C27*%
X14855000Y7235000D03*
X14855000Y7775000D03*
%TD*%
D18*
%TO.C,U3*%
X6617500Y4969500D03*
X6617500Y5096500D03*
X6617500Y5223500D03*
X6617500Y5350500D03*
X6122500Y5350500D03*
X6122500Y5223500D03*
X6122500Y5096500D03*
X6122500Y4969500D03*
%TD*%
D19*
%TO.C,R2*%
X1167510Y6900000D03*
X1332510Y6900000D03*
%TD*%
D16*
%TO.C,R26*%
X5900000Y5107500D03*
X5900000Y5272500D03*
%TD*%
D12*
%TO.C,C33*%
X4325000Y5417500D03*
X4325000Y5572500D03*
%TD*%
D16*
%TO.C,R56*%
X4500000Y5102500D03*
X4500000Y5267500D03*
%TD*%
D15*
%TO.C,C12*%
X5662500Y5425000D03*
X5817500Y5425000D03*
%TD*%
D16*
%TO.C,R51*%
X525000Y3235000D03*
X525000Y3400000D03*
%TD*%
D20*
%TO.C,R57*%
X13954750Y7746250D03*
X13954750Y7453750D03*
%TD*%
D21*
%TO.C,C20*%
X12707500Y9560000D03*
X12552500Y9560000D03*
%TD*%
D11*
%TO.C,R44*%
X2400000Y2307500D03*
X2400000Y2142500D03*
%TD*%
%TO.C,R60*%
X3350000Y5237500D03*
X3350000Y5072500D03*
%TD*%
%TO.C,R22*%
X5550000Y5272500D03*
X5550000Y5107500D03*
%TD*%
%TO.C,R21*%
X6245000Y4782500D03*
X6245000Y4617500D03*
%TD*%
D16*
%TO.C,R52*%
X1550000Y3235000D03*
X1550000Y3400000D03*
%TD*%
%TO.C,R8*%
X9420000Y5027500D03*
X9420000Y5192500D03*
%TD*%
D22*
%TO.C,R48*%
X12702500Y7790000D03*
X12410000Y7790000D03*
%TD*%
D23*
%TO.C,C24*%
X10470000Y7580000D03*
X10470000Y7040000D03*
%TD*%
D11*
%TO.C,R7*%
X9580000Y5192500D03*
X9580000Y5027500D03*
%TD*%
D14*
%TO.C,R13*%
X6872500Y2300000D03*
X6707500Y2300000D03*
%TD*%
D11*
%TO.C,R71*%
X8590000Y4747500D03*
X8590000Y4582500D03*
%TD*%
D19*
%TO.C,R43*%
X14975000Y1325000D03*
X15140000Y1325000D03*
%TD*%
D24*
%TO.C,C29*%
X9580000Y5465000D03*
X9580000Y5825000D03*
%TD*%
D13*
%TO.C,C9*%
X6405000Y4777500D03*
X6405000Y4622500D03*
%TD*%
D14*
%TO.C,R11*%
X6562500Y1980000D03*
X6397500Y1980000D03*
%TD*%
D16*
%TO.C,R54*%
X1050000Y3235000D03*
X1050000Y3400000D03*
%TD*%
D13*
%TO.C,C11*%
X5725000Y5267500D03*
X5725000Y5112500D03*
%TD*%
D25*
%TO.C,D5*%
X13070000Y8315000D03*
X13070000Y8525000D03*
%TD*%
D26*
%TO.C,C26*%
X14355000Y7450000D03*
X14355000Y7640000D03*
%TD*%
D23*
%TO.C,C43*%
X15115000Y6855000D03*
X15115000Y6315000D03*
%TD*%
D14*
%TO.C,R75*%
X6722500Y3250000D03*
X6557500Y3250000D03*
%TD*%
D19*
%TO.C,FB5*%
X12707500Y9060000D03*
X12872500Y9060000D03*
%TD*%
D27*
%TO.C,U10*%
X6690500Y3022500D03*
X6563500Y3022500D03*
X6436500Y3022500D03*
X6309500Y3022500D03*
X6309500Y2527500D03*
X6436500Y2527500D03*
X6563500Y2527500D03*
X6690500Y2527500D03*
%TD*%
D11*
%TO.C,R15*%
X7025000Y5222500D03*
X7025000Y5057500D03*
%TD*%
D18*
%TO.C,U9*%
X9107500Y4934500D03*
X9107500Y5061500D03*
X9107500Y5188500D03*
X9107500Y5315500D03*
X8612500Y5315500D03*
X8612500Y5188500D03*
X8612500Y5061500D03*
X8612500Y4934500D03*
%TD*%
D19*
%TO.C,R1*%
X1167510Y7450000D03*
X1332510Y7450000D03*
%TD*%
D28*
%TO.C,C48*%
X6020000Y3135000D03*
X5660000Y3135000D03*
%TD*%
D14*
%TO.C,R12*%
X6562500Y2300000D03*
X6397500Y2300000D03*
%TD*%
%TO.C,R14*%
X7322500Y2025000D03*
X7157500Y2025000D03*
%TD*%
D11*
%TO.C,R58*%
X8930000Y4747500D03*
X8930000Y4582500D03*
%TD*%
D15*
%TO.C,C37*%
X8152500Y5375000D03*
X8307500Y5375000D03*
%TD*%
%TO.C,C2*%
X3547500Y4945000D03*
X3702500Y4945000D03*
%TD*%
D21*
%TO.C,C25*%
X8307500Y4905000D03*
X8152500Y4905000D03*
%TD*%
D19*
%TO.C,R29*%
X17710000Y4990000D03*
X17875000Y4990000D03*
%TD*%
D29*
%TO.C,C10*%
X5645000Y4610000D03*
X6005000Y4610000D03*
%TD*%
D19*
%TO.C,R72*%
X8467500Y5495000D03*
X8632500Y5495000D03*
%TD*%
D12*
%TO.C,C34*%
X17800000Y3530000D03*
X17800000Y3685000D03*
%TD*%
D14*
%TO.C,FB1*%
X16077500Y7115000D03*
X15912500Y7115000D03*
%TD*%
%TO.C,R28*%
X17862500Y6000000D03*
X17697500Y6000000D03*
%TD*%
D16*
%TO.C,R53*%
X1300000Y3235000D03*
X1300000Y3400000D03*
%TD*%
D11*
%TO.C,R69*%
X8080000Y5227500D03*
X8080000Y5062500D03*
%TD*%
D16*
%TO.C,R65*%
X8214470Y8101020D03*
X8214470Y8266020D03*
%TD*%
D19*
%TO.C,R27*%
X6087500Y5540000D03*
X6252500Y5540000D03*
%TD*%
D16*
%TO.C,R76*%
X6870000Y3162500D03*
X6870000Y3327500D03*
%TD*%
D23*
%TO.C,C14*%
X12130000Y7570000D03*
X12130000Y7030000D03*
%TD*%
D11*
%TO.C,R20*%
X6575000Y4782500D03*
X6575000Y4617500D03*
%TD*%
D30*
%TO.C,J7*%
X707500Y7531000D03*
X707500Y7451000D03*
D31*
X707500Y7336000D03*
X707500Y7236000D03*
X707500Y7186000D03*
X707500Y7086000D03*
D30*
X707500Y6891000D03*
X707500Y6971000D03*
D31*
X707500Y7036000D03*
X707500Y7136000D03*
X707500Y7286000D03*
X707500Y7386000D03*
D32*
X650000Y7722000D03*
X650000Y6700000D03*
X257000Y7722000D03*
X257000Y6700000D03*
%TD*%
D33*
%TO.C,U14*%
X1281260Y7270000D03*
X1281260Y7175000D03*
X1281260Y7080000D03*
X1508760Y7080000D03*
X1508760Y7175000D03*
X1508760Y7270000D03*
%TD*%
D19*
%TO.C,R5*%
X4117500Y4945000D03*
X4282500Y4945000D03*
%TD*%
D12*
%TO.C,C22*%
X13070000Y8662500D03*
X13070000Y8817500D03*
%TD*%
D11*
%TO.C,FB9*%
X13070000Y8172500D03*
X13070000Y8007500D03*
%TD*%
D12*
%TO.C,C55*%
X4500000Y5417500D03*
X4500000Y5572500D03*
%TD*%
D16*
%TO.C,R16*%
X6850000Y5057500D03*
X6850000Y5222500D03*
%TD*%
D34*
%TO.C,C15*%
X14575000Y6970000D03*
X14575000Y6780000D03*
%TD*%
D19*
%TO.C,FB10*%
X12707500Y9400000D03*
X12872500Y9400000D03*
%TD*%
D16*
%TO.C,R3*%
X19025000Y1192500D03*
X19025000Y1357500D03*
%TD*%
D35*
%TO.C,C18*%
X15745000Y6865000D03*
X15745000Y6505000D03*
%TD*%
D16*
%TO.C,R59*%
X17720000Y7317500D03*
X17720000Y7482500D03*
%TD*%
D13*
%TO.C,C32*%
X8240000Y5222500D03*
X8240000Y5067500D03*
%TD*%
D23*
%TO.C,C21*%
X12560000Y8750000D03*
X12560000Y8210000D03*
%TD*%
D20*
%TO.C,R30*%
X1300000Y6092500D03*
X1300000Y5800000D03*
%TD*%
D14*
%TO.C,R18*%
X3732500Y5705000D03*
X3567500Y5705000D03*
%TD*%
D20*
%TO.C,R6*%
X1300000Y5592500D03*
X1300000Y5300000D03*
%TD*%
D15*
%TO.C,C38*%
X6562500Y3410000D03*
X6717500Y3410000D03*
%TD*%
D21*
%TO.C,C4*%
X5827500Y4950000D03*
X5672500Y4950000D03*
%TD*%
D16*
%TO.C,R9*%
X4680000Y5105000D03*
X4680000Y5270000D03*
%TD*%
D18*
%TO.C,U1*%
X4092500Y5134500D03*
X4092500Y5261500D03*
X4092500Y5388500D03*
X4092500Y5515500D03*
X3597500Y5515500D03*
X3597500Y5388500D03*
X3597500Y5261500D03*
X3597500Y5134500D03*
%TD*%
D12*
%TO.C,C16*%
X14175000Y7447500D03*
X14175000Y7602500D03*
%TD*%
D22*
%TO.C,R55*%
X11830000Y7790000D03*
X11537500Y7790000D03*
%TD*%
D11*
%TO.C,R19*%
X4325000Y5267500D03*
X4325000Y5102500D03*
%TD*%
%TO.C,R40*%
X2575000Y2307500D03*
X2575000Y2142500D03*
%TD*%
D36*
%TO.C,C39*%
X4005000Y6025000D03*
X4545000Y6025000D03*
%TD*%
D28*
%TO.C,C42*%
X7500000Y3165000D03*
X7140000Y3165000D03*
%TD*%
D37*
%TO.C,U7*%
X1544880Y1607020D03*
X1544880Y1717020D03*
X1544880Y1827020D03*
X1544880Y1937020D03*
X1544880Y2047020D03*
X1544880Y2157020D03*
X1544880Y2267020D03*
X1544880Y2377020D03*
X1544880Y2487020D03*
D38*
X1467500Y2628860D03*
D39*
X497500Y2628860D03*
X497500Y1046380D03*
D40*
X1467500Y1123880D03*
%TD*%
D23*
%TO.C,C13*%
X13000000Y7570000D03*
X13000000Y7030000D03*
%TD*%
D16*
%TO.C,R17*%
X3350000Y5382500D03*
X3350000Y5547500D03*
%TD*%
D41*
%TO.C,U2*%
X14208500Y7181500D03*
X14113500Y7181500D03*
X14018500Y7181500D03*
X14018500Y6954000D03*
X14208500Y6954000D03*
%TD*%
D24*
%TO.C,C7*%
X7070000Y5490000D03*
X7070000Y5850000D03*
%TD*%
D35*
%TO.C,C19*%
X16255000Y6865000D03*
X16255000Y6505000D03*
%TD*%
D14*
%TO.C,FB4*%
X12872500Y9230000D03*
X12707500Y9230000D03*
%TD*%
%TO.C,R74*%
X6722500Y3570000D03*
X6557500Y3570000D03*
%TD*%
D11*
%TO.C,R25*%
X2225000Y2307500D03*
X2225000Y2142500D03*
%TD*%
D23*
%TO.C,C23*%
X11260000Y7570000D03*
X11260000Y7030000D03*
%TD*%
D15*
%TO.C,C28*%
X9422500Y4875000D03*
X9577500Y4875000D03*
%TD*%
D19*
%TO.C,R4*%
X17992500Y2000000D03*
X18157500Y2000000D03*
%TD*%
D42*
%TO.C,C41*%
X800000Y6000000D03*
X260000Y6000000D03*
%TD*%
D13*
%TO.C,C40*%
X13827750Y6955500D03*
X13827750Y6800500D03*
%TD*%
D15*
%TO.C,C8*%
X6847500Y4910000D03*
X7002500Y4910000D03*
%TD*%
D16*
%TO.C,R68*%
X17160000Y7317500D03*
X17160000Y7482500D03*
%TD*%
%TO.C,R70*%
X8400000Y5062500D03*
X8400000Y5227500D03*
%TD*%
D42*
%TO.C,C36*%
X800000Y5200000D03*
X260000Y5200000D03*
%TD*%
D29*
%TO.C,C35*%
X7960000Y4575000D03*
X8320000Y4575000D03*
%TD*%
D12*
%TO.C,C17*%
X6880000Y2687500D03*
X6880000Y2842500D03*
%TD*%
%TO.C,C1*%
X19025000Y1532000D03*
X19025000Y1687000D03*
%TD*%
D16*
%TO.C,R64*%
X10710110Y8097140D03*
X10710110Y8262140D03*
%TD*%
D28*
%TO.C,C6*%
X7510000Y2385000D03*
X7150000Y2385000D03*
%TD*%
%TO.C,C3*%
X6030000Y2415000D03*
X5670000Y2415000D03*
%TD*%
M02*
