M48
; DRILL file {KiCad 9.0.2} date 2025-12-08T13:48:02-0800
; FORMAT={-:-/ absolute / metric / decimal}
; #@! TF.CreationDate,2025-12-08T13:48:02-08:00
; #@! TF.GenerationSoftware,Kicad,Pcbnew,9.0.2
; #@! TF.FileFunction,MixedPlating,1,2
FMAT,2
METRIC
; #@! TA.AperFunction,Plated,PTH,ViaDrill
T1C0.300
; #@! TA.AperFunction,Plated,PTH,ViaDrill
T2C0.350
; #@! TA.AperFunction,Plated,PTH,ComponentDrill
T3C0.800
; #@! TA.AperFunction,Plated,PTH,ComponentDrill
T4C0.900
; #@! TA.AperFunction,Plated,PTH,ComponentDrill
T5C1.016
; #@! TA.AperFunction,Plated,PTH,ComponentDrill
T6C1.100
; #@! TA.AperFunction,Plated,PTH,ComponentDrill
T7C1.350
; #@! TA.AperFunction,Plated,PTH,ComponentDrill
T8C1.400
; #@! TA.AperFunction,Plated,PTH,ComponentDrill
T9C2.100
; #@! TA.AperFunction,Plated,PTH,ComponentDrill
T10C2.390
; #@! TA.AperFunction,Plated,PTH,ComponentDrill
T11C3.500
; #@! TA.AperFunction,NonPlated,NPTH,ComponentDrill
T12C0.650
; #@! TA.AperFunction,NonPlated,NPTH,ComponentDrill
T13C1.000
%
G90
G05
T1
X6.6Y34.0
X7.225Y25.975
X8.42Y74.355
X8.42Y69.71
X8.5Y22.5
X9.372Y73.085
X10.289Y71.461
X12.6Y17.2
X13.2Y7.9
X13.525Y24.475
X15.405Y61.337
X16.525Y2.85
X17.0Y18.5
X22.3Y14.9
X25.655Y12.7
X29.8Y5.0
X31.2Y69.5
X33.6Y49.7
X36.0Y3.5
X36.4Y77.4
X36.5Y12.4
X37.225Y2.2
X39.5Y53.0
X41.5Y68.4
X45.3Y49.7
X46.1Y50.4
X51.282Y49.4
X52.0Y53.5
X53.7Y48.1
X54.1Y33.7
X58.8Y48.1
X59.8Y54.3
X61.9Y25.5
X70.4Y26.3
X72.4Y53.9
X73.9Y68.4
X75.2Y68.8
X77.3Y48.1
X78.3Y76.4
X78.8Y26.6
X81.5Y47.6
X84.8Y53.9
X97.3Y52.8
X97.4Y50.275
X101.9Y75.8
X103.0Y68.0
X106.25Y68.0
X111.0Y67.75
X114.25Y67.75
X118.4Y39.1
X118.7Y41.6
X121.5Y42.3
X132.8Y67.2
X136.2Y40.8
X136.7Y38.4
X137.325Y76.26
X139.4Y42.32
X153.8Y39.9
X154.7Y37.6
X157.6Y43.0
X167.6Y17.6
X169.3Y10.0
X174.4Y71.3
X177.0Y58.5
X178.0Y33.5
T2
X50.7Y56.6
X50.7Y55.3
X56.5Y55.4
X83.0Y56.1
T3
X180.2Y17.525
X180.2Y14.985
X180.2Y12.445
X187.82Y17.525
X187.82Y14.985
X187.82Y12.445
T4
X30.0Y23.0
X30.0Y20.841
X30.0Y18.682
X30.0Y16.523
X156.0Y11.54
X156.0Y9.0
T5
X80.749Y12.261
X80.749Y7.739
X87.251Y12.261
X87.251Y7.739
X98.749Y12.261
X98.749Y7.739
X105.251Y12.261
X105.251Y7.739
X118.75Y10.0
X121.25Y10.0
X136.75Y10.0
X139.25Y10.0
T6
X2.795Y44.945
X2.795Y29.705
X5.335Y44.945
X5.335Y29.705
X7.875Y44.945
X7.875Y29.705
X10.415Y44.945
X10.415Y29.705
X12.955Y44.945
X12.955Y29.705
X15.495Y44.945
X15.495Y29.705
X18.035Y44.945
X18.035Y29.705
X20.575Y44.945
X20.575Y29.705
X23.115Y44.945
X23.115Y29.705
X25.655Y44.945
X25.655Y29.705
X27.46Y10.0
X28.195Y44.945
X28.195Y29.705
X30.0Y10.0
X30.735Y44.945
X30.735Y29.705
X32.54Y10.0
X33.275Y44.945
X33.275Y29.705
X35.815Y44.945
X35.815Y29.705
X38.355Y44.945
X38.355Y29.705
X40.895Y44.945
X40.895Y29.705
X43.435Y44.945
X43.435Y29.705
X45.46Y10.0
X45.975Y44.945
X45.975Y29.705
X48.0Y10.0
X48.515Y44.945
X48.515Y29.705
X50.54Y10.0
X51.055Y44.945
X51.055Y29.705
X63.46Y10.0
X66.0Y10.0
X68.54Y10.0
X117.5Y47.0
X117.5Y23.0
X120.0Y47.0
X120.0Y23.0
X122.5Y47.0
X122.5Y23.0
X135.5Y47.0
X135.5Y23.0
X138.0Y47.0
X138.0Y23.0
X140.5Y47.0
X140.5Y23.0
X153.5Y47.0
X153.5Y23.0
X156.0Y47.0
X156.0Y23.0
X158.5Y47.0
X158.5Y23.0
T7
X182.51Y82.5
X182.51Y72.5
X182.51Y60.0
X182.51Y50.0
X182.51Y37.5
X182.51Y27.5
X185.0Y85.0
X185.0Y77.5
X185.0Y70.0
X185.0Y62.5
X185.0Y55.0
X185.0Y47.5
X185.0Y40.0
X185.0Y32.5
X185.0Y25.0
X195.0Y80.0
X195.0Y75.0
X195.0Y57.5
X195.0Y52.5
X195.0Y35.0
X195.0Y30.0
T8
X12.0Y95.35
X12.0Y89.0
X12.0Y82.65
X28.23Y95.35
X28.23Y89.0
X28.23Y82.65
X37.0Y95.35
X37.0Y89.0
X37.0Y82.65
X53.23Y95.35
X53.23Y89.0
X53.23Y82.65
X62.0Y95.35
X62.0Y89.0
X62.0Y82.65
X78.23Y95.35
X78.23Y89.0
X78.23Y82.65
X87.0Y95.35
X87.0Y89.0
X87.0Y82.65
X103.23Y95.35
X103.23Y89.0
X103.23Y82.65
X155.0Y95.35
X155.0Y89.0
X155.0Y82.65
X171.23Y95.35
X171.23Y89.0
X171.23Y82.65
T9
X115.5Y54.0
X115.5Y30.0
X124.5Y54.0
X124.5Y30.0
X133.5Y54.0
X133.5Y30.0
X142.5Y54.0
X142.5Y30.0
X151.5Y54.0
X151.5Y30.0
X160.5Y54.0
X160.5Y30.0
T10
X190.0Y85.0
X190.0Y70.0
X190.0Y62.5
X190.0Y47.5
X190.0Y40.0
X190.0Y25.0
T11
X5.0Y95.0
X5.0Y5.0
X192.0Y95.0
X192.0Y5.0
T12
X6.0Y75.0
X6.0Y69.22
T13
X4.744Y23.304
X4.744Y15.328
T3
X111.7Y90.0G85X111.7Y87.8
G05
X117.6Y91.7G85X115.4Y91.7
G05
X117.8Y85.9G85X115.2Y85.9
G05
M30
